*
G04 Mass Parameters ***
*
G04 Image ***
*
%IND:\UTENTI\00.LAVORI IN CORSO\METALTRONICA\22-314-0.SST*%
%ICAS*%
%MOIN*%
%IPPOS*%
%ASAXBY*%
G74*%FSLAN2X34Y34*%
*
G04 Aperture Definitions ***
*
%ADD10C,0.0787*%
%ADD11C,0.0630*%
%ADD12C,0.0905*%
%ADD13C,0.0590*%
%ADD14C,0.0591*%
%ADD15C,0.0800*%
%ADD16C,0.2756*%
%ADD17C,0.0100*%
%ADD18C,0.0150*%
%ADD19C,0.0200*%
%ADD20C,0.0394*%
%ADD21C,0.0394*%
%ADD22C,0.0060*%
%ADD23C,0.0080*%
*
G04 Plot Data ***
*
G54D17*
G01X0033808Y0000008D02*
X0033725Y0000092D01*
X0033683Y0000175D01*
Y0000342D01*
X0033725Y0000425D01*
X0033808Y0000508D01*
X0033892D01*
X0033975Y0000425D01*
X0034017Y0000342D01*
Y0000175D01*
X0033975Y0000092D01*
X0033892Y0000008D01*
X0033808D01*
X0033442Y0000258D02*
X0033108D01*
X0032867Y0000175D02*
X0032533D01*
X0032700Y0000508D01*
X0032783D01*
Y0000008D01*
X0032292D02*
X0032125D01*
X0032208D02*
Y0000508D01*
X0032125Y0000425D01*
X0031467Y0000092D02*
X0031550Y0000008D01*
X0031717D01*
X0031800Y0000092D01*
Y0000175D01*
X0031633Y0000342D01*
X0031800Y0000508D01*
X0031467D01*
X0031225Y0000258D02*
X0030892D01*
X0030650Y0000008D02*
X0030317D01*
X0030650Y0000342D01*
Y0000425D01*
X0030608Y0000508D01*
X0030358D01*
X0030317Y0000425D01*
X0030075Y0000008D02*
X0029742D01*
X0030075Y0000342D01*
Y0000425D01*
X0030033Y0000508D01*
X0029783D01*
X0029742Y0000425D01*
X0035833Y0006608D02*
X0036083D01*
X0036125Y0006525D01*
Y0006442D01*
X0036083Y0006358D01*
X0035833D01*
X0035792Y0006442D01*
Y0006525D01*
X0035958Y0006858D01*
X0028675Y0006475D02*
X0028342D01*
X0028508Y0006808D01*
X0028592D01*
Y0006308D01*
X0036092Y0002508D02*
X0035925D01*
X0036008D02*
Y0003008D01*
X0035925Y0002925D01*
X0015892Y0002592D02*
X0015975Y0002508D01*
X0016142D01*
X0016225Y0002592D01*
Y0002675D01*
X0016058Y0002842D01*
X0016225Y0003008D01*
X0015892D01*
X0037292Y0021058D02*
X0037125D01*
X0037208D02*
Y0021558D01*
X0037125Y0021475D01*
X0032425Y0020958D02*
X0032092D01*
X0032425Y0021292D01*
Y0021375D01*
X0032383Y0021458D01*
X0032133D01*
X0032092Y0021375D01*
X0037042Y0024692D02*
X0037125Y0024608D01*
X0037292D01*
X0037375Y0024692D01*
Y0024775D01*
X0037208Y0024942D01*
X0037375Y0025108D01*
X0037042D01*
X0032475Y0024775D02*
X0032142D01*
X0032308Y0025108D01*
X0032392D01*
Y0024608D01*
X0012992Y0021058D02*
X0012825D01*
X0012908D02*
Y0021558D01*
X0012825Y0021475D01*
X0018292Y0012058D02*
X0018125D01*
X0018208D02*
Y0012558D01*
X0018125Y0012475D01*
X0013425Y0011958D02*
X0013092D01*
X0013425Y0012292D01*
Y0012375D01*
X0013383Y0012458D01*
X0013133D01*
X0013092Y0012375D01*
X0018042Y0015692D02*
X0018125Y0015608D01*
X0018292D01*
X0018375Y0015692D01*
Y0015775D01*
X0018208Y0015942D01*
X0018375Y0016108D01*
X0018042D01*
X0013475Y0015775D02*
X0013142D01*
X0013308Y0016108D01*
X0013392D01*
Y0015608D01*
X0006992Y0031558D02*
X0006825D01*
X0006908D02*
Y0032058D01*
X0006825Y0031975D01*
X0024492Y0031558D02*
X0024325D01*
X0024408D02*
Y0032058D01*
X0024325Y0031975D01*
X0012742Y0031558D02*
X0012575D01*
X0012658D02*
Y0032058D01*
X0012575Y0031975D01*
X0018525Y-0001042D02*
X0018192D01*
X0018525Y-0001292D02*
Y-0000792D01*
X0018192Y-0001292D02*
Y-0000792D01*
X0017950Y-0001208D02*
X0017908Y-0001292D01*
X0017658D01*
X0017617Y-0001208D01*
Y-0000875D01*
X0017658Y-0000792D01*
X0017908D01*
X0017950Y-0000875D01*
X0017375D02*
X0017333Y-0000792D01*
X0017083D01*
X0017042Y-0000875D01*
Y-0000958D01*
X0017083Y-0001042D01*
X0017333D01*
X0017375Y-0001125D01*
Y-0001208D01*
X0017333Y-0001292D01*
X0017083D01*
X0017042Y-0001208D01*
X0018433Y-0000042D02*
Y0000208D01*
X0018600Y0000458D02*
X0018475Y0000208D01*
X0018392D01*
X0018267Y0000458D01*
X0018025Y0000375D02*
X0017983Y0000458D01*
X0017733D01*
X0017692Y0000375D01*
Y0000292D01*
X0017733Y0000208D01*
X0017983D01*
X0018025Y0000125D01*
Y0000042D01*
X0017983Y-0000042D01*
X0017733D01*
X0017692Y0000042D01*
X0017450Y0000375D02*
X0017408Y0000458D01*
X0017158D01*
X0017117Y0000375D01*
Y0000292D01*
X0017158Y0000208D01*
X0017408D01*
X0017450Y0000125D01*
Y0000042D01*
X0017408Y-0000042D01*
X0017158D01*
X0017117Y0000042D01*
X0016875Y0000125D02*
X0016542D01*
X0016875Y-0000042D02*
Y0000208D01*
X0016750Y0000458D01*
X0016667D01*
X0016542Y0000208D01*
Y-0000042D01*
X0006492Y0002558D02*
X0006325D01*
X0006408D02*
Y0003058D01*
X0006325Y0002975D01*
X0011492Y0002558D02*
X0011325D01*
X0011408D02*
Y0003058D01*
X0011325Y0002975D01*
X0027792Y0012058D02*
X0027625D01*
X0027708D02*
Y0012558D01*
X0027625Y0012475D01*
X0022925Y0011958D02*
X0022592D01*
X0022925Y0012292D01*
Y0012375D01*
X0022883Y0012458D01*
X0022633D01*
X0022592Y0012375D01*
X0027542Y0015692D02*
X0027625Y0015608D01*
X0027792D01*
X0027875Y0015692D01*
Y0015775D01*
X0027708Y0015942D01*
X0027875Y0016108D01*
X0027542D01*
X0022975Y0015775D02*
X0022642D01*
X0022808Y0016108D01*
X0022892D01*
Y0015608D01*
X0009042Y0012058D02*
X0008875D01*
X0008958D02*
Y0012558D01*
X0008875Y0012475D01*
X0004175Y0011958D02*
X0003842D01*
X0004175Y0012292D01*
Y0012375D01*
X0004133Y0012458D01*
X0003883D01*
X0003842Y0012375D01*
X0008792Y0015692D02*
X0008875Y0015608D01*
X0009042D01*
X0009125Y0015692D01*
Y0015775D01*
X0008958Y0015942D01*
X0009125Y0016108D01*
X0008792D01*
X0004225Y0015775D02*
X0003892D01*
X0004058Y0016108D01*
X0004142D01*
Y0015608D01*
X0018742Y0031558D02*
X0018575D01*
X0018658D02*
Y0032058D01*
X0018575Y0031975D01*
X0018742Y0021058D02*
X0018575D01*
X0018658D02*
Y0021558D01*
X0018575Y0021475D01*
X0037292Y0012058D02*
X0037125D01*
X0037208D02*
Y0012558D01*
X0037125Y0012475D01*
X0032425Y0011958D02*
X0032092D01*
X0032425Y0012292D01*
Y0012375D01*
X0032383Y0012458D01*
X0032133D01*
X0032092Y0012375D01*
X0037042Y0015692D02*
X0037125Y0015608D01*
X0037292D01*
X0037375Y0015692D01*
Y0015775D01*
X0037208Y0015942D01*
X0037375Y0016108D01*
X0037042D01*
X0032475Y0015775D02*
X0032142D01*
X0032308Y0016108D01*
X0032392D01*
Y0015608D01*
X0024742Y0021058D02*
X0024575D01*
X0024658D02*
Y0021558D01*
X0024575Y0021475D01*
X0036492Y0031558D02*
X0036325D01*
X0036408D02*
Y0032058D01*
X0036325Y0031975D01*
X0006992Y0021058D02*
X0006825D01*
X0006908D02*
Y0021558D01*
X0006825Y0021475D01*
X0030492Y0031558D02*
X0030325D01*
X0030408D02*
Y0032058D01*
X0030325Y0031975D01*
X0023333Y0006608D02*
X0023583D01*
X0023625Y0006525D01*
Y0006442D01*
X0023583Y0006358D01*
X0023333D01*
X0023292Y0006442D01*
Y0006525D01*
X0023458Y0006858D01*
X0016175Y0006475D02*
X0015842D01*
X0016008Y0006808D01*
X0016092D01*
Y0006308D01*
X0023592Y0002508D02*
X0023425D01*
X0023508D02*
Y0003008D01*
X0023425Y0002925D01*
X0028392Y0002592D02*
X0028475Y0002508D01*
X0028642D01*
X0028725Y0002592D01*
Y0002675D01*
X0028558Y0002842D01*
X0028725Y0003008D01*
X0028392D01*
X0022370Y-0000500D02*
Y-0001500D01*
X0022280Y-0000500D02*
Y-0001500D01*
X0022190Y-0000500D02*
Y-0001500D01*
X0022100Y-0000500D02*
Y-0001500D01*
X0022010Y-0000500D02*
Y-0001500D01*
X0021920Y-0000500D02*
Y-0001500D01*
X0021830Y-0000500D02*
Y-0001500D01*
X0021740Y-0000500D02*
Y-0001500D01*
X0021650Y-0000500D02*
Y-0001500D01*
X0021560Y-0000500D02*
Y-0001500D01*
X0021470Y-0000500D02*
Y-0001500D01*
X0021380Y-0000500D02*
Y-0001500D01*
X0021290Y-0000500D02*
Y-0001500D01*
X0021200Y-0000500D02*
Y-0001500D01*
X0021110Y-0000500D02*
Y-0001500D01*
X0021020Y-0000500D02*
Y-0001500D01*
X0020930Y-0000500D02*
Y-0001500D01*
X0020840Y-0000500D02*
Y-0001500D01*
X0020750Y-0000500D02*
Y-0001500D01*
X0020660Y-0000500D02*
Y-0001500D01*
X0020570Y-0000500D02*
Y-0001500D01*
X0020480Y-0000500D02*
Y-0001500D01*
X0020390Y-0000500D02*
Y-0001500D01*
X0020300Y-0000500D02*
Y-0001500D01*
X0020210Y-0000500D02*
Y-0001500D01*
X0020120Y-0000500D02*
Y-0001500D01*
X0020030Y-0000500D02*
Y-0001500D01*
X0019940Y-0000500D02*
Y-0001500D01*
X0019850Y-0000500D02*
Y-0001500D01*
X0019760Y-0000500D02*
Y-0001500D01*
X0019670Y-0000500D02*
Y-0001500D01*
X0019580Y-0000500D02*
Y-0001500D01*
X0019490Y-0000500D02*
Y-0001500D01*
X0019400Y-0000500D02*
Y-0001500D01*
X0019310Y-0000500D02*
Y-0001500D01*
X0019220Y-0000500D02*
Y-0001500D01*
X0019130Y-0000500D02*
Y-0001500D01*
X0027000Y-0000560D02*
X0019000D01*
X0027000Y-0000650D02*
X0019000D01*
X0027000Y-0000740D02*
X0019000D01*
X0027000Y-0000830D02*
X0019000D01*
X0019040Y-0000500D02*
Y-0001500D01*
X0027000Y-0001010D02*
X0019000D01*
X0027000Y-0001100D02*
X0019000D01*
X0027000Y-0001190D02*
X0019000D01*
X0027000Y-0001280D02*
X0019000D01*
X0027000Y-0001370D02*
X0019000D01*
X0026780Y-0000500D02*
Y-0001500D01*
X0026690Y-0000500D02*
Y-0001500D01*
X0026600Y-0000500D02*
Y-0001500D01*
X0026510Y-0000500D02*
Y-0001500D01*
X0026420Y-0000500D02*
Y-0001500D01*
X0026330Y-0000500D02*
Y-0001500D01*
X0026240Y-0000500D02*
Y-0001500D01*
X0026150Y-0000500D02*
Y-0001500D01*
X0026060Y-0000500D02*
Y-0001500D01*
X0025970Y-0000500D02*
Y-0001500D01*
X0025880Y-0000500D02*
Y-0001500D01*
X0025790Y-0000500D02*
Y-0001500D01*
X0025700Y-0000500D02*
Y-0001500D01*
X0025610Y-0000500D02*
Y-0001500D01*
X0025520Y-0000500D02*
Y-0001500D01*
X0025430Y-0000500D02*
Y-0001500D01*
X0025340Y-0000500D02*
Y-0001500D01*
X0025250Y-0000500D02*
Y-0001500D01*
X0025160Y-0000500D02*
Y-0001500D01*
X0025070Y-0000500D02*
Y-0001500D01*
X0024980Y-0000500D02*
Y-0001500D01*
X0024890Y-0000500D02*
Y-0001500D01*
X0024800Y-0000500D02*
Y-0001500D01*
X0024710Y-0000500D02*
Y-0001500D01*
X0024620Y-0000500D02*
Y-0001500D01*
X0024530Y-0000500D02*
Y-0001500D01*
X0024440Y-0000500D02*
Y-0001500D01*
X0024350Y-0000500D02*
Y-0001500D01*
X0024260Y-0000500D02*
Y-0001500D01*
X0024170Y-0000500D02*
Y-0001500D01*
X0024080Y-0000500D02*
Y-0001500D01*
X0023990Y-0000500D02*
Y-0001500D01*
X0023900Y-0000500D02*
Y-0001500D01*
X0023810Y-0000500D02*
Y-0001500D01*
X0023720Y-0000500D02*
Y-0001500D01*
X0023630Y-0000500D02*
Y-0001500D01*
X0023540Y-0000500D02*
Y-0001500D01*
X0023450Y-0000500D02*
Y-0001500D01*
X0023360Y-0000500D02*
Y-0001500D01*
X0023270Y-0000500D02*
Y-0001500D01*
X0023180Y-0000500D02*
Y-0001500D01*
X0023090Y-0000500D02*
Y-0001500D01*
X0023000Y-0000500D02*
Y-0001500D01*
X0022910Y-0000500D02*
Y-0001500D01*
X0022820Y-0000500D02*
Y-0001500D01*
X0022730Y-0000500D02*
Y-0001500D01*
X0022640Y-0000500D02*
Y-0001500D01*
X0022550Y-0000500D02*
Y-0001500D01*
X0022460Y-0000500D02*
Y-0001500D01*
X0027000Y-0001460D02*
X0019000D01*
Y-0000500D02*
Y-0001500D01*
X0027000Y-0000500D02*
X0019000D01*
X0027000D02*
Y-0001500D01*
X0019000D01*
X0027000Y-0000920D02*
X0019000D01*
X0026960Y-0000500D02*
Y-0001500D01*
X0026870Y-0000500D02*
Y-0001500D01*
X0022370Y0000750D02*
Y-0000250D01*
X0022280Y0000750D02*
Y-0000250D01*
X0022190Y0000750D02*
Y-0000250D01*
X0022100Y0000750D02*
Y-0000250D01*
X0022010Y0000750D02*
Y-0000250D01*
X0021920Y0000750D02*
Y-0000250D01*
X0021830Y0000750D02*
Y-0000250D01*
X0021740Y0000750D02*
Y-0000250D01*
X0021650Y0000750D02*
Y-0000250D01*
X0021560Y0000750D02*
Y-0000250D01*
X0021470Y0000750D02*
Y-0000250D01*
X0021380Y0000750D02*
Y-0000250D01*
X0021290Y0000750D02*
Y-0000250D01*
X0021200Y0000750D02*
Y-0000250D01*
X0021110Y0000750D02*
Y-0000250D01*
X0021020Y0000750D02*
Y-0000250D01*
X0020930Y0000750D02*
Y-0000250D01*
X0020840Y0000750D02*
Y-0000250D01*
X0020750Y0000750D02*
Y-0000250D01*
X0020660Y0000750D02*
Y-0000250D01*
X0020570Y0000750D02*
Y-0000250D01*
X0020480Y0000750D02*
Y-0000250D01*
X0020390Y0000750D02*
Y-0000250D01*
X0020300Y0000750D02*
Y-0000250D01*
X0020210Y0000750D02*
Y-0000250D01*
X0020120Y0000750D02*
Y-0000250D01*
X0020030Y0000750D02*
Y-0000250D01*
X0019940Y0000750D02*
Y-0000250D01*
X0019850Y0000750D02*
Y-0000250D01*
X0019760Y0000750D02*
Y-0000250D01*
X0019670Y0000750D02*
Y-0000250D01*
X0019580Y0000750D02*
Y-0000250D01*
X0019490Y0000750D02*
Y-0000250D01*
X0019400Y0000750D02*
Y-0000250D01*
X0019310Y0000750D02*
Y-0000250D01*
X0019220Y0000750D02*
Y-0000250D01*
X0019130Y0000750D02*
Y-0000250D01*
X0027000Y0000690D02*
X0019000D01*
X0027000Y0000600D02*
X0019000D01*
X0027000Y0000510D02*
X0019000D01*
X0027000Y0000420D02*
X0019000D01*
X0019040Y0000750D02*
Y-0000250D01*
X0027000Y0000240D02*
X0019000D01*
X0027000Y0000150D02*
X0019000D01*
X0027000Y0000060D02*
X0019000D01*
X0027000Y-0000030D02*
X0019000D01*
X0027000Y-0000120D02*
X0019000D01*
X0026780Y0000750D02*
Y-0000250D01*
X0026690Y0000750D02*
Y-0000250D01*
X0026600Y0000750D02*
Y-0000250D01*
X0026510Y0000750D02*
Y-0000250D01*
X0026420Y0000750D02*
Y-0000250D01*
X0026330Y0000750D02*
Y-0000250D01*
X0026240Y0000750D02*
Y-0000250D01*
X0026150Y0000750D02*
Y-0000250D01*
X0026060Y0000750D02*
Y-0000250D01*
X0025970Y0000750D02*
Y-0000250D01*
X0025880Y0000750D02*
Y-0000250D01*
X0025790Y0000750D02*
Y-0000250D01*
X0025700Y0000750D02*
Y-0000250D01*
X0025610Y0000750D02*
Y-0000250D01*
X0025520Y0000750D02*
Y-0000250D01*
X0025430Y0000750D02*
Y-0000250D01*
X0025340Y0000750D02*
Y-0000250D01*
X0025250Y0000750D02*
Y-0000250D01*
X0025160Y0000750D02*
Y-0000250D01*
X0025070Y0000750D02*
Y-0000250D01*
X0024980Y0000750D02*
Y-0000250D01*
X0024890Y0000750D02*
Y-0000250D01*
X0024800Y0000750D02*
Y-0000250D01*
X0024710Y0000750D02*
Y-0000250D01*
X0024620Y0000750D02*
Y-0000250D01*
X0024530Y0000750D02*
Y-0000250D01*
X0024440Y0000750D02*
Y-0000250D01*
X0024350Y0000750D02*
Y-0000250D01*
X0024260Y0000750D02*
Y-0000250D01*
X0024170Y0000750D02*
Y-0000250D01*
X0024080Y0000750D02*
Y-0000250D01*
X0023990Y0000750D02*
Y-0000250D01*
X0023900Y0000750D02*
Y-0000250D01*
X0023810Y0000750D02*
Y-0000250D01*
X0023720Y0000750D02*
Y-0000250D01*
X0023630Y0000750D02*
Y-0000250D01*
X0023540Y0000750D02*
Y-0000250D01*
X0023450Y0000750D02*
Y-0000250D01*
X0023360Y0000750D02*
Y-0000250D01*
X0023270Y0000750D02*
Y-0000250D01*
X0023180Y0000750D02*
Y-0000250D01*
X0023090Y0000750D02*
Y-0000250D01*
X0023000Y0000750D02*
Y-0000250D01*
X0022910Y0000750D02*
Y-0000250D01*
X0022820Y0000750D02*
Y-0000250D01*
X0022730Y0000750D02*
Y-0000250D01*
X0022640Y0000750D02*
Y-0000250D01*
X0022550Y0000750D02*
Y-0000250D01*
X0022460Y0000750D02*
Y-0000250D01*
X0027000Y-0000210D02*
X0019000D01*
X0027000Y-0000250D02*
X0019000D01*
X0027000Y0000750D02*
Y-0000250D01*
Y0000750D02*
X0019000D01*
Y-0000250D01*
X0027000Y0000330D02*
X0019000D01*
X0026960Y0000750D02*
Y-0000250D01*
X0026870Y0000750D02*
Y-0000250D01*
G54D18*
G01X0015300Y0029950D02*
X0021000D01*
Y0038250D01*
X0002850D01*
Y0019950D01*
X0015300D01*
Y0029950D01*
X0038600D02*
X0021350D01*
Y0038250D01*
X0038600D01*
Y0029950D01*
G54D22*
G01X0032563Y0008533D02*
X0032610Y0008467D01*
X0032703D01*
X0032750Y0008533D01*
Y0008600D01*
X0032657Y0008733D01*
X0032750Y0008867D01*
X0032563D01*
X0032420Y0008467D02*
X0032327D01*
X0032373D02*
Y0008867D01*
X0032327Y0008800D01*
X0031973Y0008600D02*
Y0008533D01*
X0031997Y0008467D01*
X0032090D01*
X0032113Y0008533D01*
Y0008867D01*
X0032137D02*
X0032043D01*
X0035110Y0027167D02*
X0035250Y0027567D01*
X0035063D01*
X0034920Y0027167D02*
X0034827D01*
X0034873D02*
Y0027567D01*
X0034827Y0027500D01*
X0034473Y0027300D02*
Y0027233D01*
X0034497Y0027167D01*
X0034590D01*
X0034613Y0027233D01*
Y0027567D01*
X0034637D02*
X0034543D01*
X0011833Y0027317D02*
X0011787Y0027383D01*
X0011763Y0027450D01*
Y0027583D01*
X0011787Y0027650D01*
X0011833Y0027717D01*
X0011880D01*
X0011927Y0027650D01*
X0011950Y0027583D01*
Y0027450D01*
X0011927Y0027383D01*
X0011880Y0027317D01*
X0011833D01*
X0011620D02*
X0011527D01*
X0011573D02*
Y0027717D01*
X0011527Y0027650D01*
X0011173Y0027450D02*
Y0027383D01*
X0011197Y0027317D01*
X0011290D01*
X0011313Y0027383D01*
Y0027717D01*
X0011337D02*
X0011243D01*
X0016337Y0018367D02*
X0016477D01*
X0016500Y0018300D01*
Y0018233D01*
X0016477Y0018167D01*
X0016337D01*
X0016313Y0018233D01*
Y0018300D01*
X0016407Y0018567D01*
X0016170Y0018167D02*
X0016077D01*
X0016123D02*
Y0018567D01*
X0016077Y0018500D01*
X0015723Y0018300D02*
Y0018233D01*
X0015747Y0018167D01*
X0015840D01*
X0015863Y0018233D01*
Y0018567D01*
X0015887D02*
X0015793D01*
X0006143Y0037767D02*
X0006167Y0037833D01*
Y0037900D01*
X0006143Y0037967D01*
X0006003D01*
X0005980Y0037900D01*
Y0037833D01*
X0006003Y0037767D01*
X0006143D01*
X0006167Y0037700D01*
Y0037633D01*
X0006143Y0037567D01*
X0006003D01*
X0005980Y0037633D01*
Y0037700D01*
X0006003Y0037767D01*
X0005673Y0037700D02*
Y0037633D01*
X0005697Y0037567D01*
X0005790D01*
X0005813Y0037633D01*
Y0037967D01*
X0005837D02*
X0005743D01*
X0028647Y0023167D02*
X0028460D01*
X0028647Y0023433D01*
Y0023500D01*
X0028623Y0023567D01*
X0028483D01*
X0028460Y0023500D01*
X0028317Y0023167D02*
X0028130D01*
X0028317Y0023433D01*
Y0023500D01*
X0028293Y0023567D01*
X0028153D01*
X0028130Y0023500D01*
X0027823Y0023300D02*
Y0023233D01*
X0027847Y0023167D01*
X0027940D01*
X0027963Y0023233D01*
Y0023567D01*
X0027987D02*
X0027893D01*
X0030540Y0021367D02*
X0030460D01*
X0030500D02*
Y0021767D01*
X0030460Y0021700D01*
X0023417Y0037700D02*
X0023230D01*
X0023323Y0037967D01*
X0023370D01*
Y0037567D01*
X0022923Y0037700D02*
Y0037633D01*
X0022947Y0037567D01*
X0023040D01*
X0023063Y0037633D01*
Y0037967D01*
X0023087D02*
X0022993D01*
X0011777Y0037567D02*
X0011917Y0037967D01*
X0011730D01*
X0011423Y0037700D02*
Y0037633D01*
X0011447Y0037567D01*
X0011540D01*
X0011563Y0037633D01*
Y0037967D01*
X0011587D02*
X0011493D01*
X0017550Y0008850D02*
X0017363D01*
X0017457Y0009117D01*
X0017503D01*
Y0008717D01*
X0017220D02*
X0017127D01*
X0017173D02*
Y0009117D01*
X0017127Y0009050D01*
X0016773Y0008850D02*
Y0008783D01*
X0016797Y0008717D01*
X0016890D01*
X0016913Y0008783D01*
Y0009117D01*
X0016937D02*
X0016843D01*
X0005677Y0008767D02*
X0005700Y0008833D01*
Y0008900D01*
X0005677Y0008967D01*
X0005537D01*
X0005513Y0008900D01*
Y0008833D01*
X0005537Y0008767D01*
X0005677D01*
X0005700Y0008700D01*
Y0008633D01*
X0005677Y0008567D01*
X0005537D01*
X0005513Y0008633D01*
Y0008700D01*
X0005537Y0008767D01*
X0005370Y0008567D02*
X0005277D01*
X0005323D02*
Y0008967D01*
X0005277Y0008900D01*
X0004923Y0008700D02*
Y0008633D01*
X0004947Y0008567D01*
X0005040D01*
X0005063Y0008633D01*
Y0008967D01*
X0005087D02*
X0004993D01*
X0010630Y0008567D02*
X0010583Y0008633D01*
X0010560Y0008700D01*
Y0008833D01*
X0010583Y0008900D01*
X0010630Y0008967D01*
X0010677D01*
X0010723Y0008900D01*
X0010747Y0008833D01*
Y0008700D01*
X0010723Y0008633D01*
X0010677Y0008567D01*
X0010630D01*
X0010417D02*
X0010230D01*
X0010417Y0008833D01*
Y0008900D01*
X0010393Y0008967D01*
X0010253D01*
X0010230Y0008900D01*
X0009923Y0008700D02*
Y0008633D01*
X0009947Y0008567D01*
X0010040D01*
X0010063Y0008633D01*
Y0008967D01*
X0010087D02*
X0009993D01*
X0025750Y0018167D02*
X0025563D01*
X0025750Y0018433D01*
Y0018500D01*
X0025727Y0018567D01*
X0025587D01*
X0025563Y0018500D01*
X0025420Y0018167D02*
X0025327D01*
X0025373D02*
Y0018567D01*
X0025327Y0018500D01*
X0024973Y0018300D02*
Y0018233D01*
X0024997Y0018167D01*
X0025090D01*
X0025113Y0018233D01*
Y0018567D01*
X0025137D02*
X0025043D01*
X0009510Y0043262D02*
X0009417D01*
X0009463D02*
Y0043662D01*
X0009417Y0043595D01*
X0009063Y0043395D02*
Y0043328D01*
X0009087Y0043262D01*
X0009180D01*
X0009203Y0043328D01*
Y0043662D01*
X0009227D02*
X0009133D01*
X0006563Y0018233D02*
X0006587Y0018167D01*
X0006727D01*
X0006750Y0018233D01*
Y0018367D01*
X0006703Y0018433D01*
X0006563D01*
Y0018567D01*
X0006750D01*
X0006420Y0018167D02*
X0006327D01*
X0006373D02*
Y0018567D01*
X0006327Y0018500D01*
X0005973Y0018300D02*
Y0018233D01*
X0005997Y0018167D01*
X0006090D01*
X0006113Y0018233D01*
Y0018567D01*
X0006137D02*
X0006043D01*
X0017503Y0037767D02*
X0017643D01*
X0017667Y0037700D01*
Y0037633D01*
X0017643Y0037567D01*
X0017503D01*
X0017480Y0037633D01*
Y0037700D01*
X0017573Y0037967D01*
X0017173Y0037700D02*
Y0037633D01*
X0017197Y0037567D01*
X0017290D01*
X0017313Y0037633D01*
Y0037967D01*
X0017337D02*
X0017243D01*
X0017677Y0027517D02*
X0017537D01*
X0017513Y0027583D01*
Y0027650D01*
X0017537Y0027717D01*
X0017677D01*
X0017700Y0027650D01*
Y0027583D01*
X0017607Y0027317D01*
X0017370D02*
X0017277D01*
X0017323D02*
Y0027717D01*
X0017277Y0027650D01*
X0016923Y0027450D02*
Y0027383D01*
X0016947Y0027317D01*
X0017040D01*
X0017063Y0027383D01*
Y0027717D01*
X0017087D02*
X0016993D01*
X0035203Y0018167D02*
X0035110D01*
X0035157D02*
Y0018567D01*
X0035110Y0018500D01*
X0034920Y0018167D02*
X0034827D01*
X0034873D02*
Y0018567D01*
X0034827Y0018500D01*
X0034473Y0018300D02*
Y0018233D01*
X0034497Y0018167D01*
X0034590D01*
X0034613Y0018233D01*
Y0018567D01*
X0034637D02*
X0034543D01*
X0029307Y0043012D02*
X0029120D01*
X0029307Y0043278D01*
Y0043345D01*
X0029283Y0043412D01*
X0029143D01*
X0029120Y0043345D01*
X0028813Y0043145D02*
Y0043078D01*
X0028837Y0043012D01*
X0028930D01*
X0028953Y0043078D01*
Y0043412D01*
X0028977D02*
X0028883D01*
X0023950Y0027317D02*
X0023857D01*
X0023903D02*
Y0027717D01*
X0023857Y0027650D01*
X0023667Y0027317D02*
X0023480D01*
X0023667Y0027583D01*
Y0027650D01*
X0023643Y0027717D01*
X0023503D01*
X0023480Y0027650D01*
X0023173Y0027450D02*
Y0027383D01*
X0023197Y0027317D01*
X0023290D01*
X0023313Y0027383D01*
Y0027717D01*
X0023337D02*
X0023243D01*
X0035230Y0037633D02*
X0035277Y0037567D01*
X0035370D01*
X0035417Y0037633D01*
Y0037700D01*
X0035323Y0037833D01*
X0035417Y0037967D01*
X0035230D01*
X0034923Y0037700D02*
Y0037633D01*
X0034947Y0037567D01*
X0035040D01*
X0035063Y0037633D01*
Y0037967D01*
X0035087D02*
X0034993D01*
X0005893Y0027267D02*
X0005753D01*
X0005730Y0027333D01*
Y0027400D01*
X0005753Y0027467D01*
X0005893D01*
X0005917Y0027400D01*
Y0027333D01*
X0005823Y0027067D01*
X0005423Y0027200D02*
Y0027133D01*
X0005447Y0027067D01*
X0005540D01*
X0005563Y0027133D01*
Y0027467D01*
X0005587D02*
X0005493D01*
X0029230Y0037633D02*
X0029253Y0037567D01*
X0029393D01*
X0029417Y0037633D01*
Y0037767D01*
X0029370Y0037833D01*
X0029230D01*
Y0037967D01*
X0029417D01*
X0028923Y0037700D02*
Y0037633D01*
X0028947Y0037567D01*
X0029040D01*
X0029063Y0037633D01*
Y0037967D01*
X0029087D02*
X0028993D01*
X0030096Y0031344D02*
X0030577D01*
X0030695Y0031463D02*
Y0032250D01*
Y0037132D01*
X0030577Y0037250D02*
X0027923D01*
X0027805Y0037132D02*
Y0032250D01*
X0028403D01*
X0030096D01*
Y0031344D01*
X0028403D01*
X0027923D01*
X0027805Y0031463D02*
Y0032250D01*
X0030695D02*
X0030096D01*
Y0032329D01*
X0028403D01*
Y0032250D01*
Y0031344D01*
X0028384Y0033549D02*
X0028285D01*
Y0032427D01*
X0030116D01*
Y0033687D01*
X0030214D01*
Y0034699D01*
X0028285D01*
Y0033687D01*
X0028384D01*
Y0033549D01*
X0028561Y0033372D01*
X0028285D01*
X0028384Y0036994D02*
X0030116D01*
X0029939Y0036915D01*
X0028561D01*
X0028384Y0036994D01*
Y0035813D01*
X0028285D01*
Y0034770D01*
X0030116D01*
X0029939Y0034848D01*
X0028285D01*
Y0032585D02*
X0029939D01*
X0030116Y0032427D01*
X0029939Y0032585D02*
Y0033864D01*
X0030116Y0033687D01*
X0030214Y0033864D02*
X0029939D01*
X0028285Y0034651D02*
X0030214D01*
X0028561Y0033372D02*
Y0033864D01*
X0028285D01*
X0028384Y0033687D02*
X0028561Y0033864D01*
X0029939Y0036915D02*
Y0034848D01*
X0028561Y0036915D02*
Y0035636D01*
X0028285D01*
X0028561D02*
X0028384Y0035813D01*
X0028403Y0031443D02*
X0030096D01*
Y0031640D02*
X0028403D01*
X0030116Y0034770D02*
Y0036994D01*
X0035340Y0026415D02*
Y0025136D01*
X0035163Y0025313D01*
Y0026494D01*
X0035340Y0026415D01*
X0036994D01*
X0034159Y0024151D02*
X0034337Y0024199D01*
Y0021927D01*
X0034159Y0022085D01*
Y0024151D01*
X0032781D01*
X0032604Y0024199D01*
Y0021927D01*
X0032959D01*
Y0021750D01*
X0032636D01*
X0032144D01*
X0032026Y0021868D02*
Y0026632D01*
X0032144Y0026750D02*
X0037356D01*
X0037474Y0026632D02*
Y0021868D01*
X0037356Y0021750D02*
X0036864D01*
X0036541D01*
Y0021927D01*
X0036896D01*
Y0024199D01*
X0035163D01*
Y0021927D01*
X0035714D01*
Y0021829D01*
X0035793D01*
Y0020943D01*
X0036463D01*
X0035596Y0021829D02*
Y0020943D01*
X0033903D01*
Y0021829D01*
X0032636Y0021750D02*
Y0020963D01*
X0032754Y0020844D02*
X0033037D01*
X0036463D01*
Y0021330D01*
Y0022085D01*
X0035793D01*
X0035340D01*
X0035163Y0021927D01*
X0032959Y0021750D02*
X0033037Y0021330D01*
Y0022085D01*
X0033707D01*
X0033785Y0021927D01*
Y0021829D01*
X0033707D01*
Y0020943D01*
X0033037D01*
X0036896Y0024270D02*
X0034770D01*
X0034947Y0024348D01*
X0036718D01*
X0036896Y0024270D01*
Y0025451D01*
X0036994D01*
Y0026494D01*
X0035163D01*
X0032506Y0025628D02*
X0032781D01*
X0032604Y0025451D01*
Y0024270D01*
X0034730D01*
Y0025313D01*
X0034337D01*
Y0026494D01*
X0032506D01*
Y0025451D01*
X0032604D01*
X0035714Y0021829D02*
X0033785D01*
X0033037Y0020844D02*
Y0021330D01*
X0034770Y0024270D02*
Y0025313D01*
X0034947Y0025136D01*
X0035340D01*
X0034947Y0024348D02*
Y0025136D01*
X0036718Y0024348D02*
Y0025628D01*
X0036994D01*
X0036718D02*
X0036896Y0025451D01*
X0032604Y0024270D02*
X0032781Y0024348D01*
X0034553D01*
X0034730Y0024270D01*
X0034553Y0024348D02*
Y0025136D01*
X0034730Y0025313D01*
X0034337D02*
X0034159Y0025136D01*
X0034553D01*
X0032506Y0026415D02*
X0034159D01*
Y0025136D01*
X0034337Y0026494D02*
X0034159Y0026415D01*
X0032781Y0025628D02*
Y0024348D01*
X0033903Y0021140D02*
X0035596D01*
X0033903Y0021750D02*
X0035596D01*
X0032604Y0021927D02*
X0032781Y0022085D01*
X0033037D01*
X0032959Y0021927D01*
X0033037Y0021140D02*
X0033707D01*
X0035340Y0022085D02*
Y0024151D01*
X0036718D01*
Y0022085D01*
X0036463D01*
X0036541Y0021927D01*
X0036896D02*
X0036718Y0022085D01*
X0036896Y0024199D02*
X0036718Y0024151D01*
X0035163Y0024199D02*
X0035340Y0024151D01*
X0035793Y0021829D02*
Y0022085D01*
X0035714Y0021927D01*
X0035793Y0021140D02*
X0036463D01*
Y0020844D02*
X0036746D01*
X0036864Y0020963D02*
Y0021750D01*
X0036541D02*
X0036463Y0021330D01*
X0034159Y0022085D02*
X0033707D01*
Y0021829D01*
X0032781Y0024151D02*
Y0022085D01*
X0035163Y0025313D02*
X0034770D01*
X0034553Y0026356D02*
Y0025529D01*
X0034947D01*
Y0026356D01*
X0034553D01*
Y0022144D02*
X0034947D01*
Y0023955D01*
X0034553D01*
Y0022144D01*
X0034337Y0024199D02*
X0032604D01*
X0033785Y0021927D02*
X0034337D01*
X0012596Y0020844D02*
X0013077D01*
X0013195Y0020963D02*
Y0021750D01*
Y0026632D01*
X0013077Y0026750D02*
X0010423D01*
X0010305Y0026632D02*
Y0021750D01*
X0010903D01*
X0012596D01*
Y0020844D01*
X0010903D01*
X0010423D01*
X0010305Y0020963D02*
Y0021750D01*
X0013195D02*
X0012596D01*
Y0021829D01*
X0010903D01*
Y0021750D01*
Y0020844D01*
X0010884Y0023049D02*
X0010785D01*
Y0021927D01*
X0012616D01*
Y0023187D01*
X0012714D01*
Y0024199D01*
X0010785D01*
Y0023187D01*
X0010884D01*
Y0023049D01*
X0011061Y0022872D01*
X0010785D01*
X0010884Y0026494D02*
X0012616D01*
X0012439Y0026415D01*
X0011061D01*
X0010884Y0026494D01*
Y0025313D01*
X0010785D01*
Y0024270D01*
X0012616D01*
X0012439Y0024348D01*
X0010785D01*
Y0022085D02*
X0012439D01*
X0012616Y0021927D01*
X0012439Y0022085D02*
Y0023364D01*
X0012616Y0023187D01*
X0012714Y0023364D02*
X0012439D01*
X0010785Y0024151D02*
X0012714D01*
X0011061Y0022872D02*
Y0023364D01*
X0010785D01*
X0010884Y0023187D02*
X0011061Y0023364D01*
X0012439Y0026415D02*
Y0024348D01*
X0011061Y0026415D02*
Y0025136D01*
X0010785D01*
X0011061D02*
X0010884Y0025313D01*
X0010903Y0020943D02*
X0012596D01*
Y0021140D02*
X0010903D01*
X0012616Y0024270D02*
Y0026494D01*
X0016340Y0017415D02*
Y0016136D01*
X0016163Y0016313D01*
Y0017494D01*
X0016340Y0017415D01*
X0017994D01*
X0015159Y0015151D02*
X0015337Y0015199D01*
Y0012927D01*
X0015159Y0013085D01*
Y0015151D01*
X0013781D01*
X0013604Y0015199D01*
Y0012927D01*
X0013959D01*
Y0012750D01*
X0013636D01*
X0013144D01*
X0013026Y0012868D02*
Y0017632D01*
X0013144Y0017750D02*
X0018356D01*
X0018474Y0017632D02*
Y0012868D01*
X0018356Y0012750D02*
X0017864D01*
X0017541D01*
Y0012927D01*
X0017896D01*
Y0015199D01*
X0016163D01*
Y0012927D01*
X0016714D01*
Y0012829D01*
X0016793D01*
Y0011943D01*
X0017463D01*
X0016596Y0012829D02*
Y0011943D01*
X0014903D01*
Y0012829D01*
X0013636Y0012750D02*
Y0011963D01*
X0013754Y0011844D02*
X0014037D01*
X0017463D01*
Y0012330D01*
Y0013085D01*
X0016793D01*
X0016340D01*
X0016163Y0012927D01*
X0013959Y0012750D02*
X0014037Y0012330D01*
Y0013085D01*
X0014707D01*
X0014785Y0012927D01*
Y0012829D01*
X0014707D01*
Y0011943D01*
X0014037D01*
X0017896Y0015270D02*
X0015770D01*
X0015947Y0015348D01*
X0017718D01*
X0017896Y0015270D01*
Y0016451D01*
X0017994D01*
Y0017494D01*
X0016163D01*
X0013506Y0016628D02*
X0013781D01*
X0013604Y0016451D01*
Y0015270D01*
X0015730D01*
Y0016313D01*
X0015337D01*
Y0017494D01*
X0013506D01*
Y0016451D01*
X0013604D01*
X0016714Y0012829D02*
X0014785D01*
X0014037Y0011844D02*
Y0012330D01*
X0015770Y0015270D02*
Y0016313D01*
X0015947Y0016136D01*
X0016340D01*
X0015947Y0015348D02*
Y0016136D01*
X0017718Y0015348D02*
Y0016628D01*
X0017994D01*
X0017718D02*
X0017896Y0016451D01*
X0013604Y0015270D02*
X0013781Y0015348D01*
X0015553D01*
X0015730Y0015270D01*
X0015553Y0015348D02*
Y0016136D01*
X0015730Y0016313D01*
X0015337D02*
X0015159Y0016136D01*
X0015553D01*
X0013506Y0017415D02*
X0015159D01*
Y0016136D01*
X0015337Y0017494D02*
X0015159Y0017415D01*
X0013781Y0016628D02*
Y0015348D01*
X0014903Y0012140D02*
X0016596D01*
X0014903Y0012750D02*
X0016596D01*
X0013604Y0012927D02*
X0013781Y0013085D01*
X0014037D01*
X0013959Y0012927D01*
X0014037Y0012140D02*
X0014707D01*
X0016340Y0013085D02*
Y0015151D01*
X0017718D01*
Y0013085D01*
X0017463D01*
X0017541Y0012927D01*
X0017896D02*
X0017718Y0013085D01*
X0017896Y0015199D02*
X0017718Y0015151D01*
X0016163Y0015199D02*
X0016340Y0015151D01*
X0016793Y0012829D02*
Y0013085D01*
X0016714Y0012927D01*
X0016793Y0012140D02*
X0017463D01*
Y0011844D02*
X0017746D01*
X0017864Y0011963D02*
Y0012750D01*
X0017541D02*
X0017463Y0012330D01*
X0015159Y0013085D02*
X0014707D01*
Y0012829D01*
X0013781Y0015151D02*
Y0013085D01*
X0016163Y0016313D02*
X0015770D01*
X0015553Y0017356D02*
Y0016529D01*
X0015947D01*
Y0017356D01*
X0015553D01*
Y0013144D02*
X0015947D01*
Y0014955D01*
X0015553D01*
Y0013144D01*
X0015337Y0015199D02*
X0013604D01*
X0014785Y0012927D02*
X0015337D01*
X0031750Y0033500D02*
X0031500Y0033750D01*
Y0034250D01*
X0031750Y0034500D01*
X0032250D01*
X0032500Y0034250D01*
Y0033700D01*
X0032300Y0033500D01*
X0031750D01*
Y0034500D02*
X0031500Y0034750D01*
Y0035250D01*
X0031750Y0035500D01*
X0032250D01*
X0032500Y0035250D01*
Y0034750D01*
X0032250Y0034500D01*
X0031750D01*
X0006596Y0031344D02*
X0007077D01*
X0007195Y0031463D02*
Y0032250D01*
Y0037132D01*
X0007077Y0037250D02*
X0004423D01*
X0004305Y0037132D02*
Y0032250D01*
X0004903D01*
X0006596D01*
Y0031344D01*
X0004903D01*
X0004423D01*
X0004305Y0031463D02*
Y0032250D01*
X0007195D02*
X0006596D01*
Y0032329D01*
X0004903D01*
Y0032250D01*
Y0031344D01*
X0004884Y0033549D02*
X0004785D01*
Y0032427D01*
X0006616D01*
Y0033687D01*
X0006714D01*
Y0034699D01*
X0004785D01*
Y0033687D01*
X0004884D01*
Y0033549D01*
X0005061Y0033372D01*
X0004785D01*
X0004884Y0036994D02*
X0006616D01*
X0006439Y0036915D01*
X0005061D01*
X0004884Y0036994D01*
Y0035813D01*
X0004785D01*
Y0034770D01*
X0006616D01*
X0006439Y0034848D01*
X0004785D01*
Y0032585D02*
X0006439D01*
X0006616Y0032427D01*
X0006439Y0032585D02*
Y0033864D01*
X0006616Y0033687D01*
X0006714Y0033864D02*
X0006439D01*
X0004785Y0034651D02*
X0006714D01*
X0005061Y0033372D02*
Y0033864D01*
X0004785D01*
X0004884Y0033687D02*
X0005061Y0033864D01*
X0006439Y0036915D02*
Y0034848D01*
X0005061Y0036915D02*
Y0035636D01*
X0004785D01*
X0005061D02*
X0004884Y0035813D01*
X0004903Y0031443D02*
X0006596D01*
Y0031640D02*
X0004903D01*
X0006616Y0034770D02*
Y0036994D01*
X0030336Y0022354D02*
X0030612D01*
Y0022984D01*
X0030179D01*
Y0022827D01*
X0030336D01*
Y0022354D01*
Y0022197D01*
Y0022039D01*
Y0021016D01*
X0026163D01*
X0025888D01*
Y0022039D01*
X0026163D01*
Y0022197D01*
Y0022354D01*
Y0022827D01*
X0026321D01*
X0030179D01*
X0026163Y0021016D02*
Y0022039D01*
X0030612Y0022354D02*
Y0022197D01*
Y0022039D01*
Y0021016D01*
X0030336D01*
X0026321Y0022827D02*
Y0022984D01*
X0025888D01*
Y0022354D01*
Y0022197D01*
Y0022039D01*
X0026577Y0021508D02*
X0026616Y0021547D01*
Y0021665D01*
X0026577Y0021705D01*
Y0021508D01*
X0026774D01*
Y0021705D01*
X0026577D01*
X0026616Y0021547D02*
X0026734D01*
Y0021665D01*
X0026774Y0021705D01*
Y0021508D02*
X0026734Y0021547D01*
X0026616Y0021665D02*
X0026734D01*
X0026577Y0022295D02*
Y0022492D01*
X0026774D01*
Y0022295D01*
X0026734Y0022334D01*
X0026616D01*
X0026577Y0022295D01*
X0026774D01*
X0026616Y0022334D02*
Y0022453D01*
X0026577Y0022492D01*
X0026774D02*
X0026734Y0022453D01*
X0026616D01*
X0026734Y0022334D02*
Y0022453D01*
X0025888Y0022354D02*
X0026163D01*
X0030336Y0022039D02*
X0030612D01*
X0027561Y0021705D02*
Y0021508D01*
X0027364D01*
Y0021705D01*
X0027561D01*
X0027522Y0021665D01*
Y0021547D01*
X0027404D01*
X0027364Y0021508D01*
X0029765Y0022334D02*
X0029884D01*
Y0022453D01*
X0029765D01*
X0029726Y0022492D01*
Y0022295D01*
X0029765Y0022334D01*
Y0022453D01*
X0028348Y0022295D02*
X0028152D01*
Y0022492D01*
X0028348D01*
Y0022295D01*
X0028309Y0022334D01*
Y0022453D01*
X0028191D01*
X0028152Y0022492D01*
X0028348D02*
X0028309Y0022453D01*
X0029136Y0021508D02*
X0028939D01*
Y0021705D01*
X0029136D01*
Y0021508D01*
X0029096Y0021547D01*
X0028978D01*
X0028939Y0021508D01*
X0027561D02*
X0027522Y0021547D01*
X0029765D02*
Y0021665D01*
X0029884D01*
X0029923Y0021705D01*
Y0021508D01*
X0029726D01*
X0029765Y0021547D01*
X0029884D01*
X0029923Y0021508D01*
X0026321Y0022984D02*
X0030179D01*
X0028348Y0021508D02*
X0028152D01*
Y0021705D01*
X0028348D01*
Y0021508D01*
X0028309Y0021547D01*
Y0021665D01*
X0028191D01*
X0028152Y0021705D01*
X0027522Y0022453D02*
X0027561Y0022492D01*
X0027364D01*
X0027404Y0022453D01*
X0027522D01*
Y0022334D01*
X0027561Y0022295D01*
X0027364D01*
X0027404Y0022334D01*
X0027522D01*
X0029136Y0021705D02*
X0029096Y0021665D01*
Y0021547D01*
X0027364Y0021705D02*
X0027404Y0021665D01*
X0027522D01*
X0030336Y0021173D02*
X0026163D01*
X0028309Y0021547D02*
X0028191D01*
X0028152Y0021508D01*
X0029884Y0021547D02*
Y0021665D01*
X0028348Y0021705D02*
X0028309Y0021665D01*
X0028152Y0022295D02*
X0028191Y0022334D01*
X0028309D01*
X0029096D02*
Y0022453D01*
X0028978D01*
X0028939Y0022492D01*
Y0022295D01*
X0028978Y0022334D01*
X0029096D01*
X0029136Y0022295D01*
Y0022492D01*
X0028939D01*
X0029923Y0021705D02*
X0029726D01*
X0029765Y0021665D01*
X0027561Y0022295D02*
Y0022492D01*
X0029726Y0021508D02*
Y0021705D01*
X0029136Y0022295D02*
X0028939D01*
X0029726Y0022492D02*
X0029923D01*
Y0022295D01*
X0029884Y0022334D01*
X0027364Y0022295D02*
Y0022492D01*
X0028191Y0022453D02*
Y0022334D01*
X0029726Y0022295D02*
X0029923D01*
X0028978Y0022453D02*
Y0022334D01*
X0028939Y0021705D02*
X0028978Y0021665D01*
X0029096D01*
X0027404D02*
Y0021547D01*
Y0022334D02*
Y0022453D01*
X0029136Y0022492D02*
X0029096Y0022453D01*
X0028978Y0021665D02*
Y0021547D01*
X0028191D02*
Y0021665D01*
X0029923Y0022492D02*
X0029884Y0022453D01*
X0008000Y0033500D02*
X0007750Y0033750D01*
Y0034250D01*
X0008000Y0034500D01*
X0008500D01*
X0008750Y0034250D01*
Y0033700D01*
X0008550Y0033500D01*
X0008000D01*
Y0034500D02*
X0007750Y0034750D01*
Y0035250D01*
X0008000Y0035500D01*
X0008500D01*
X0008750Y0035250D01*
Y0034750D01*
X0008500Y0034500D01*
X0008000D01*
X0025750Y0033500D02*
X0025500Y0033750D01*
Y0034250D01*
X0025750Y0034500D01*
X0026250D01*
X0026500Y0034250D01*
Y0033700D01*
X0026300Y0033500D01*
X0025750D01*
Y0034500D02*
X0025500Y0034750D01*
Y0035250D01*
X0025750Y0035500D01*
X0026250D01*
X0026500Y0035250D01*
Y0034750D01*
X0026250Y0034500D01*
X0025750D01*
X0024096Y0031344D02*
X0024577D01*
X0024695Y0031463D02*
Y0032250D01*
Y0037132D01*
X0024577Y0037250D02*
X0021923D01*
X0021805Y0037132D02*
Y0032250D01*
X0022403D01*
X0024096D01*
Y0031344D01*
X0022403D01*
X0021923D01*
X0021805Y0031463D02*
Y0032250D01*
X0024695D02*
X0024096D01*
Y0032329D01*
X0022403D01*
Y0032250D01*
Y0031344D01*
X0022384Y0033549D02*
X0022285D01*
Y0032427D01*
X0024116D01*
Y0033687D01*
X0024214D01*
Y0034699D01*
X0022285D01*
Y0033687D01*
X0022384D01*
Y0033549D01*
X0022561Y0033372D01*
X0022285D01*
X0022384Y0036994D02*
X0024116D01*
X0023939Y0036915D01*
X0022561D01*
X0022384Y0036994D01*
Y0035813D01*
X0022285D01*
Y0034770D01*
X0024116D01*
X0023939Y0034848D01*
X0022285D01*
Y0032585D02*
X0023939D01*
X0024116Y0032427D01*
X0023939Y0032585D02*
Y0033864D01*
X0024116Y0033687D01*
X0024214Y0033864D02*
X0023939D01*
X0022285Y0034651D02*
X0024214D01*
X0022561Y0033372D02*
Y0033864D01*
X0022285D01*
X0022384Y0033687D02*
X0022561Y0033864D01*
X0023939Y0036915D02*
Y0034848D01*
X0022561Y0036915D02*
Y0035636D01*
X0022285D01*
X0022561D02*
X0022384Y0035813D01*
X0022403Y0031443D02*
X0024096D01*
Y0031640D02*
X0022403D01*
X0024116Y0034770D02*
Y0036994D01*
X0012346Y0031344D02*
X0012827D01*
X0012945Y0031463D02*
Y0032250D01*
Y0037132D01*
X0012827Y0037250D02*
X0010173D01*
X0010055Y0037132D02*
Y0032250D01*
X0010653D01*
X0012346D01*
Y0031344D01*
X0010653D01*
X0010173D01*
X0010055Y0031463D02*
Y0032250D01*
X0012945D02*
X0012346D01*
Y0032329D01*
X0010653D01*
Y0032250D01*
Y0031344D01*
X0010634Y0033549D02*
X0010535D01*
Y0032427D01*
X0012366D01*
Y0033687D01*
X0012464D01*
Y0034699D01*
X0010535D01*
Y0033687D01*
X0010634D01*
Y0033549D01*
X0010811Y0033372D01*
X0010535D01*
X0010634Y0036994D02*
X0012366D01*
X0012189Y0036915D01*
X0010811D01*
X0010634Y0036994D01*
Y0035813D01*
X0010535D01*
Y0034770D01*
X0012366D01*
X0012189Y0034848D01*
X0010535D01*
Y0032585D02*
X0012189D01*
X0012366Y0032427D01*
X0012189Y0032585D02*
Y0033864D01*
X0012366Y0033687D01*
X0012464Y0033864D02*
X0012189D01*
X0010535Y0034651D02*
X0012464D01*
X0010811Y0033372D02*
Y0033864D01*
X0010535D01*
X0010634Y0033687D02*
X0010811Y0033864D01*
X0012189Y0036915D02*
Y0034848D01*
X0010811Y0036915D02*
Y0035636D01*
X0010535D01*
X0010811D02*
X0010634Y0035813D01*
X0010653Y0031443D02*
X0012346D01*
Y0031640D02*
X0010653D01*
X0012366Y0034770D02*
Y0036994D01*
X0014000Y0033500D02*
X0013750Y0033750D01*
Y0034250D01*
X0014000Y0034500D01*
X0014500D01*
X0014750Y0034250D01*
Y0033700D01*
X0014550Y0033500D01*
X0014000D01*
Y0034500D02*
X0013750Y0034750D01*
Y0035250D01*
X0014000Y0035500D01*
X0014500D01*
X0014750Y0035250D01*
Y0034750D01*
X0014500Y0034500D01*
X0014000D01*
X0006096Y0002344D02*
X0006577D01*
X0006695Y0002463D02*
Y0003250D01*
Y0008132D01*
X0006577Y0008250D02*
X0003923D01*
X0003805Y0008132D02*
Y0003250D01*
X0004403D01*
X0006096D01*
Y0002344D01*
X0004403D01*
X0003923D01*
X0003805Y0002463D02*
Y0003250D01*
X0006695D02*
X0006096D01*
Y0003329D01*
X0004403D01*
Y0003250D01*
Y0002344D01*
X0004384Y0004549D02*
X0004285D01*
Y0003427D01*
X0006116D01*
Y0004687D01*
X0006214D01*
Y0005699D01*
X0004285D01*
Y0004687D01*
X0004384D01*
Y0004549D01*
X0004561Y0004372D01*
X0004285D01*
X0004384Y0007994D02*
X0006116D01*
X0005939Y0007915D01*
X0004561D01*
X0004384Y0007994D01*
Y0006813D01*
X0004285D01*
Y0005770D01*
X0006116D01*
X0005939Y0005848D01*
X0004285D01*
Y0003585D02*
X0005939D01*
X0006116Y0003427D01*
X0005939Y0003585D02*
Y0004864D01*
X0006116Y0004687D01*
X0006214Y0004864D02*
X0005939D01*
X0004285Y0005651D02*
X0006214D01*
X0004561Y0004372D02*
Y0004864D01*
X0004285D01*
X0004384Y0004687D02*
X0004561Y0004864D01*
X0005939Y0007915D02*
Y0005848D01*
X0004561Y0007915D02*
Y0006636D01*
X0004285D01*
X0004561D02*
X0004384Y0006813D01*
X0004403Y0002443D02*
X0006096D01*
Y0002640D02*
X0004403D01*
X0006116Y0005770D02*
Y0007994D01*
X0011096Y0002344D02*
X0011577D01*
X0011695Y0002463D02*
Y0003250D01*
Y0008132D01*
X0011577Y0008250D02*
X0008923D01*
X0008805Y0008132D02*
Y0003250D01*
X0009403D01*
X0011096D01*
Y0002344D01*
X0009403D01*
X0008923D01*
X0008805Y0002463D02*
Y0003250D01*
X0011695D02*
X0011096D01*
Y0003329D01*
X0009403D01*
Y0003250D01*
Y0002344D01*
X0009384Y0004549D02*
X0009285D01*
Y0003427D01*
X0011116D01*
Y0004687D01*
X0011214D01*
Y0005699D01*
X0009285D01*
Y0004687D01*
X0009384D01*
Y0004549D01*
X0009561Y0004372D01*
X0009285D01*
X0009384Y0007994D02*
X0011116D01*
X0010939Y0007915D01*
X0009561D01*
X0009384Y0007994D01*
Y0006813D01*
X0009285D01*
Y0005770D01*
X0011116D01*
X0010939Y0005848D01*
X0009285D01*
Y0003585D02*
X0010939D01*
X0011116Y0003427D01*
X0010939Y0003585D02*
Y0004864D01*
X0011116Y0004687D01*
X0011214Y0004864D02*
X0010939D01*
X0009285Y0005651D02*
X0011214D01*
X0009561Y0004372D02*
Y0004864D01*
X0009285D01*
X0009384Y0004687D02*
X0009561Y0004864D01*
X0010939Y0007915D02*
Y0005848D01*
X0009561Y0007915D02*
Y0006636D01*
X0009285D01*
X0009561D02*
X0009384Y0006813D01*
X0009403Y0002443D02*
X0011096D01*
Y0002640D02*
X0009403D01*
X0011116Y0005770D02*
Y0007994D01*
X0025840Y0017415D02*
Y0016136D01*
X0025663Y0016313D01*
Y0017494D01*
X0025840Y0017415D01*
X0027494D01*
X0024659Y0015151D02*
X0024837Y0015199D01*
Y0012927D01*
X0024659Y0013085D01*
Y0015151D01*
X0023281D01*
X0023104Y0015199D01*
Y0012927D01*
X0023459D01*
Y0012750D01*
X0023136D01*
X0022644D01*
X0022526Y0012868D02*
Y0017632D01*
X0022644Y0017750D02*
X0027856D01*
X0027974Y0017632D02*
Y0012868D01*
X0027856Y0012750D02*
X0027364D01*
X0027041D01*
Y0012927D01*
X0027396D01*
Y0015199D01*
X0025663D01*
Y0012927D01*
X0026214D01*
Y0012829D01*
X0026293D01*
Y0011943D01*
X0026963D01*
X0026096Y0012829D02*
Y0011943D01*
X0024403D01*
Y0012829D01*
X0023136Y0012750D02*
Y0011963D01*
X0023254Y0011844D02*
X0023537D01*
X0026963D01*
Y0012330D01*
Y0013085D01*
X0026293D01*
X0025840D01*
X0025663Y0012927D01*
X0023459Y0012750D02*
X0023537Y0012330D01*
Y0013085D01*
X0024207D01*
X0024285Y0012927D01*
Y0012829D01*
X0024207D01*
Y0011943D01*
X0023537D01*
X0027396Y0015270D02*
X0025270D01*
X0025447Y0015348D01*
X0027218D01*
X0027396Y0015270D01*
Y0016451D01*
X0027494D01*
Y0017494D01*
X0025663D01*
X0023006Y0016628D02*
X0023281D01*
X0023104Y0016451D01*
Y0015270D01*
X0025230D01*
Y0016313D01*
X0024837D01*
Y0017494D01*
X0023006D01*
Y0016451D01*
X0023104D01*
X0026214Y0012829D02*
X0024285D01*
X0023537Y0011844D02*
Y0012330D01*
X0025270Y0015270D02*
Y0016313D01*
X0025447Y0016136D01*
X0025840D01*
X0025447Y0015348D02*
Y0016136D01*
X0027218Y0015348D02*
Y0016628D01*
X0027494D01*
X0027218D02*
X0027396Y0016451D01*
X0023104Y0015270D02*
X0023281Y0015348D01*
X0025053D01*
X0025230Y0015270D01*
X0025053Y0015348D02*
Y0016136D01*
X0025230Y0016313D01*
X0024837D02*
X0024659Y0016136D01*
X0025053D01*
X0023006Y0017415D02*
X0024659D01*
Y0016136D01*
X0024837Y0017494D02*
X0024659Y0017415D01*
X0023281Y0016628D02*
Y0015348D01*
X0024403Y0012140D02*
X0026096D01*
X0024403Y0012750D02*
X0026096D01*
X0023104Y0012927D02*
X0023281Y0013085D01*
X0023537D01*
X0023459Y0012927D01*
X0023537Y0012140D02*
X0024207D01*
X0025840Y0013085D02*
Y0015151D01*
X0027218D01*
Y0013085D01*
X0026963D01*
X0027041Y0012927D01*
X0027396D02*
X0027218Y0013085D01*
X0027396Y0015199D02*
X0027218Y0015151D01*
X0025663Y0015199D02*
X0025840Y0015151D01*
X0026293Y0012829D02*
Y0013085D01*
X0026214Y0012927D01*
X0026293Y0012140D02*
X0026963D01*
Y0011844D02*
X0027246D01*
X0027364Y0011963D02*
Y0012750D01*
X0027041D02*
X0026963Y0012330D01*
X0024659Y0013085D02*
X0024207D01*
Y0012829D01*
X0023281Y0015151D02*
Y0013085D01*
X0025663Y0016313D02*
X0025270D01*
X0025053Y0017356D02*
Y0016529D01*
X0025447D01*
Y0017356D01*
X0025053D01*
Y0013144D02*
X0025447D01*
Y0014955D01*
X0025053D01*
Y0013144D01*
X0024837Y0015199D02*
X0023104D01*
X0024285Y0012927D02*
X0024837D01*
X0007454Y0041725D02*
X0007532Y0041804D01*
X0007704Y0041975D02*
X0007454D01*
X0007386Y0043615D02*
Y0043555D01*
X0007327Y0043496D02*
X0006453D01*
X0006394Y0043555D02*
Y0043615D01*
Y0043674D01*
Y0043707D01*
X0007386D01*
Y0043674D01*
Y0043615D01*
X0005354Y0042886D02*
Y0042999D01*
Y0043673D01*
X0005788Y0043715D02*
X0005731Y0043673D01*
X0008425D02*
X0008048D01*
X0004698Y0040164D02*
X0004777Y0040086D01*
Y0039993D01*
X0004698Y0039914D01*
Y0040164D01*
X0004948D01*
X0004869Y0040086D01*
Y0039993D01*
X0004777D01*
X0004869D02*
X0004948Y0039914D01*
Y0040164D01*
Y0039914D02*
X0004698D01*
X0004777Y0040086D02*
X0004869D01*
Y0041896D02*
X0004777D01*
X0004698Y0041975D01*
Y0041725D01*
X0004948D01*
X0004869Y0041804D01*
Y0041896D01*
X0004948Y0041975D01*
Y0041725D01*
X0004869Y0041804D02*
X0004777D01*
Y0041896D01*
X0004698Y0041725D02*
X0004777Y0041804D01*
X0004948Y0041975D02*
X0004698D01*
X0003320Y0040164D02*
X0003399Y0040086D01*
Y0039993D01*
X0003320Y0039914D01*
Y0040164D01*
X0003570D01*
X0003491Y0040086D01*
Y0039993D01*
X0003399D01*
X0003491D02*
X0003570Y0039914D01*
Y0040164D01*
Y0039914D02*
X0003320D01*
X0003399Y0040086D02*
X0003491D01*
Y0041896D02*
X0003399D01*
X0003320Y0041975D01*
Y0041725D01*
X0003570D01*
X0003491Y0041804D01*
Y0041896D01*
X0003570Y0041975D01*
Y0041725D01*
X0003491Y0041804D02*
X0003399D01*
Y0041896D01*
X0003320Y0041725D02*
X0003399Y0041804D01*
X0003570Y0041975D02*
X0003320D01*
X0002192D02*
Y0041725D01*
X0001942D01*
X0002021Y0041804D01*
X0002113D01*
Y0041896D01*
X0002192Y0041975D01*
X0001942D01*
X0002021Y0041896D01*
X0002113D01*
X0011587Y0041975D02*
Y0041725D01*
X0011666Y0041804D01*
X0011759D01*
Y0041896D01*
X0011837Y0041975D01*
X0011587D01*
X0011666Y0041896D01*
X0011759D01*
Y0041804D02*
X0011837Y0041725D01*
X0011587D01*
X0011666Y0041804D02*
Y0041896D01*
X0011759Y0040086D02*
X0011666D01*
X0011587Y0040164D01*
X0011837D01*
X0011759Y0040086D01*
Y0039993D01*
X0011837Y0039914D01*
Y0040164D01*
X0011759Y0039993D02*
X0011666D01*
Y0040086D01*
Y0039993D02*
X0011587Y0039914D01*
Y0040164D01*
X0011837Y0039914D02*
X0011587D01*
X0011837Y0041975D02*
Y0041725D01*
X0001942Y0039914D02*
Y0040164D01*
X0002021Y0040086D01*
Y0039993D01*
X0001942Y0039914D01*
X0002192D01*
X0002113Y0039993D01*
Y0040086D01*
X0002192Y0040164D01*
X0001942D01*
X0002192Y0039914D02*
Y0040164D01*
X0002113Y0041804D02*
X0002192Y0041725D01*
X0002113Y0039993D02*
X0002021D01*
Y0041804D02*
Y0041896D01*
X0002113Y0040086D02*
X0002021D01*
X0001942Y0041975D02*
Y0041725D01*
X0001441Y0042476D02*
Y0041224D01*
X0002693D01*
Y0042476D01*
X0001441D01*
X0011086Y0040665D02*
Y0039413D01*
X0012338D01*
Y0040665D01*
X0011086D01*
Y0042476D02*
Y0041224D01*
X0012338D01*
Y0042476D01*
X0011086D01*
X0009708Y0040665D02*
Y0039413D01*
X0010960D01*
Y0040665D01*
X0009708D01*
Y0042476D02*
Y0041224D01*
X0010960D01*
Y0042476D01*
X0009708D01*
X0008331Y0040665D02*
Y0039413D01*
X0009582D01*
Y0040665D01*
X0008331D01*
Y0042476D02*
Y0041224D01*
X0009582D01*
Y0042476D01*
X0008331D01*
X0006953Y0040665D02*
Y0039413D01*
X0008205D01*
Y0040665D01*
X0006953D01*
X0005575D02*
Y0039413D01*
X0006827D01*
Y0040665D01*
X0005575D01*
X0004197D02*
Y0039413D01*
X0005449D01*
Y0040665D01*
X0004197D01*
Y0042476D02*
Y0041224D01*
X0005449D01*
Y0042476D01*
X0004197D01*
X0002819D02*
Y0041224D01*
X0004071D01*
Y0042476D01*
X0002819D01*
X0005728D02*
X0005575D01*
Y0041224D01*
X0006827D01*
Y0042476D01*
X0005363Y0042886D02*
Y0042999D01*
Y0043673D01*
Y0043793D01*
X0005660Y0044090D02*
X0008137D01*
X0008051Y0042476D02*
X0008205D01*
Y0041224D01*
X0006953D01*
Y0042476D01*
X0007992D01*
X0008051D01*
Y0042835D01*
Y0042886D01*
Y0042999D01*
Y0043656D01*
X0008048Y0043673D01*
X0007992Y0043715D01*
X0005788D01*
Y0043674D01*
X0006953Y0042476D02*
X0006827D01*
X0005788D01*
X0005728D01*
Y0042835D01*
Y0042886D01*
Y0042999D01*
Y0043656D01*
X0005731Y0043673D01*
X0005354D01*
Y0043793D01*
X0001441Y0040665D02*
Y0039154D01*
X0001906D01*
Y0039413D01*
X0002693D01*
Y0040665D01*
X0001441D01*
X0004071Y0039413D02*
Y0040665D01*
X0002819D01*
Y0039413D01*
X0004071D01*
X0005728Y0042886D02*
X0005354D01*
Y0042835D01*
Y0042807D01*
X0002264D01*
X0001870D01*
X0001240D01*
X0001181Y0042748D02*
Y0042027D01*
X0000984D01*
Y0041476D01*
X0001181D01*
Y0040217D01*
X0000984D01*
Y0039665D01*
X0001181D01*
Y0038929D01*
X0001240Y0038870D02*
X0012539D01*
X0012598Y0038929D02*
Y0039665D01*
X0012795D01*
Y0040217D01*
X0012598D01*
Y0041476D01*
X0012795D01*
Y0042027D01*
X0012598D01*
Y0042748D01*
X0012539Y0042807D02*
X0008425D01*
Y0042835D01*
Y0042886D01*
X0008051D01*
X0001870Y0042807D02*
Y0042767D01*
X0002264D01*
Y0042807D01*
X0008425Y0042886D02*
Y0042999D01*
Y0043673D01*
Y0043793D01*
X0008128Y0044090D02*
X0005651D01*
X0007992Y0043715D02*
Y0043674D01*
X0012342Y0038870D02*
Y0038614D01*
X0011870D01*
Y0038870D01*
X0001437D02*
Y0038614D01*
X0001909D01*
Y0038870D01*
X0010288Y0039993D02*
X0010381D01*
Y0040086D01*
X0010288D01*
X0010210Y0040164D01*
Y0039914D01*
X0010288Y0039993D01*
Y0040086D01*
X0010381D02*
X0010460Y0040164D01*
Y0039914D01*
X0010381Y0039993D01*
X0010460Y0039914D02*
X0010210D01*
X0010381Y0041804D02*
X0010460Y0041725D01*
X0010210D01*
X0010288Y0041804D01*
X0010381D01*
Y0041896D01*
X0010460Y0041975D01*
X0010210D01*
X0010288Y0041896D01*
X0010381D01*
X0010288Y0041804D02*
Y0041896D01*
X0010460Y0040164D02*
X0010210D01*
X0010460Y0041725D02*
Y0041975D01*
X0010210D02*
Y0041725D01*
X0008910Y0039993D02*
X0009003D01*
Y0040086D01*
X0008910D01*
X0008832Y0040164D01*
Y0039914D01*
X0008910Y0039993D01*
Y0040086D01*
X0009003D02*
X0009082Y0040164D01*
Y0039914D01*
X0009003Y0039993D01*
X0009082Y0039914D02*
X0008832D01*
X0009003Y0041804D02*
X0009082Y0041725D01*
X0008832D01*
X0008910Y0041804D01*
X0009003D01*
Y0041896D01*
X0009082Y0041975D01*
X0008832D01*
X0008910Y0041896D01*
X0009003D01*
X0008910Y0041804D02*
Y0041896D01*
X0009082Y0040164D02*
X0008832D01*
X0009082Y0041725D02*
Y0041975D01*
X0008832D02*
Y0041725D01*
X0006076Y0040164D02*
X0006155Y0040086D01*
Y0039993D01*
X0006076Y0039914D01*
Y0040164D01*
X0006326D01*
X0006247Y0040086D01*
Y0039993D01*
X0006155D01*
X0006247D02*
X0006326Y0039914D01*
Y0040164D01*
Y0039914D02*
X0006076D01*
X0006155Y0040086D02*
X0006247D01*
Y0041896D02*
X0006155D01*
X0006076Y0041975D01*
Y0041725D01*
X0006326D01*
X0006247Y0041804D01*
Y0041896D01*
X0006326Y0041975D01*
Y0041725D01*
X0006247Y0041804D02*
X0006155D01*
Y0041896D01*
X0006076Y0041725D02*
X0006155Y0041804D01*
X0006326Y0041975D02*
X0006076D01*
X0007454Y0040164D02*
X0007532Y0040086D01*
Y0039993D01*
X0007454Y0039914D01*
Y0040164D01*
X0007704D01*
X0007625Y0040086D01*
Y0039993D01*
X0007532D01*
X0007625D02*
X0007704Y0039914D01*
Y0040164D01*
Y0039914D02*
X0007454D01*
X0007532Y0040086D02*
X0007625D01*
Y0041896D02*
X0007532D01*
X0007454Y0041975D01*
Y0041725D01*
X0007704D01*
X0007625Y0041804D01*
Y0041896D01*
X0007704Y0041975D01*
Y0041725D01*
X0007625Y0041804D02*
X0007532D01*
Y0041896D01*
X0037500Y0033500D02*
X0037250Y0033750D01*
Y0034250D01*
X0037500Y0034500D01*
X0038000D01*
X0038250Y0034250D01*
Y0033700D01*
X0038050Y0033500D01*
X0037500D01*
Y0034500D02*
X0037250Y0034750D01*
Y0035250D01*
X0037500Y0035500D01*
X0038000D01*
X0038250Y0035250D01*
Y0034750D01*
X0038000Y0034500D01*
X0037500D01*
X0007090Y0017415D02*
Y0016136D01*
X0006913Y0016313D01*
Y0017494D01*
X0007090Y0017415D01*
X0008744D01*
X0005909Y0015151D02*
X0006087Y0015199D01*
Y0012927D01*
X0005909Y0013085D01*
Y0015151D01*
X0004531D01*
X0004354Y0015199D01*
Y0012927D01*
X0004709D01*
Y0012750D01*
X0004386D01*
X0003894D01*
X0003776Y0012868D02*
Y0017632D01*
X0003894Y0017750D02*
X0009106D01*
X0009224Y0017632D02*
Y0012868D01*
X0009106Y0012750D02*
X0008614D01*
X0008291D01*
Y0012927D01*
X0008646D01*
Y0015199D01*
X0006913D01*
Y0012927D01*
X0007464D01*
Y0012829D01*
X0007543D01*
Y0011943D01*
X0008213D01*
X0007346Y0012829D02*
Y0011943D01*
X0005653D01*
Y0012829D01*
X0004386Y0012750D02*
Y0011963D01*
X0004504Y0011844D02*
X0004787D01*
X0008213D01*
Y0012330D01*
Y0013085D01*
X0007543D01*
X0007090D01*
X0006913Y0012927D01*
X0004709Y0012750D02*
X0004787Y0012330D01*
Y0013085D01*
X0005457D01*
X0005535Y0012927D01*
Y0012829D01*
X0005457D01*
Y0011943D01*
X0004787D01*
X0008646Y0015270D02*
X0006520D01*
X0006697Y0015348D01*
X0008468D01*
X0008646Y0015270D01*
Y0016451D01*
X0008744D01*
Y0017494D01*
X0006913D01*
X0004256Y0016628D02*
X0004531D01*
X0004354Y0016451D01*
Y0015270D01*
X0006480D01*
Y0016313D01*
X0006087D01*
Y0017494D01*
X0004256D01*
Y0016451D01*
X0004354D01*
X0007464Y0012829D02*
X0005535D01*
X0004787Y0011844D02*
Y0012330D01*
X0006520Y0015270D02*
Y0016313D01*
X0006697Y0016136D01*
X0007090D01*
X0006697Y0015348D02*
Y0016136D01*
X0008468Y0015348D02*
Y0016628D01*
X0008744D01*
X0008468D02*
X0008646Y0016451D01*
X0004354Y0015270D02*
X0004531Y0015348D01*
X0006303D01*
X0006480Y0015270D01*
X0006303Y0015348D02*
Y0016136D01*
X0006480Y0016313D01*
X0006087D02*
X0005909Y0016136D01*
X0006303D01*
X0004256Y0017415D02*
X0005909D01*
Y0016136D01*
X0006087Y0017494D02*
X0005909Y0017415D01*
X0004531Y0016628D02*
Y0015348D01*
X0005653Y0012140D02*
X0007346D01*
X0005653Y0012750D02*
X0007346D01*
X0004354Y0012927D02*
X0004531Y0013085D01*
X0004787D01*
X0004709Y0012927D01*
X0004787Y0012140D02*
X0005457D01*
X0007090Y0013085D02*
Y0015151D01*
X0008468D01*
Y0013085D01*
X0008213D01*
X0008291Y0012927D01*
X0008646D02*
X0008468Y0013085D01*
X0008646Y0015199D02*
X0008468Y0015151D01*
X0006913Y0015199D02*
X0007090Y0015151D01*
X0007543Y0012829D02*
Y0013085D01*
X0007464Y0012927D01*
X0007543Y0012140D02*
X0008213D01*
Y0011844D02*
X0008496D01*
X0008614Y0011963D02*
Y0012750D01*
X0008291D02*
X0008213Y0012330D01*
X0005909Y0013085D02*
X0005457D01*
Y0012829D01*
X0004531Y0015151D02*
Y0013085D01*
X0006913Y0016313D02*
X0006520D01*
X0006303Y0017356D02*
Y0016529D01*
X0006697D01*
Y0017356D01*
X0006303D01*
Y0013144D02*
X0006697D01*
Y0014955D01*
X0006303D01*
Y0013144D01*
X0006087Y0015199D02*
X0004354D01*
X0005535Y0012927D02*
X0006087D01*
X0020000Y0033500D02*
X0019750Y0033750D01*
Y0034250D01*
X0020000Y0034500D01*
X0020500D01*
X0020750Y0034250D01*
Y0033700D01*
X0020550Y0033500D01*
X0020000D01*
Y0034500D02*
X0019750Y0034750D01*
Y0035250D01*
X0020000Y0035500D01*
X0020500D01*
X0020750Y0035250D01*
Y0034750D01*
X0020500Y0034500D01*
X0020000D01*
X0018346Y0031344D02*
X0018827D01*
X0018945Y0031463D02*
Y0032250D01*
Y0037132D01*
X0018827Y0037250D02*
X0016173D01*
X0016055Y0037132D02*
Y0032250D01*
X0016653D01*
X0018346D01*
Y0031344D01*
X0016653D01*
X0016173D01*
X0016055Y0031463D02*
Y0032250D01*
X0018945D02*
X0018346D01*
Y0032329D01*
X0016653D01*
Y0032250D01*
Y0031344D01*
X0016634Y0033549D02*
X0016535D01*
Y0032427D01*
X0018366D01*
Y0033687D01*
X0018464D01*
Y0034699D01*
X0016535D01*
Y0033687D01*
X0016634D01*
Y0033549D01*
X0016811Y0033372D01*
X0016535D01*
X0016634Y0036994D02*
X0018366D01*
X0018189Y0036915D01*
X0016811D01*
X0016634Y0036994D01*
Y0035813D01*
X0016535D01*
Y0034770D01*
X0018366D01*
X0018189Y0034848D01*
X0016535D01*
Y0032585D02*
X0018189D01*
X0018366Y0032427D01*
X0018189Y0032585D02*
Y0033864D01*
X0018366Y0033687D01*
X0018464Y0033864D02*
X0018189D01*
X0016535Y0034651D02*
X0018464D01*
X0016811Y0033372D02*
Y0033864D01*
X0016535D01*
X0016634Y0033687D02*
X0016811Y0033864D01*
X0018189Y0036915D02*
Y0034848D01*
X0016811Y0036915D02*
Y0035636D01*
X0016535D01*
X0016811D02*
X0016634Y0035813D01*
X0016653Y0031443D02*
X0018346D01*
Y0031640D02*
X0016653D01*
X0018366Y0034770D02*
Y0036994D01*
X0018346Y0020844D02*
X0018827D01*
X0018945Y0020963D02*
Y0021750D01*
Y0026632D01*
X0018827Y0026750D02*
X0016173D01*
X0016055Y0026632D02*
Y0021750D01*
X0016653D01*
X0018346D01*
Y0020844D01*
X0016653D01*
X0016173D01*
X0016055Y0020963D02*
Y0021750D01*
X0018945D02*
X0018346D01*
Y0021829D01*
X0016653D01*
Y0021750D01*
Y0020844D01*
X0016634Y0023049D02*
X0016535D01*
Y0021927D01*
X0018366D01*
Y0023187D01*
X0018464D01*
Y0024199D01*
X0016535D01*
Y0023187D01*
X0016634D01*
Y0023049D01*
X0016811Y0022872D01*
X0016535D01*
X0016634Y0026494D02*
X0018366D01*
X0018189Y0026415D01*
X0016811D01*
X0016634Y0026494D01*
Y0025313D01*
X0016535D01*
Y0024270D01*
X0018366D01*
X0018189Y0024348D01*
X0016535D01*
Y0022085D02*
X0018189D01*
X0018366Y0021927D01*
X0018189Y0022085D02*
Y0023364D01*
X0018366Y0023187D01*
X0018464Y0023364D02*
X0018189D01*
X0016535Y0024151D02*
X0018464D01*
X0016811Y0022872D02*
Y0023364D01*
X0016535D01*
X0016634Y0023187D02*
X0016811Y0023364D01*
X0018189Y0026415D02*
Y0024348D01*
X0016811Y0026415D02*
Y0025136D01*
X0016535D01*
X0016811D02*
X0016634Y0025313D01*
X0016653Y0020943D02*
X0018346D01*
Y0021140D02*
X0016653D01*
X0018366Y0024270D02*
Y0026494D01*
X0014000Y0023250D02*
X0013750Y0023500D01*
Y0024000D01*
X0014000Y0024250D01*
X0014500D01*
X0014750Y0024000D01*
Y0023450D01*
X0014550Y0023250D01*
X0014000D01*
Y0024250D02*
X0013750Y0024500D01*
Y0025000D01*
X0014000Y0025250D01*
X0014500D01*
X0014750Y0025000D01*
Y0024500D01*
X0014500Y0024250D01*
X0014000D01*
X0035340Y0017415D02*
Y0016136D01*
X0035163Y0016313D01*
Y0017494D01*
X0035340Y0017415D01*
X0036994D01*
X0034159Y0015151D02*
X0034337Y0015199D01*
Y0012927D01*
X0034159Y0013085D01*
Y0015151D01*
X0032781D01*
X0032604Y0015199D01*
Y0012927D01*
X0032959D01*
Y0012750D01*
X0032636D01*
X0032144D01*
X0032026Y0012868D02*
Y0017632D01*
X0032144Y0017750D02*
X0037356D01*
X0037474Y0017632D02*
Y0012868D01*
X0037356Y0012750D02*
X0036864D01*
X0036541D01*
Y0012927D01*
X0036896D01*
Y0015199D01*
X0035163D01*
Y0012927D01*
X0035714D01*
Y0012829D01*
X0035793D01*
Y0011943D01*
X0036463D01*
X0035596Y0012829D02*
Y0011943D01*
X0033903D01*
Y0012829D01*
X0032636Y0012750D02*
Y0011963D01*
X0032754Y0011844D02*
X0033037D01*
X0036463D01*
Y0012330D01*
Y0013085D01*
X0035793D01*
X0035340D01*
X0035163Y0012927D01*
X0032959Y0012750D02*
X0033037Y0012330D01*
Y0013085D01*
X0033707D01*
X0033785Y0012927D01*
Y0012829D01*
X0033707D01*
Y0011943D01*
X0033037D01*
X0036896Y0015270D02*
X0034770D01*
X0034947Y0015348D01*
X0036718D01*
X0036896Y0015270D01*
Y0016451D01*
X0036994D01*
Y0017494D01*
X0035163D01*
X0032506Y0016628D02*
X0032781D01*
X0032604Y0016451D01*
Y0015270D01*
X0034730D01*
Y0016313D01*
X0034337D01*
Y0017494D01*
X0032506D01*
Y0016451D01*
X0032604D01*
X0035714Y0012829D02*
X0033785D01*
X0033037Y0011844D02*
Y0012330D01*
X0034770Y0015270D02*
Y0016313D01*
X0034947Y0016136D01*
X0035340D01*
X0034947Y0015348D02*
Y0016136D01*
X0036718Y0015348D02*
Y0016628D01*
X0036994D01*
X0036718D02*
X0036896Y0016451D01*
X0032604Y0015270D02*
X0032781Y0015348D01*
X0034553D01*
X0034730Y0015270D01*
X0034553Y0015348D02*
Y0016136D01*
X0034730Y0016313D01*
X0034337D02*
X0034159Y0016136D01*
X0034553D01*
X0032506Y0017415D02*
X0034159D01*
Y0016136D01*
X0034337Y0017494D02*
X0034159Y0017415D01*
X0032781Y0016628D02*
Y0015348D01*
X0033903Y0012140D02*
X0035596D01*
X0033903Y0012750D02*
X0035596D01*
X0032604Y0012927D02*
X0032781Y0013085D01*
X0033037D01*
X0032959Y0012927D01*
X0033037Y0012140D02*
X0033707D01*
X0035340Y0013085D02*
Y0015151D01*
X0036718D01*
Y0013085D01*
X0036463D01*
X0036541Y0012927D01*
X0036896D02*
X0036718Y0013085D01*
X0036896Y0015199D02*
X0036718Y0015151D01*
X0035163Y0015199D02*
X0035340Y0015151D01*
X0035793Y0012829D02*
Y0013085D01*
X0035714Y0012927D01*
X0035793Y0012140D02*
X0036463D01*
Y0011844D02*
X0036746D01*
X0036864Y0011963D02*
Y0012750D01*
X0036541D02*
X0036463Y0012330D01*
X0034159Y0013085D02*
X0033707D01*
Y0012829D01*
X0032781Y0015151D02*
Y0013085D01*
X0035163Y0016313D02*
X0034770D01*
X0034553Y0017356D02*
Y0016529D01*
X0034947D01*
Y0017356D01*
X0034553D01*
Y0013144D02*
X0034947D01*
Y0014955D01*
X0034553D01*
Y0013144D01*
X0034337Y0015199D02*
X0032604D01*
X0033785Y0012927D02*
X0034337D01*
X0027454Y0041725D02*
X0027532Y0041804D01*
X0027704Y0041975D02*
X0027454D01*
X0027386Y0043615D02*
Y0043555D01*
X0027327Y0043496D02*
X0026453D01*
X0026394Y0043555D02*
Y0043615D01*
Y0043674D01*
Y0043707D01*
X0027386D01*
Y0043674D01*
Y0043615D01*
X0025354Y0042886D02*
Y0042999D01*
Y0043673D01*
X0025788Y0043715D02*
X0025731Y0043673D01*
X0028425D02*
X0028048D01*
X0024698Y0040164D02*
X0024777Y0040086D01*
Y0039993D01*
X0024698Y0039914D01*
Y0040164D01*
X0024948D01*
X0024869Y0040086D01*
Y0039993D01*
X0024777D01*
X0024869D02*
X0024948Y0039914D01*
Y0040164D01*
Y0039914D02*
X0024698D01*
X0024777Y0040086D02*
X0024869D01*
Y0041896D02*
X0024777D01*
X0024698Y0041975D01*
Y0041725D01*
X0024948D01*
X0024869Y0041804D01*
Y0041896D01*
X0024948Y0041975D01*
Y0041725D01*
X0024869Y0041804D02*
X0024777D01*
Y0041896D01*
X0024698Y0041725D02*
X0024777Y0041804D01*
X0024948Y0041975D02*
X0024698D01*
X0023320Y0040164D02*
X0023399Y0040086D01*
Y0039993D01*
X0023320Y0039914D01*
Y0040164D01*
X0023570D01*
X0023491Y0040086D01*
Y0039993D01*
X0023399D01*
X0023491D02*
X0023570Y0039914D01*
Y0040164D01*
Y0039914D02*
X0023320D01*
X0023399Y0040086D02*
X0023491D01*
Y0041896D02*
X0023399D01*
X0023320Y0041975D01*
Y0041725D01*
X0023570D01*
X0023491Y0041804D01*
Y0041896D01*
X0023570Y0041975D01*
Y0041725D01*
X0023491Y0041804D02*
X0023399D01*
Y0041896D01*
X0023320Y0041725D02*
X0023399Y0041804D01*
X0023570Y0041975D02*
X0023320D01*
X0022192D02*
Y0041725D01*
X0021942D01*
X0022021Y0041804D01*
X0022113D01*
Y0041896D01*
X0022192Y0041975D01*
X0021942D01*
X0022021Y0041896D01*
X0022113D01*
X0031587Y0041975D02*
Y0041725D01*
X0031666Y0041804D01*
X0031759D01*
Y0041896D01*
X0031837Y0041975D01*
X0031587D01*
X0031666Y0041896D01*
X0031759D01*
Y0041804D02*
X0031837Y0041725D01*
X0031587D01*
X0031666Y0041804D02*
Y0041896D01*
X0031759Y0040086D02*
X0031666D01*
X0031587Y0040164D01*
X0031837D01*
X0031759Y0040086D01*
Y0039993D01*
X0031837Y0039914D01*
Y0040164D01*
X0031759Y0039993D02*
X0031666D01*
Y0040086D01*
Y0039993D02*
X0031587Y0039914D01*
Y0040164D01*
X0031837Y0039914D02*
X0031587D01*
X0031837Y0041975D02*
Y0041725D01*
X0021942Y0039914D02*
Y0040164D01*
X0022021Y0040086D01*
Y0039993D01*
X0021942Y0039914D01*
X0022192D01*
X0022113Y0039993D01*
Y0040086D01*
X0022192Y0040164D01*
X0021942D01*
X0022192Y0039914D02*
Y0040164D01*
X0022113Y0041804D02*
X0022192Y0041725D01*
X0022113Y0039993D02*
X0022021D01*
Y0041804D02*
Y0041896D01*
X0022113Y0040086D02*
X0022021D01*
X0021942Y0041975D02*
Y0041725D01*
X0021441Y0042476D02*
Y0041224D01*
X0022693D01*
Y0042476D01*
X0021441D01*
X0031086Y0040665D02*
Y0039413D01*
X0032338D01*
Y0040665D01*
X0031086D01*
Y0042476D02*
Y0041224D01*
X0032338D01*
Y0042476D01*
X0031086D01*
X0029708Y0040665D02*
Y0039413D01*
X0030960D01*
Y0040665D01*
X0029708D01*
Y0042476D02*
Y0041224D01*
X0030960D01*
Y0042476D01*
X0029708D01*
X0028331Y0040665D02*
Y0039413D01*
X0029582D01*
Y0040665D01*
X0028331D01*
Y0042476D02*
Y0041224D01*
X0029582D01*
Y0042476D01*
X0028331D01*
X0026953Y0040665D02*
Y0039413D01*
X0028205D01*
Y0040665D01*
X0026953D01*
X0025575D02*
Y0039413D01*
X0026827D01*
Y0040665D01*
X0025575D01*
X0024197D02*
Y0039413D01*
X0025449D01*
Y0040665D01*
X0024197D01*
Y0042476D02*
Y0041224D01*
X0025449D01*
Y0042476D01*
X0024197D01*
X0022819D02*
Y0041224D01*
X0024071D01*
Y0042476D01*
X0022819D01*
X0025728D02*
X0025575D01*
Y0041224D01*
X0026827D01*
Y0042476D01*
X0025363Y0042886D02*
Y0042999D01*
Y0043673D01*
Y0043793D01*
X0025660Y0044090D02*
X0028137D01*
X0028051Y0042476D02*
X0028205D01*
Y0041224D01*
X0026953D01*
Y0042476D01*
X0027992D01*
X0028051D01*
Y0042835D01*
Y0042886D01*
Y0042999D01*
Y0043656D01*
X0028048Y0043673D01*
X0027992Y0043715D01*
X0025788D01*
Y0043674D01*
X0026953Y0042476D02*
X0026827D01*
X0025788D01*
X0025728D01*
Y0042835D01*
Y0042886D01*
Y0042999D01*
Y0043656D01*
X0025731Y0043673D01*
X0025354D01*
Y0043793D01*
X0021441Y0040665D02*
Y0039154D01*
X0021906D01*
Y0039413D01*
X0022693D01*
Y0040665D01*
X0021441D01*
X0024071Y0039413D02*
Y0040665D01*
X0022819D01*
Y0039413D01*
X0024071D01*
X0025728Y0042886D02*
X0025354D01*
Y0042835D01*
Y0042807D01*
X0022264D01*
X0021870D01*
X0021240D01*
X0021181Y0042748D02*
Y0042027D01*
X0020984D01*
Y0041476D01*
X0021181D01*
Y0040217D01*
X0020984D01*
Y0039665D01*
X0021181D01*
Y0038929D01*
X0021240Y0038870D02*
X0032539D01*
X0032598Y0038929D02*
Y0039665D01*
X0032795D01*
Y0040217D01*
X0032598D01*
Y0041476D01*
X0032795D01*
Y0042027D01*
X0032598D01*
Y0042748D01*
X0032539Y0042807D02*
X0028425D01*
Y0042835D01*
Y0042886D01*
X0028051D01*
X0021870Y0042807D02*
Y0042767D01*
X0022264D01*
Y0042807D01*
X0028425Y0042886D02*
Y0042999D01*
Y0043673D01*
Y0043793D01*
X0028128Y0044090D02*
X0025651D01*
X0027992Y0043715D02*
Y0043674D01*
X0032342Y0038870D02*
Y0038614D01*
X0031870D01*
Y0038870D01*
X0021437D02*
Y0038614D01*
X0021909D01*
Y0038870D01*
X0030288Y0039993D02*
X0030381D01*
Y0040086D01*
X0030288D01*
X0030210Y0040164D01*
Y0039914D01*
X0030288Y0039993D01*
Y0040086D01*
X0030381D02*
X0030460Y0040164D01*
Y0039914D01*
X0030381Y0039993D01*
X0030460Y0039914D02*
X0030210D01*
X0030381Y0041804D02*
X0030460Y0041725D01*
X0030210D01*
X0030288Y0041804D01*
X0030381D01*
Y0041896D01*
X0030460Y0041975D01*
X0030210D01*
X0030288Y0041896D01*
X0030381D01*
X0030288Y0041804D02*
Y0041896D01*
X0030460Y0040164D02*
X0030210D01*
X0030460Y0041725D02*
Y0041975D01*
X0030210D02*
Y0041725D01*
X0028910Y0039993D02*
X0029003D01*
Y0040086D01*
X0028910D01*
X0028832Y0040164D01*
Y0039914D01*
X0028910Y0039993D01*
Y0040086D01*
X0029003D02*
X0029082Y0040164D01*
Y0039914D01*
X0029003Y0039993D01*
X0029082Y0039914D02*
X0028832D01*
X0029003Y0041804D02*
X0029082Y0041725D01*
X0028832D01*
X0028910Y0041804D01*
X0029003D01*
Y0041896D01*
X0029082Y0041975D01*
X0028832D01*
X0028910Y0041896D01*
X0029003D01*
X0028910Y0041804D02*
Y0041896D01*
X0029082Y0040164D02*
X0028832D01*
X0029082Y0041725D02*
Y0041975D01*
X0028832D02*
Y0041725D01*
X0026076Y0040164D02*
X0026155Y0040086D01*
Y0039993D01*
X0026076Y0039914D01*
Y0040164D01*
X0026326D01*
X0026247Y0040086D01*
Y0039993D01*
X0026155D01*
X0026247D02*
X0026326Y0039914D01*
Y0040164D01*
Y0039914D02*
X0026076D01*
X0026155Y0040086D02*
X0026247D01*
Y0041896D02*
X0026155D01*
X0026076Y0041975D01*
Y0041725D01*
X0026326D01*
X0026247Y0041804D01*
Y0041896D01*
X0026326Y0041975D01*
Y0041725D01*
X0026247Y0041804D02*
X0026155D01*
Y0041896D01*
X0026076Y0041725D02*
X0026155Y0041804D01*
X0026326Y0041975D02*
X0026076D01*
X0027454Y0040164D02*
X0027532Y0040086D01*
Y0039993D01*
X0027454Y0039914D01*
Y0040164D01*
X0027704D01*
X0027625Y0040086D01*
Y0039993D01*
X0027532D01*
X0027625D02*
X0027704Y0039914D01*
Y0040164D01*
Y0039914D02*
X0027454D01*
X0027532Y0040086D02*
X0027625D01*
Y0041896D02*
X0027532D01*
X0027454Y0041975D01*
Y0041725D01*
X0027704D01*
X0027625Y0041804D01*
Y0041896D01*
X0027704Y0041975D01*
Y0041725D01*
X0027625Y0041804D02*
X0027532D01*
Y0041896D01*
X0024346Y0020844D02*
X0024827D01*
X0024945Y0020963D02*
Y0021750D01*
Y0026632D01*
X0024827Y0026750D02*
X0022173D01*
X0022055Y0026632D02*
Y0021750D01*
X0022653D01*
X0024346D01*
Y0020844D01*
X0022653D01*
X0022173D01*
X0022055Y0020963D02*
Y0021750D01*
X0024945D02*
X0024346D01*
Y0021829D01*
X0022653D01*
Y0021750D01*
Y0020844D01*
X0022634Y0023049D02*
X0022535D01*
Y0021927D01*
X0024366D01*
Y0023187D01*
X0024464D01*
Y0024199D01*
X0022535D01*
Y0023187D01*
X0022634D01*
Y0023049D01*
X0022811Y0022872D01*
X0022535D01*
X0022634Y0026494D02*
X0024366D01*
X0024189Y0026415D01*
X0022811D01*
X0022634Y0026494D01*
Y0025313D01*
X0022535D01*
Y0024270D01*
X0024366D01*
X0024189Y0024348D01*
X0022535D01*
Y0022085D02*
X0024189D01*
X0024366Y0021927D01*
X0024189Y0022085D02*
Y0023364D01*
X0024366Y0023187D01*
X0024464Y0023364D02*
X0024189D01*
X0022535Y0024151D02*
X0024464D01*
X0022811Y0022872D02*
Y0023364D01*
X0022535D01*
X0022634Y0023187D02*
X0022811Y0023364D01*
X0024189Y0026415D02*
Y0024348D01*
X0022811Y0026415D02*
Y0025136D01*
X0022535D01*
X0022811D02*
X0022634Y0025313D01*
X0022653Y0020943D02*
X0024346D01*
Y0021140D02*
X0022653D01*
X0024366Y0024270D02*
Y0026494D01*
X0036096Y0031344D02*
X0036577D01*
X0036695Y0031463D02*
Y0032250D01*
Y0037132D01*
X0036577Y0037250D02*
X0033923D01*
X0033805Y0037132D02*
Y0032250D01*
X0034403D01*
X0036096D01*
Y0031344D01*
X0034403D01*
X0033923D01*
X0033805Y0031463D02*
Y0032250D01*
X0036695D02*
X0036096D01*
Y0032329D01*
X0034403D01*
Y0032250D01*
Y0031344D01*
X0034384Y0033549D02*
X0034285D01*
Y0032427D01*
X0036116D01*
Y0033687D01*
X0036214D01*
Y0034699D01*
X0034285D01*
Y0033687D01*
X0034384D01*
Y0033549D01*
X0034561Y0033372D01*
X0034285D01*
X0034384Y0036994D02*
X0036116D01*
X0035939Y0036915D01*
X0034561D01*
X0034384Y0036994D01*
Y0035813D01*
X0034285D01*
Y0034770D01*
X0036116D01*
X0035939Y0034848D01*
X0034285D01*
Y0032585D02*
X0035939D01*
X0036116Y0032427D01*
X0035939Y0032585D02*
Y0033864D01*
X0036116Y0033687D01*
X0036214Y0033864D02*
X0035939D01*
X0034285Y0034651D02*
X0036214D01*
X0034561Y0033372D02*
Y0033864D01*
X0034285D01*
X0034384Y0033687D02*
X0034561Y0033864D01*
X0035939Y0036915D02*
Y0034848D01*
X0034561Y0036915D02*
Y0035636D01*
X0034285D01*
X0034561D02*
X0034384Y0035813D01*
X0034403Y0031443D02*
X0036096D01*
Y0031640D02*
X0034403D01*
X0036116Y0034770D02*
Y0036994D01*
X0008000Y0023250D02*
X0007750Y0023500D01*
Y0024000D01*
X0008000Y0024250D01*
X0008500D01*
X0008750Y0024000D01*
Y0023450D01*
X0008550Y0023250D01*
X0008000D01*
Y0024250D02*
X0007750Y0024500D01*
Y0025000D01*
X0008000Y0025250D01*
X0008500D01*
X0008750Y0025000D01*
Y0024500D01*
X0008500Y0024250D01*
X0008000D01*
X0006596Y0020844D02*
X0007077D01*
X0007195Y0020963D02*
Y0021750D01*
Y0026632D01*
X0007077Y0026750D02*
X0004423D01*
X0004305Y0026632D02*
Y0021750D01*
X0004903D01*
X0006596D01*
Y0020844D01*
X0004903D01*
X0004423D01*
X0004305Y0020963D02*
Y0021750D01*
X0007195D02*
X0006596D01*
Y0021829D01*
X0004903D01*
Y0021750D01*
Y0020844D01*
X0004884Y0023049D02*
X0004785D01*
Y0021927D01*
X0006616D01*
Y0023187D01*
X0006714D01*
Y0024199D01*
X0004785D01*
Y0023187D01*
X0004884D01*
Y0023049D01*
X0005061Y0022872D01*
X0004785D01*
X0004884Y0026494D02*
X0006616D01*
X0006439Y0026415D01*
X0005061D01*
X0004884Y0026494D01*
Y0025313D01*
X0004785D01*
Y0024270D01*
X0006616D01*
X0006439Y0024348D01*
X0004785D01*
Y0022085D02*
X0006439D01*
X0006616Y0021927D01*
X0006439Y0022085D02*
Y0023364D01*
X0006616Y0023187D01*
X0006714Y0023364D02*
X0006439D01*
X0004785Y0024151D02*
X0006714D01*
X0005061Y0022872D02*
Y0023364D01*
X0004785D01*
X0004884Y0023187D02*
X0005061Y0023364D01*
X0006439Y0026415D02*
Y0024348D01*
X0005061Y0026415D02*
Y0025136D01*
X0004785D01*
X0005061D02*
X0004884Y0025313D01*
X0004903Y0020943D02*
X0006596D01*
Y0021140D02*
X0004903D01*
X0006616Y0024270D02*
Y0026494D01*
X0031384Y0005699D02*
Y0003427D01*
X0031561Y0003585D01*
Y0005651D01*
Y0003585D02*
X0032939D01*
X0033333Y0005848D02*
Y0006636D01*
X0033510Y0006813D01*
Y0005770D01*
X0033333Y0005848D01*
X0031167D01*
X0030990Y0005770D01*
X0033510D01*
X0032939Y0006636D02*
Y0007915D01*
X0033116Y0007994D01*
Y0006813D01*
X0032939Y0006636D01*
X0033333D01*
X0031167Y0005848D02*
Y0006636D01*
X0031561D01*
Y0007915D01*
X0032939D01*
X0031561Y0006636D02*
X0031384Y0006813D01*
Y0007994D01*
X0031561Y0007915D01*
X0031384Y0006813D02*
X0030990D01*
X0031167Y0006636D01*
X0033943Y0006813D02*
X0033549D01*
X0031167Y0003644D02*
Y0005455D01*
X0030774D01*
Y0003644D01*
X0031167D01*
X0033726Y0007029D02*
Y0007856D01*
X0033333D01*
Y0007029D01*
X0033726D01*
Y0003644D02*
Y0005455D01*
X0033333D01*
Y0003644D01*
X0033726D01*
X0031384Y0003427D02*
X0033116D01*
Y0007994D02*
X0031384D01*
X0033510Y0006813D02*
X0033116D01*
X0030990D02*
Y0005770D01*
X0031167Y0007029D02*
Y0007856D01*
X0030774D01*
Y0007029D01*
X0031167D01*
X0030557Y0003427D02*
Y0005699D01*
X0030104Y0003329D02*
Y0003427D01*
X0035675Y0005699D02*
X0033943D01*
X0035545Y0003250D02*
X0035222D01*
X0029277D02*
X0028955D01*
X0035774Y0007915D02*
X0034120D01*
X0035144Y0002344D02*
X0035427D01*
X0035545Y0002463D02*
Y0003250D01*
X0036136D01*
X0036254Y0003368D02*
Y0008132D01*
X0036136Y0008250D02*
X0028364D01*
X0028246Y0008132D02*
Y0003368D01*
X0028364Y0003250D02*
X0028955D01*
Y0002463D01*
X0029073Y0002344D02*
X0029356D01*
X0035144D01*
Y0002830D01*
Y0003585D01*
X0034474D01*
Y0003329D01*
Y0003250D01*
X0033333D01*
X0029356Y0002830D02*
X0029277Y0003250D01*
Y0003427D01*
X0029356Y0003585D01*
Y0002830D01*
Y0002344D01*
X0031403Y0003329D02*
Y0002443D01*
X0033096D01*
Y0003329D01*
X0029356Y0002443D02*
X0031167D01*
Y0003329D01*
X0035144Y0002443D02*
X0033333D01*
Y0003329D01*
X0035675Y0005770D02*
X0033549D01*
X0033726Y0005848D01*
X0035498D01*
X0035675Y0005770D01*
Y0006951D01*
X0035774D01*
Y0007994D01*
X0033943D01*
Y0006813D01*
X0034120Y0006636D01*
Y0007915D01*
X0033943Y0007994D01*
X0028726Y0007128D02*
X0029002D01*
X0028825Y0006951D01*
Y0005770D01*
X0030951D01*
Y0006813D01*
X0030557D01*
Y0007994D01*
X0028726D01*
Y0006951D01*
X0028825D01*
X0031167Y0003250D02*
X0030026D01*
Y0003329D01*
X0030104D01*
X0034396D01*
X0034474D01*
X0033549Y0005770D02*
Y0006813D01*
X0033726Y0006636D01*
X0034120D01*
X0033726D02*
Y0005848D01*
X0035498D02*
Y0007128D01*
X0035774D01*
X0035498D02*
X0035675Y0006951D01*
X0028825Y0005770D02*
X0029002Y0005848D01*
X0030774D01*
Y0006636D01*
X0030380D01*
Y0007915D01*
X0028726D01*
X0030951Y0005770D02*
X0030774Y0005848D01*
X0030951Y0006813D02*
X0030774Y0006636D01*
X0030557Y0006813D02*
X0030380Y0006636D01*
X0030557Y0007994D02*
X0030380Y0007915D01*
X0029002Y0007128D02*
Y0005848D01*
X0029356Y0002640D02*
X0031167D01*
X0031403D02*
X0033096D01*
X0031403Y0003250D02*
X0033096D01*
X0034396Y0003427D02*
X0033943D01*
X0034120Y0003585D01*
X0034474D01*
X0034396Y0003427D01*
Y0003329D01*
X0035498Y0005651D02*
X0035675Y0005699D01*
Y0003427D01*
X0035498Y0003585D01*
Y0005651D01*
X0034120D01*
X0033943Y0005699D01*
Y0003427D01*
X0034120Y0005651D02*
Y0003585D01*
X0035675Y0003427D02*
X0035222D01*
X0035144Y0003585D01*
X0035498D01*
X0035222Y0003427D02*
Y0003250D01*
X0035144Y0002830D01*
X0033333Y0002640D02*
X0035144D01*
X0029277Y0003427D02*
X0028825D01*
X0029002Y0003585D01*
X0029356D01*
X0030026D01*
X0030380D01*
X0030557Y0003427D01*
X0030104D01*
X0030026Y0003585D01*
Y0003329D01*
X0028825Y0003427D02*
Y0005699D01*
X0030557D01*
X0030380Y0005651D01*
Y0003585D01*
X0029002D02*
Y0005651D01*
X0030380D01*
X0028825Y0005699D02*
X0029002Y0005651D01*
X0032939D02*
X0031561D01*
X0031384Y0005699D01*
X0033116D01*
X0032939Y0005651D01*
Y0003585D01*
X0033116Y0003427D01*
Y0005699D01*
X0018884D02*
Y0003427D01*
X0019061Y0003585D01*
Y0005651D01*
Y0003585D02*
X0020439D01*
X0020833Y0005848D02*
Y0006636D01*
X0021010Y0006813D01*
Y0005770D01*
X0020833Y0005848D01*
X0018667D01*
X0018490Y0005770D01*
X0021010D01*
X0020439Y0006636D02*
Y0007915D01*
X0020616Y0007994D01*
Y0006813D01*
X0020439Y0006636D01*
X0020833D01*
X0018667Y0005848D02*
Y0006636D01*
X0019061D01*
Y0007915D01*
X0020439D01*
X0019061Y0006636D02*
X0018884Y0006813D01*
Y0007994D01*
X0019061Y0007915D01*
X0018884Y0006813D02*
X0018490D01*
X0018667Y0006636D01*
X0021443Y0006813D02*
X0021049D01*
X0018667Y0003644D02*
Y0005455D01*
X0018274D01*
Y0003644D01*
X0018667D01*
X0021226Y0007029D02*
Y0007856D01*
X0020833D01*
Y0007029D01*
X0021226D01*
Y0003644D02*
Y0005455D01*
X0020833D01*
Y0003644D01*
X0021226D01*
X0018884Y0003427D02*
X0020616D01*
Y0007994D02*
X0018884D01*
X0021010Y0006813D02*
X0020616D01*
X0018490D02*
Y0005770D01*
X0018667Y0007029D02*
Y0007856D01*
X0018274D01*
Y0007029D01*
X0018667D01*
X0018057Y0003427D02*
Y0005699D01*
X0017604Y0003329D02*
Y0003427D01*
X0023175Y0005699D02*
X0021443D01*
X0023045Y0003250D02*
X0022722D01*
X0016777D02*
X0016455D01*
X0023274Y0007915D02*
X0021620D01*
X0022644Y0002344D02*
X0022927D01*
X0023045Y0002463D02*
Y0003250D01*
X0023636D01*
X0023754Y0003368D02*
Y0008132D01*
X0023636Y0008250D02*
X0015864D01*
X0015746Y0008132D02*
Y0003368D01*
X0015864Y0003250D02*
X0016455D01*
Y0002463D01*
X0016573Y0002344D02*
X0016856D01*
X0022644D01*
Y0002830D01*
Y0003585D01*
X0021974D01*
Y0003329D01*
Y0003250D01*
X0020833D01*
X0016856Y0002830D02*
X0016777Y0003250D01*
Y0003427D01*
X0016856Y0003585D01*
Y0002830D01*
Y0002344D01*
X0018903Y0003329D02*
Y0002443D01*
X0020596D01*
Y0003329D01*
X0016856Y0002443D02*
X0018667D01*
Y0003329D01*
X0022644Y0002443D02*
X0020833D01*
Y0003329D01*
X0023175Y0005770D02*
X0021049D01*
X0021226Y0005848D01*
X0022998D01*
X0023175Y0005770D01*
Y0006951D01*
X0023274D01*
Y0007994D01*
X0021443D01*
Y0006813D01*
X0021620Y0006636D01*
Y0007915D01*
X0021443Y0007994D01*
X0016226Y0007128D02*
X0016502D01*
X0016325Y0006951D01*
Y0005770D01*
X0018451D01*
Y0006813D01*
X0018057D01*
Y0007994D01*
X0016226D01*
Y0006951D01*
X0016325D01*
X0018667Y0003250D02*
X0017526D01*
Y0003329D01*
X0017604D01*
X0021896D01*
X0021974D01*
X0021049Y0005770D02*
Y0006813D01*
X0021226Y0006636D01*
X0021620D01*
X0021226D02*
Y0005848D01*
X0022998D02*
Y0007128D01*
X0023274D01*
X0022998D02*
X0023175Y0006951D01*
X0016325Y0005770D02*
X0016502Y0005848D01*
X0018274D01*
Y0006636D01*
X0017880D01*
Y0007915D01*
X0016226D01*
X0018451Y0005770D02*
X0018274Y0005848D01*
X0018451Y0006813D02*
X0018274Y0006636D01*
X0018057Y0006813D02*
X0017880Y0006636D01*
X0018057Y0007994D02*
X0017880Y0007915D01*
X0016502Y0007128D02*
Y0005848D01*
X0016856Y0002640D02*
X0018667D01*
X0018903D02*
X0020596D01*
X0018903Y0003250D02*
X0020596D01*
X0021896Y0003427D02*
X0021443D01*
X0021620Y0003585D01*
X0021974D01*
X0021896Y0003427D01*
Y0003329D01*
X0022998Y0005651D02*
X0023175Y0005699D01*
Y0003427D01*
X0022998Y0003585D01*
Y0005651D01*
X0021620D01*
X0021443Y0005699D01*
Y0003427D01*
X0021620Y0005651D02*
Y0003585D01*
X0023175Y0003427D02*
X0022722D01*
X0022644Y0003585D01*
X0022998D01*
X0022722Y0003427D02*
Y0003250D01*
X0022644Y0002830D01*
X0020833Y0002640D02*
X0022644D01*
X0016777Y0003427D02*
X0016325D01*
X0016502Y0003585D01*
X0016856D01*
X0017526D01*
X0017880D01*
X0018057Y0003427D01*
X0017604D01*
X0017526Y0003585D01*
Y0003329D01*
X0016325Y0003427D02*
Y0005699D01*
X0018057D01*
X0017880Y0005651D01*
Y0003585D01*
X0016502D02*
Y0005651D01*
X0017880D01*
X0016325Y0005699D02*
X0016502Y0005651D01*
X0020439D02*
X0019061D01*
X0018884Y0005699D01*
X0020616D01*
X0020439Y0005651D01*
Y0003585D01*
X0020616Y0003427D01*
Y0005699D01*
G01X0030577Y0031344D02*
G03X0030696Y0031463I0000000J0000119D01*
G01X0030695Y0037132D02*
G03X0030577Y0037250I0000118J0000000D01*
G01X0027923D02*
G03X0027805Y0037132I0000000J0000118D01*
Y0031463D02*
G03X0027923Y0031345I0000118J0000000D01*
G01X0032026Y0021868D02*
G03X0032144Y0021750I0000118J0000000D01*
Y0026750D02*
G03X0032026Y0026632I0000000J0000118D01*
G01X0037474D02*
G03X0037356Y0026750I0000118J0000000D01*
Y0021750D02*
G03X0037474Y0021868I0000000J0000118D01*
G01X0032636Y0020963D02*
G03X0032754Y0020845I0000118J0000000D01*
G01X0036746Y0020844D02*
G03X0036865Y0020963I0000000J0000119D01*
G01X0013077Y0020844D02*
G03X0013196Y0020963I0000000J0000119D01*
G01X0013195Y0026632D02*
G03X0013077Y0026750I0000118J0000000D01*
G01X0010423D02*
G03X0010305Y0026632I0000000J0000118D01*
Y0020963D02*
G03X0010423Y0020845I0000118J0000000D01*
G01X0013026Y0012868D02*
G03X0013144Y0012750I0000118J0000000D01*
Y0017750D02*
G03X0013026Y0017632I0000000J0000118D01*
G01X0018474D02*
G03X0018356Y0017750I0000118J0000000D01*
Y0012750D02*
G03X0018474Y0012868I0000000J0000118D01*
G01X0013636Y0011963D02*
G03X0013754Y0011845I0000118J0000000D01*
G01X0017746Y0011844D02*
G03X0017865Y0011963I0000000J0000119D01*
G01X0007077Y0031344D02*
G03X0007196Y0031463I0000000J0000119D01*
G01X0007195Y0037132D02*
G03X0007077Y0037250I0000118J0000000D01*
G01X0004423D02*
G03X0004305Y0037132I0000000J0000118D01*
Y0031463D02*
G03X0004423Y0031345I0000118J0000000D01*
G01X0024577Y0031344D02*
G03X0024696Y0031463I0000000J0000119D01*
G01X0024695Y0037132D02*
G03X0024577Y0037250I0000118J0000000D01*
G01X0021923D02*
G03X0021805Y0037132I0000000J0000118D01*
Y0031463D02*
G03X0021923Y0031345I0000118J0000000D01*
G01X0012827Y0031344D02*
G03X0012946Y0031463I0000000J0000119D01*
G01X0012945Y0037132D02*
G03X0012827Y0037250I0000118J0000000D01*
G01X0010173D02*
G03X0010055Y0037132I0000000J0000118D01*
Y0031463D02*
G03X0010173Y0031345I0000118J0000000D01*
G01X0006577Y0002344D02*
G03X0006696Y0002463I0000000J0000119D01*
G01X0006695Y0008132D02*
G03X0006577Y0008250I0000118J0000000D01*
G01X0003923D02*
G03X0003805Y0008132I0000000J0000118D01*
Y0002463D02*
G03X0003923Y0002345I0000118J0000000D01*
G01X0011577Y0002344D02*
G03X0011696Y0002463I0000000J0000119D01*
G01X0011695Y0008132D02*
G03X0011577Y0008250I0000118J0000000D01*
G01X0008923D02*
G03X0008805Y0008132I0000000J0000118D01*
Y0002463D02*
G03X0008923Y0002345I0000118J0000000D01*
G01X0022526Y0012868D02*
G03X0022644Y0012750I0000118J0000000D01*
Y0017750D02*
G03X0022526Y0017632I0000000J0000118D01*
G01X0027974D02*
G03X0027856Y0017750I0000118J0000000D01*
Y0012750D02*
G03X0027974Y0012868I0000000J0000118D01*
G01X0023136Y0011963D02*
G03X0023254Y0011845I0000118J0000000D01*
G01X0027246Y0011844D02*
G03X0027365Y0011963I0000000J0000119D01*
G01X0007327Y0043496D02*
G03X0007386Y0043555I0000000J0000059D01*
G01X0006394D02*
G03X0006453Y0043496I0000059J0000000D01*
G01X0005660Y0044090D02*
G03X0005363Y0043793I0000000J0000297D01*
G01X0005788Y0043674D02*
G03X0005729Y0043615I0000000J0000059D01*
G01X0001240Y0042807D02*
G03X0001181Y0042748I0000000J0000059D01*
Y0038929D02*
G03X0001240Y0038870I0000059J0000000D01*
G01X0012539D02*
G03X0012598Y0038929I0000000J0000059D01*
Y0042748D02*
G03X0012539Y0042807I0000059J0000000D01*
G01X0008425Y0043793D02*
G03X0008128Y0044090I0000297J0000000D01*
G01X0008051Y0043615D02*
G03X0007992Y0043674I0000059J0000000D01*
G01X0003776Y0012868D02*
G03X0003894Y0012750I0000118J0000000D01*
Y0017750D02*
G03X0003776Y0017632I0000000J0000118D01*
G01X0009224D02*
G03X0009106Y0017750I0000118J0000000D01*
Y0012750D02*
G03X0009224Y0012868I0000000J0000118D01*
G01X0004386Y0011963D02*
G03X0004504Y0011845I0000118J0000000D01*
G01X0008496Y0011844D02*
G03X0008615Y0011963I0000000J0000119D01*
G01X0018827Y0031344D02*
G03X0018946Y0031463I0000000J0000119D01*
G01X0018945Y0037132D02*
G03X0018827Y0037250I0000118J0000000D01*
G01X0016173D02*
G03X0016055Y0037132I0000000J0000118D01*
Y0031463D02*
G03X0016173Y0031345I0000118J0000000D01*
G01X0018827Y0020844D02*
G03X0018946Y0020963I0000000J0000119D01*
G01X0018945Y0026632D02*
G03X0018827Y0026750I0000118J0000000D01*
G01X0016173D02*
G03X0016055Y0026632I0000000J0000118D01*
Y0020963D02*
G03X0016173Y0020845I0000118J0000000D01*
G01X0032026Y0012868D02*
G03X0032144Y0012750I0000118J0000000D01*
Y0017750D02*
G03X0032026Y0017632I0000000J0000118D01*
G01X0037474D02*
G03X0037356Y0017750I0000118J0000000D01*
Y0012750D02*
G03X0037474Y0012868I0000000J0000118D01*
G01X0032636Y0011963D02*
G03X0032754Y0011845I0000118J0000000D01*
G01X0036746Y0011844D02*
G03X0036865Y0011963I0000000J0000119D01*
G01X0027327Y0043496D02*
G03X0027386Y0043555I0000000J0000059D01*
G01X0026394D02*
G03X0026453Y0043496I0000059J0000000D01*
G01X0025660Y0044090D02*
G03X0025363Y0043793I0000000J0000297D01*
G01X0025788Y0043674D02*
G03X0025729Y0043615I0000000J0000059D01*
G01X0021240Y0042807D02*
G03X0021181Y0042748I0000000J0000059D01*
Y0038929D02*
G03X0021240Y0038870I0000059J0000000D01*
G01X0032539D02*
G03X0032598Y0038929I0000000J0000059D01*
Y0042748D02*
G03X0032539Y0042807I0000059J0000000D01*
G01X0028425Y0043793D02*
G03X0028128Y0044090I0000297J0000000D01*
G01X0028051Y0043615D02*
G03X0027992Y0043674I0000059J0000000D01*
G01X0024827Y0020844D02*
G03X0024946Y0020963I0000000J0000119D01*
G01X0024945Y0026632D02*
G03X0024827Y0026750I0000118J0000000D01*
G01X0022173D02*
G03X0022055Y0026632I0000000J0000118D01*
Y0020963D02*
G03X0022173Y0020845I0000118J0000000D01*
G01X0036577Y0031344D02*
G03X0036696Y0031463I0000000J0000119D01*
G01X0036695Y0037132D02*
G03X0036577Y0037250I0000118J0000000D01*
G01X0033923D02*
G03X0033805Y0037132I0000000J0000118D01*
Y0031463D02*
G03X0033923Y0031345I0000118J0000000D01*
G01X0007077Y0020844D02*
G03X0007196Y0020963I0000000J0000119D01*
G01X0007195Y0026632D02*
G03X0007077Y0026750I0000118J0000000D01*
G01X0004423D02*
G03X0004305Y0026632I0000000J0000118D01*
Y0020963D02*
G03X0004423Y0020845I0000118J0000000D01*
G01X0035427Y0002344D02*
G03X0035546Y0002463I0000000J0000119D01*
G01X0036136Y0003250D02*
G03X0036254Y0003368I0000000J0000118D01*
Y0008132D02*
G03X0036136Y0008250I0000118J0000000D01*
G01X0028364D02*
G03X0028246Y0008132I0000000J0000118D01*
Y0003368D02*
G03X0028364Y0003250I0000118J0000000D01*
G01X0028955Y0002463D02*
G03X0029073Y0002345I0000118J0000000D01*
G01X0022927Y0002344D02*
G03X0023046Y0002463I0000000J0000119D01*
G01X0023636Y0003250D02*
G03X0023754Y0003368I0000000J0000118D01*
Y0008132D02*
G03X0023636Y0008250I0000118J0000000D01*
G01X0015864D02*
G03X0015746Y0008132I0000000J0000118D01*
Y0003368D02*
G03X0015864Y0003250I0000118J0000000D01*
G01X0016455Y0002463D02*
G03X0016573Y0002345I0000118J0000000D01*
G54D23*
G01X0032126Y0036588D02*
X0032193Y0036642D01*
Y0036748D01*
X0032126Y0036802D01*
X0032059D01*
X0031926Y0036695D01*
X0031793Y0036802D01*
Y0036588D01*
X0031993Y0036188D02*
Y0036348D01*
X0031926Y0036402D01*
X0031859D01*
X0031793Y0036348D01*
Y0036188D01*
X0032193D01*
X0032059Y0035815D02*
X0032126D01*
X0032193Y0035842D01*
Y0035948D01*
X0032126Y0035975D01*
X0031793D01*
Y0036002D02*
Y0035895D01*
X0008243Y0036615D02*
Y0036775D01*
X0008309Y0036802D01*
X0008376D01*
X0008443Y0036775D01*
Y0036615D01*
X0008376Y0036588D01*
X0008309D01*
X0008043Y0036695D01*
X0008243Y0036188D02*
Y0036348D01*
X0008176Y0036402D01*
X0008109D01*
X0008043Y0036348D01*
Y0036188D01*
X0008443D01*
X0008309Y0035815D02*
X0008376D01*
X0008443Y0035842D01*
Y0035948D01*
X0008376Y0035975D01*
X0008043D01*
Y0036002D02*
Y0035895D01*
X0026193Y0036802D02*
Y0036588D01*
X0025926Y0036802D01*
X0025859D01*
X0025793Y0036775D01*
Y0036615D01*
X0025859Y0036588D01*
X0025993Y0036188D02*
Y0036348D01*
X0025926Y0036402D01*
X0025859D01*
X0025793Y0036348D01*
Y0036188D01*
X0026193D01*
X0026059Y0035815D02*
X0026126D01*
X0026193Y0035842D01*
Y0035948D01*
X0026126Y0035975D01*
X0025793D01*
Y0036002D02*
Y0035895D01*
X0014376Y0036588D02*
X0014443Y0036615D01*
Y0036775D01*
X0014376Y0036802D01*
X0014243D01*
X0014176Y0036748D01*
Y0036588D01*
X0014043D01*
Y0036802D01*
X0014243Y0036188D02*
Y0036348D01*
X0014176Y0036402D01*
X0014109D01*
X0014043Y0036348D01*
Y0036188D01*
X0014443D01*
X0014309Y0035815D02*
X0014376D01*
X0014443Y0035842D01*
Y0035948D01*
X0014376Y0035975D01*
X0014043D01*
Y0036002D02*
Y0035895D01*
X0037943Y0036748D02*
Y0036642D01*
Y0036695D02*
X0037543D01*
X0037609Y0036642D01*
X0037743Y0036188D02*
Y0036348D01*
X0037676Y0036402D01*
X0037609D01*
X0037543Y0036348D01*
Y0036188D01*
X0037943D01*
X0037809Y0035815D02*
X0037876D01*
X0037943Y0035842D01*
Y0035948D01*
X0037876Y0035975D01*
X0037543D01*
Y0036002D02*
Y0035895D01*
X0020309Y0036802D02*
Y0036588D01*
X0020043Y0036695D01*
Y0036748D01*
X0020443D01*
X0020243Y0036188D02*
Y0036348D01*
X0020176Y0036402D01*
X0020109D01*
X0020043Y0036348D01*
Y0036188D01*
X0020443D01*
X0020309Y0035815D02*
X0020376D01*
X0020443Y0035842D01*
Y0035948D01*
X0020376Y0035975D01*
X0020043D01*
Y0036002D02*
Y0035895D01*
X0014243Y0026525D02*
X0014176Y0026552D01*
X0014109D01*
X0014043Y0026525D01*
Y0026365D01*
X0014109Y0026338D01*
X0014176D01*
X0014243Y0026365D01*
Y0026525D01*
X0014309Y0026552D01*
X0014376D01*
X0014443Y0026525D01*
Y0026365D01*
X0014376Y0026338D01*
X0014309D01*
X0014243Y0026365D01*
Y0025938D02*
Y0026098D01*
X0014176Y0026152D01*
X0014109D01*
X0014043Y0026098D01*
Y0025938D01*
X0014443D01*
X0014309Y0025565D02*
X0014376D01*
X0014443Y0025592D01*
Y0025698D01*
X0014376Y0025725D01*
X0014043D01*
Y0025752D02*
Y0025645D01*
X0008443Y0026392D02*
X0008043Y0026552D01*
Y0026338D01*
X0008243Y0025938D02*
Y0026098D01*
X0008176Y0026152D01*
X0008109D01*
X0008043Y0026098D01*
Y0025938D01*
X0008443D01*
X0008309Y0025565D02*
X0008376D01*
X0008443Y0025592D01*
Y0025698D01*
X0008376Y0025725D01*
X0008043D01*
Y0025752D02*
Y0025645D01*
M02*
