*
G04 Mass Parameters ***
*
G04 Image ***
*
%IND:\UTENTI\00.LAVORI IN CORSO\METALTRONICA\22-314-0.DRD*%
%ICAS*%
%MOIN*%
%IPPOS*%
%ASAXBY*%
G74*%FSLAN2X34Y34*%
*
G04 Aperture Definitions ***
*
%ADD10C,0.0787*%
%ADD11C,0.0630*%
%ADD12C,0.0905*%
%ADD13C,0.0590*%
%ADD14C,0.0591*%
%ADD15C,0.0800*%
%ADD16C,0.2756*%
%ADD17C,0.0100*%
%ADD18C,0.0150*%
%ADD19C,0.0200*%
%ADD20C,0.0394*%
%ADD21C,0.0394*%
%ADD22C,0.0060*%
%ADD23C,0.0080*%
*
G04 Plot Data ***
*
G54D17*
G01X0024208Y-0021333D02*
X0023542D01*
X0024208Y-0020667D01*
Y-0020500D01*
X0024125Y-0020333D01*
X0023625D01*
X0023542Y-0020500D01*
X0022592Y-0021167D02*
X0022675Y-0021333D01*
X0023175D01*
X0023258Y-0021167D01*
Y-0020833D01*
X0023092Y-0020667D01*
X0022592D01*
Y-0020333D01*
X0023258D01*
X0022308Y-0021333D02*
X0021975D01*
X0022142D02*
Y-0020333D01*
X0021975Y-0020500D01*
X0011812Y-0021333D02*
X0011229D01*
Y-0020333D01*
X0010946Y-0021000D02*
X0010279D01*
X0010946Y-0021333D02*
Y-0020833D01*
X0010696Y-0020333D01*
X0010529D01*
X0010279Y-0020833D01*
Y-0021333D01*
X0009662D02*
Y-0020333D01*
X0009996D02*
X0009329D01*
X0008462Y-0021333D02*
X0008379Y-0021167D01*
Y-0020500D01*
X0008462Y-0020333D01*
X0008962D01*
X0009046Y-0020500D01*
Y-0021167D01*
X0008962Y-0021333D01*
X0008462D01*
X0007762D02*
Y-0020333D01*
X0008096D02*
X0007429D01*
X0023819Y-0019139D02*
X0024153D01*
X0024208Y-0019250D01*
Y-0019361D01*
X0024153Y-0019472D01*
X0023819D01*
X0023764Y-0019361D01*
Y-0019250D01*
X0023986Y-0018806D01*
X0010369Y-0019472D02*
Y-0019139D01*
X0010592Y-0019472D02*
Y-0019139D01*
X0010536Y-0019028D01*
X0010425D01*
X0010369Y-0019139D01*
X0010314Y-0019028D01*
X0010203D01*
X0010147Y-0019139D01*
Y-0019472D01*
X0009669D02*
Y-0019139D01*
X0009892Y-0019472D02*
Y-0019139D01*
X0009836Y-0019028D01*
X0009725D01*
X0009669Y-0019139D01*
X0009614Y-0019028D01*
X0009503D01*
X0009447Y-0019139D01*
Y-0019472D01*
X0007964D02*
X0007853Y-0019361D01*
X0007797Y-0019250D01*
Y-0019028D01*
X0007853Y-0018917D01*
X0007964Y-0018806D01*
X0008075D01*
X0008186Y-0018917D01*
X0008242Y-0019028D01*
Y-0019250D01*
X0008186Y-0019361D01*
X0008075Y-0019472D01*
X0007964D01*
X0007264D02*
X0007153Y-0019361D01*
X0007097Y-0019250D01*
Y-0019028D01*
X0007153Y-0018917D01*
X0007264Y-0018806D01*
X0007375D01*
X0007486Y-0018917D01*
X0007542Y-0019028D01*
Y-0019250D01*
X0007486Y-0019361D01*
X0007375Y-0019472D01*
X0007264D01*
X0006397Y-0019361D02*
X0006453Y-0019472D01*
X0006786D01*
X0006842Y-0019361D01*
Y-0019139D01*
X0006730Y-0019028D01*
X0006397D01*
Y-0018806D01*
X0006842D01*
X0006031Y-0019472D02*
X0006142D01*
Y-0019361D01*
X0006031D01*
Y-0019472D01*
X0005219Y-0019361D02*
X0005331Y-0019472D01*
X0005553D01*
X0005664Y-0019361D01*
Y-0019250D01*
X0005442Y-0019028D01*
X0005664Y-0018806D01*
X0005219D01*
X0032064Y-0017972D02*
Y-0017306D01*
X0032008Y-0017972D02*
X0032341D01*
X0032453Y-0017750D01*
Y-0017528D01*
X0032341Y-0017306D01*
X0032008D01*
X0031641Y-0017639D02*
X0031308D01*
X0031753Y-0017972D02*
X0031308D01*
Y-0017306D01*
X0031753D01*
X0030830Y-0017972D02*
Y-0017306D01*
X0031053D02*
X0030608D01*
X0030353Y-0017750D02*
X0029908D01*
X0030353Y-0017972D02*
Y-0017639D01*
X0030186Y-0017306D01*
X0030075D01*
X0029908Y-0017639D01*
Y-0017972D01*
X0029653D02*
X0029264D01*
Y-0017306D01*
X0028564Y-0017639D02*
X0028897D01*
X0029008Y-0017528D01*
Y-0017417D01*
X0028897Y-0017306D01*
X0028564D01*
Y-0017972D01*
X0028308Y-0017639D02*
X0027864D01*
X0027608Y-0017306D02*
Y-0017972D01*
X0027497Y-0017861D01*
X0027275Y-0017417D01*
X0027164Y-0017306D01*
Y-0017972D01*
X0026519D02*
X0026464Y-0017861D01*
Y-0017417D01*
X0026519Y-0017306D01*
X0026853D01*
X0026908Y-0017417D01*
Y-0017861D01*
X0026853Y-0017972D01*
X0026519D01*
X0026208Y-0017306D02*
Y-0017972D01*
X0026097Y-0017861D01*
X0025875Y-0017417D01*
X0025764Y-0017306D01*
Y-0017972D01*
X0024208D02*
X0023764D01*
X0024208Y-0017528D01*
Y-0017417D01*
X0024153Y-0017306D01*
X0023819D01*
X0023764Y-0017417D01*
X0010369Y-0017972D02*
Y-0017639D01*
X0010592Y-0017972D02*
Y-0017639D01*
X0010536Y-0017528D01*
X0010425D01*
X0010369Y-0017639D01*
X0010314Y-0017528D01*
X0010203D01*
X0010147Y-0017639D01*
Y-0017972D01*
X0009669D02*
Y-0017639D01*
X0009892Y-0017972D02*
Y-0017639D01*
X0009836Y-0017528D01*
X0009725D01*
X0009669Y-0017639D01*
X0009614Y-0017528D01*
X0009503D01*
X0009447Y-0017639D01*
Y-0017972D01*
X0007964D02*
X0007853Y-0017861D01*
X0007797Y-0017750D01*
Y-0017528D01*
X0007853Y-0017417D01*
X0007964Y-0017306D01*
X0008075D01*
X0008186Y-0017417D01*
X0008242Y-0017528D01*
Y-0017750D01*
X0008186Y-0017861D01*
X0008075Y-0017972D01*
X0007964D01*
X0007264D02*
X0007153Y-0017861D01*
X0007097Y-0017750D01*
Y-0017528D01*
X0007153Y-0017417D01*
X0007264Y-0017306D01*
X0007375D01*
X0007486Y-0017417D01*
X0007542Y-0017528D01*
Y-0017750D01*
X0007486Y-0017861D01*
X0007375Y-0017972D01*
X0007264D01*
X0006453Y-0017639D02*
X0006786D01*
X0006842Y-0017750D01*
Y-0017861D01*
X0006786Y-0017972D01*
X0006453D01*
X0006397Y-0017861D01*
Y-0017750D01*
X0006619Y-0017306D01*
X0006031Y-0017972D02*
X0006142D01*
Y-0017861D01*
X0006031D01*
Y-0017972D01*
X0005664D02*
X0005442D01*
X0005553D02*
Y-0017306D01*
X0005442Y-0017417D01*
X0032064Y-0016472D02*
Y-0015806D01*
X0032008Y-0016472D02*
X0032341D01*
X0032453Y-0016250D01*
Y-0016028D01*
X0032341Y-0015806D01*
X0032008D01*
X0031641Y-0016139D02*
X0031308D01*
X0031753Y-0016472D02*
X0031308D01*
Y-0015806D01*
X0031753D01*
X0030830Y-0016472D02*
Y-0015806D01*
X0031053D02*
X0030608D01*
X0030353Y-0016250D02*
X0029908D01*
X0030353Y-0016472D02*
Y-0016139D01*
X0030186Y-0015806D01*
X0030075D01*
X0029908Y-0016139D01*
Y-0016472D01*
X0029653D02*
X0029264D01*
Y-0015806D01*
X0028564Y-0016139D02*
X0028897D01*
X0029008Y-0016028D01*
Y-0015917D01*
X0028897Y-0015806D01*
X0028564D01*
Y-0016472D01*
X0028308Y-0016139D02*
X0027864D01*
X0027608Y-0015806D02*
Y-0016472D01*
X0027497Y-0016361D01*
X0027275Y-0015917D01*
X0027164Y-0015806D01*
Y-0016472D01*
X0026519D02*
X0026464Y-0016361D01*
Y-0015917D01*
X0026519Y-0015806D01*
X0026853D01*
X0026908Y-0015917D01*
Y-0016361D01*
X0026853Y-0016472D01*
X0026519D01*
X0026208Y-0015806D02*
Y-0016472D01*
X0026097Y-0016361D01*
X0025875Y-0015917D01*
X0025764Y-0015806D01*
Y-0016472D01*
X0024208Y-0016250D02*
X0023764D01*
X0023986Y-0015806D01*
X0024097D01*
Y-0016472D01*
X0023508D02*
X0023286D01*
X0023397D02*
Y-0015806D01*
X0023286Y-0015917D01*
X0010369Y-0016472D02*
Y-0016139D01*
X0010592Y-0016472D02*
Y-0016139D01*
X0010536Y-0016028D01*
X0010425D01*
X0010369Y-0016139D01*
X0010314Y-0016028D01*
X0010203D01*
X0010147Y-0016139D01*
Y-0016472D01*
X0009669D02*
Y-0016139D01*
X0009892Y-0016472D02*
Y-0016139D01*
X0009836Y-0016028D01*
X0009725D01*
X0009669Y-0016139D01*
X0009614Y-0016028D01*
X0009503D01*
X0009447Y-0016139D01*
Y-0016472D01*
X0007964D02*
X0007853Y-0016361D01*
X0007797Y-0016250D01*
Y-0016028D01*
X0007853Y-0015917D01*
X0007964Y-0015806D01*
X0008075D01*
X0008186Y-0015917D01*
X0008242Y-0016028D01*
Y-0016250D01*
X0008186Y-0016361D01*
X0008075Y-0016472D01*
X0007964D01*
X0007264D02*
X0007153Y-0016361D01*
X0007097Y-0016250D01*
Y-0016028D01*
X0007153Y-0015917D01*
X0007264Y-0015806D01*
X0007375D01*
X0007486Y-0015917D01*
X0007542Y-0016028D01*
Y-0016250D01*
X0007486Y-0016361D01*
X0007375Y-0016472D01*
X0007264D01*
X0006397Y-0016361D02*
X0006453Y-0016472D01*
X0006786D01*
X0006842Y-0016361D01*
Y-0016139D01*
X0006730Y-0016028D01*
X0006397D01*
Y-0015806D01*
X0006842D01*
X0006031Y-0016472D02*
X0006142D01*
Y-0016361D01*
X0006031D01*
Y-0016472D01*
X0005664D02*
X0005442D01*
X0005553D02*
Y-0015806D01*
X0005442Y-0015917D01*
X0023819Y-0014639D02*
X0024153D01*
X0024208Y-0014750D01*
Y-0014861D01*
X0024153Y-0014972D01*
X0023819D01*
X0023764Y-0014861D01*
Y-0014750D01*
X0023986Y-0014306D01*
X0023064Y-0014861D02*
X0023119Y-0014972D01*
X0023453D01*
X0023508Y-0014861D01*
Y-0014639D01*
X0023397Y-0014528D01*
X0023064D01*
Y-0014306D01*
X0023508D01*
X0010369Y-0014972D02*
Y-0014639D01*
X0010592Y-0014972D02*
Y-0014639D01*
X0010536Y-0014528D01*
X0010425D01*
X0010369Y-0014639D01*
X0010314Y-0014528D01*
X0010203D01*
X0010147Y-0014639D01*
Y-0014972D01*
X0009669D02*
Y-0014639D01*
X0009892Y-0014972D02*
Y-0014639D01*
X0009836Y-0014528D01*
X0009725D01*
X0009669Y-0014639D01*
X0009614Y-0014528D01*
X0009503D01*
X0009447Y-0014639D01*
Y-0014972D01*
X0007964D02*
X0007853Y-0014861D01*
X0007797Y-0014750D01*
Y-0014528D01*
X0007853Y-0014417D01*
X0007964Y-0014306D01*
X0008075D01*
X0008186Y-0014417D01*
X0008242Y-0014528D01*
Y-0014750D01*
X0008186Y-0014861D01*
X0008075Y-0014972D01*
X0007964D01*
X0007264D02*
X0007153Y-0014861D01*
X0007097Y-0014750D01*
Y-0014528D01*
X0007153Y-0014417D01*
X0007264Y-0014306D01*
X0007375D01*
X0007486Y-0014417D01*
X0007542Y-0014528D01*
Y-0014750D01*
X0007486Y-0014861D01*
X0007375Y-0014972D01*
X0007264D01*
X0006397Y-0014861D02*
X0006508Y-0014972D01*
X0006730D01*
X0006842Y-0014861D01*
Y-0014750D01*
X0006619Y-0014528D01*
X0006842Y-0014306D01*
X0006397D01*
X0006031Y-0014972D02*
X0006142D01*
Y-0014861D01*
X0006031D01*
Y-0014972D01*
X0005664D02*
X0005442D01*
X0005553D02*
Y-0014306D01*
X0005442Y-0014417D01*
X0024153Y-0013139D02*
X0024208Y-0013028D01*
Y-0012917D01*
X0024153Y-0012806D01*
X0023819D01*
X0023764Y-0012917D01*
Y-0013028D01*
X0023819Y-0013139D01*
X0024153D01*
X0024208Y-0013250D01*
Y-0013361D01*
X0024153Y-0013472D01*
X0023819D01*
X0023764Y-0013361D01*
Y-0013250D01*
X0023819Y-0013139D01*
X0023508Y-0013250D02*
X0023064D01*
X0023286Y-0012806D01*
X0023397D01*
Y-0013472D01*
X0010369D02*
Y-0013139D01*
X0010592Y-0013472D02*
Y-0013139D01*
X0010536Y-0013028D01*
X0010425D01*
X0010369Y-0013139D01*
X0010314Y-0013028D01*
X0010203D01*
X0010147Y-0013139D01*
Y-0013472D01*
X0009669D02*
Y-0013139D01*
X0009892Y-0013472D02*
Y-0013139D01*
X0009836Y-0013028D01*
X0009725D01*
X0009669Y-0013139D01*
X0009614Y-0013028D01*
X0009503D01*
X0009447Y-0013139D01*
Y-0013472D01*
X0007964D02*
X0007853Y-0013361D01*
X0007797Y-0013250D01*
Y-0013028D01*
X0007853Y-0012917D01*
X0007964Y-0012806D01*
X0008075D01*
X0008186Y-0012917D01*
X0008242Y-0013028D01*
Y-0013250D01*
X0008186Y-0013361D01*
X0008075Y-0013472D01*
X0007964D01*
X0007264D02*
X0007153Y-0013361D01*
X0007097Y-0013250D01*
Y-0013028D01*
X0007153Y-0012917D01*
X0007264Y-0012806D01*
X0007375D01*
X0007486Y-0012917D01*
X0007542Y-0013028D01*
Y-0013250D01*
X0007486Y-0013361D01*
X0007375Y-0013472D01*
X0007264D01*
X0006842D02*
X0006619D01*
X0006730D02*
Y-0012806D01*
X0006619Y-0012917D01*
X0006142Y-0013472D02*
X0006253D01*
Y-0013361D01*
X0006142D01*
Y-0013472D01*
X0005775D02*
X0005553D01*
X0005664D02*
Y-0012806D01*
X0005553Y-0012917D01*
X0023930Y-0011972D02*
X0023819Y-0011861D01*
X0023764Y-0011750D01*
Y-0011528D01*
X0023819Y-0011417D01*
X0023930Y-0011306D01*
X0024042D01*
X0024153Y-0011417D01*
X0024208Y-0011528D01*
Y-0011750D01*
X0024153Y-0011861D01*
X0024042Y-0011972D01*
X0023930D01*
X0023508D02*
X0023286D01*
X0023397D02*
Y-0011306D01*
X0023286Y-0011417D01*
X0010369Y-0011972D02*
Y-0011639D01*
X0010592Y-0011972D02*
Y-0011639D01*
X0010536Y-0011528D01*
X0010425D01*
X0010369Y-0011639D01*
X0010314Y-0011528D01*
X0010203D01*
X0010147Y-0011639D01*
Y-0011972D01*
X0009669D02*
Y-0011639D01*
X0009892Y-0011972D02*
Y-0011639D01*
X0009836Y-0011528D01*
X0009725D01*
X0009669Y-0011639D01*
X0009614Y-0011528D01*
X0009503D01*
X0009447Y-0011639D01*
Y-0011972D01*
X0007964D02*
X0007853Y-0011861D01*
X0007797Y-0011750D01*
Y-0011528D01*
X0007853Y-0011417D01*
X0007964Y-0011306D01*
X0008075D01*
X0008186Y-0011417D01*
X0008242Y-0011528D01*
Y-0011750D01*
X0008186Y-0011861D01*
X0008075Y-0011972D01*
X0007964D01*
X0007264D02*
X0007153Y-0011861D01*
X0007097Y-0011750D01*
Y-0011528D01*
X0007153Y-0011417D01*
X0007264Y-0011306D01*
X0007375D01*
X0007486Y-0011417D01*
X0007542Y-0011528D01*
Y-0011750D01*
X0007486Y-0011861D01*
X0007375Y-0011972D01*
X0007264D01*
X0006786Y-0011639D02*
X0006842Y-0011528D01*
Y-0011417D01*
X0006786Y-0011306D01*
X0006453D01*
X0006397Y-0011417D01*
Y-0011528D01*
X0006453Y-0011639D01*
X0006786D01*
X0006842Y-0011750D01*
Y-0011861D01*
X0006786Y-0011972D01*
X0006453D01*
X0006397Y-0011861D01*
Y-0011750D01*
X0006453Y-0011639D01*
X0006031Y-0011972D02*
X0006142D01*
Y-0011861D01*
X0006031D01*
Y-0011972D01*
X0005386D02*
X0005275Y-0011861D01*
X0005219Y-0011750D01*
Y-0011528D01*
X0005275Y-0011417D01*
X0005386Y-0011306D01*
X0005497D01*
X0005608Y-0011417D01*
X0005664Y-0011528D01*
Y-0011750D01*
X0005608Y-0011861D01*
X0005497Y-0011972D01*
X0005386D01*
X0023819Y-0010139D02*
X0024153D01*
X0024208Y-0010250D01*
Y-0010361D01*
X0024153Y-0010472D01*
X0023819D01*
X0023764Y-0010361D01*
Y-0010250D01*
X0023986Y-0009806D01*
X0023508Y-0010472D02*
X0023286D01*
X0023397D02*
Y-0009806D01*
X0023286Y-0009917D01*
X0010369Y-0010472D02*
Y-0010139D01*
X0010592Y-0010472D02*
Y-0010139D01*
X0010536Y-0010028D01*
X0010425D01*
X0010369Y-0010139D01*
X0010314Y-0010028D01*
X0010203D01*
X0010147Y-0010139D01*
Y-0010472D01*
X0009669D02*
Y-0010139D01*
X0009892Y-0010472D02*
Y-0010139D01*
X0009836Y-0010028D01*
X0009725D01*
X0009669Y-0010139D01*
X0009614Y-0010028D01*
X0009503D01*
X0009447Y-0010139D01*
Y-0010472D01*
X0007964D02*
X0007853Y-0010361D01*
X0007797Y-0010250D01*
Y-0010028D01*
X0007853Y-0009917D01*
X0007964Y-0009806D01*
X0008075D01*
X0008186Y-0009917D01*
X0008242Y-0010028D01*
Y-0010250D01*
X0008186Y-0010361D01*
X0008075Y-0010472D01*
X0007964D01*
X0007264D02*
X0007153Y-0010361D01*
X0007097Y-0010250D01*
Y-0010028D01*
X0007153Y-0009917D01*
X0007264Y-0009806D01*
X0007375D01*
X0007486Y-0009917D01*
X0007542Y-0010028D01*
Y-0010250D01*
X0007486Y-0010361D01*
X0007375Y-0010472D01*
X0007264D01*
X0006397Y-0010361D02*
X0006508Y-0010472D01*
X0006730D01*
X0006842Y-0010361D01*
Y-0010250D01*
X0006619Y-0010028D01*
X0006842Y-0009806D01*
X0006397D01*
X0006031Y-0010472D02*
X0006142D01*
Y-0010361D01*
X0006031D01*
Y-0010472D01*
X0005386D02*
X0005275Y-0010361D01*
X0005219Y-0010250D01*
Y-0010028D01*
X0005275Y-0009917D01*
X0005386Y-0009806D01*
X0005497D01*
X0005608Y-0009917D01*
X0005664Y-0010028D01*
Y-0010250D01*
X0005608Y-0010361D01*
X0005497Y-0010472D01*
X0005386D01*
X0032612Y-0008333D02*
X0032112D01*
X0032779Y-0008833D02*
X0032112D01*
Y-0007833D01*
X0032779D01*
X0031496Y-0008833D02*
Y-0007833D01*
X0031829D02*
X0031162D01*
X0030296Y-0008833D02*
X0030212Y-0008667D01*
Y-0008000D01*
X0030296Y-0007833D01*
X0030796D01*
X0030879Y-0008000D01*
Y-0008667D01*
X0030796Y-0008833D01*
X0030296D01*
X0029929Y-0007833D02*
Y-0008833D01*
X0029762Y-0008667D01*
X0029429Y-0008000D01*
X0029262Y-0007833D01*
Y-0008833D01*
X0023425D02*
Y-0008333D01*
X0023758Y-0007833D02*
X0023508Y-0008333D01*
X0023342D01*
X0023092Y-0007833D01*
X0022475Y-0008833D02*
Y-0007833D01*
X0022808D02*
X0022142D01*
X0021525Y-0008500D02*
X0021858Y-0008833D01*
X0021192Y-0008667D02*
X0021275Y-0008833D01*
X0021608D01*
X0021692Y-0008667D01*
X0021858Y-0008500D01*
Y-0008000D01*
X0021775Y-0007833D01*
X0021275D01*
X0021192Y-0008000D01*
Y-0008667D01*
X0016908Y-0008833D02*
X0016325D01*
Y-0007833D01*
X0015458Y-0008833D02*
X0015375Y-0008667D01*
Y-0008000D01*
X0015458Y-0007833D01*
X0015958D01*
X0016042Y-0008000D01*
Y-0008667D01*
X0015958Y-0008833D01*
X0015458D01*
X0014758D02*
Y-0007833D01*
X0015092D02*
X0014425D01*
X0009087Y-0008833D02*
Y-0007833D01*
X0008921Y-0008000D01*
X0008754Y-0008333D01*
X0008587Y-0008000D01*
X0008421Y-0007833D01*
Y-0008833D01*
X0008137Y-0008500D02*
X0007471D01*
X0008137Y-0008833D02*
Y-0008333D01*
X0007887Y-0007833D01*
X0007721D01*
X0007471Y-0008333D01*
Y-0008833D01*
X0007187D02*
X0006854D01*
X0007021D02*
Y-0007833D01*
X0007187D02*
X0006854D01*
X0005821Y-0008833D02*
Y-0007833D01*
X0005737Y-0008833D02*
X0006237D01*
X0006404Y-0008500D01*
Y-0008167D01*
X0006237Y-0007833D01*
X0005737D01*
X0002650Y-0008833D02*
Y-0007833D01*
X0002483Y-0008000D01*
X0002317Y-0008333D01*
X0002150Y-0008000D01*
X0001983Y-0007833D01*
Y-0008833D01*
X0001367D02*
Y-0008333D01*
X0001700Y-0007833D02*
X0001450Y-0008333D01*
X0001283D01*
X0001033Y-0007833D01*
X0000750Y-0008000D02*
X0000667Y-0007833D01*
X0000167D01*
X0000083Y-0008000D01*
Y-0008167D01*
X0000167Y-0008333D01*
X0000667D01*
X0000750Y-0008500D01*
Y-0008667D01*
X0000667Y-0008833D01*
X0000167D01*
X0000083Y-0008667D01*
X0022937Y-0006833D02*
Y-0005833D01*
X0023271D02*
X0022604D01*
X0022071Y-0006333D02*
X0022321Y-0006833D01*
X0021654Y-0006333D02*
X0022154D01*
X0022321Y-0006167D01*
Y-0006000D01*
X0022154Y-0005833D01*
X0021654D01*
Y-0006833D01*
X0021371Y-0006500D02*
X0020704D01*
X0021371Y-0006833D02*
Y-0006333D01*
X0021121Y-0005833D01*
X0020954D01*
X0020704Y-0006333D01*
Y-0006833D01*
X0020421Y-0006333D02*
X0019754D01*
X0020421Y-0006833D02*
Y-0005833D01*
X0019754Y-0006833D02*
Y-0005833D01*
X0019471Y-0006667D02*
X0019387Y-0006833D01*
X0018887D01*
X0018804Y-0006667D01*
Y-0006000D01*
X0018887Y-0005833D01*
X0019387D01*
X0019471Y-0006000D01*
X0017196Y-0006833D02*
X0016612D01*
Y-0005833D01*
X0016329Y-0006833D02*
X0015746D01*
Y-0005833D01*
X0015462Y-0006833D02*
X0015129D01*
X0015296D02*
Y-0005833D01*
X0015462D02*
X0015129D01*
X0014429Y-0006333D02*
X0014679Y-0006833D01*
X0014012Y-0006333D02*
X0014512D01*
X0014679Y-0006167D01*
Y-0006000D01*
X0014512Y-0005833D01*
X0014012D01*
Y-0006833D01*
X0013146D02*
Y-0005833D01*
X0013062Y-0006833D02*
X0013562D01*
X0013729Y-0006500D01*
Y-0006167D01*
X0013562Y-0005833D01*
X0013062D01*
X0011100Y0019550D02*
X0010850Y0019300D01*
X0011350D02*
X0011100Y0019550D01*
X0010850Y0019300D02*
X0011350D01*
X0023970Y0019550D02*
X0023720Y0019300D01*
X0024220D02*
X0023970Y0019550D01*
X0023720Y0019300D02*
X0024220D01*
X0020300Y0038450D02*
X0020050Y0038200D01*
X0020550D02*
X0020300Y0038450D01*
X0020050Y0038200D02*
X0020550D01*
X0000400Y0016650D02*
X0000150Y0016400D01*
X0000650D02*
X0000400Y0016650D01*
X0000150Y0016400D02*
X0000650D01*
X0000100Y0041150D02*
X-0000150Y0040900D01*
X0000350D02*
X0000100Y0041150D01*
X-0000150Y0040900D02*
X0000350D01*
X0011200Y0020150D02*
X0010950Y0019900D01*
X0011450D02*
X0011200Y0020150D01*
X0010950Y0019900D02*
X0011450D01*
X0026600Y0020150D02*
X0026350Y0019900D01*
X0026850D02*
X0026600Y0020150D01*
X0026350Y0019900D02*
X0026850D01*
X0015000Y0038050D02*
X0014750Y0037800D01*
X0015250D02*
X0015000Y0038050D01*
X0014750Y0037800D02*
X0015250D01*
X0023970Y0019550D02*
X0023720Y0019300D01*
X0024220D02*
X0023970Y0019550D01*
X0023720Y0019300D02*
X0024220D01*
X0012300Y0027450D02*
X0012050Y0027200D01*
X0012550D02*
X0012300Y0027450D01*
X0012050Y0027200D02*
X0012550D01*
X0021200Y0024150D02*
X0020950Y0023900D01*
X0021450D02*
X0021200Y0024150D01*
X0020950Y0023900D02*
X0021450D01*
X0025700Y0026450D02*
X0025450Y0026200D01*
X0025950D02*
X0025700Y0026450D01*
X0025450Y0026200D02*
X0025950D01*
X0025700Y0025050D02*
X0025450Y0024800D01*
X0025950D02*
X0025700Y0025050D01*
X0025450Y0024800D02*
X0025950D01*
X0022100Y0020750D02*
X0021850Y0020500D01*
X0022350D02*
X0022100Y0020750D01*
X0021850Y0020500D02*
X0022350D01*
X0023500Y0030250D02*
X0023250Y0030000D01*
X0023750D02*
X0023500Y0030250D01*
X0023250Y0030000D02*
X0023750D01*
X0033000Y0030250D02*
X0032750Y0030000D01*
X0033250D02*
X0033000Y0030250D01*
X0032750Y0030000D02*
X0033250D01*
X0010334Y0027915D02*
X0010084Y0027665D01*
X0010584D02*
X0010334Y0027915D01*
X0010084Y0027665D02*
X0010584D01*
X0001075Y-0019150D02*
Y-0019350D01*
X0001225Y-0019000D02*
X0001075Y-0019150D01*
X0001425Y-0019000D02*
X0001225D01*
X0001575Y-0019150D02*
X0001425Y-0019000D01*
X0001575Y-0019350D02*
Y-0019150D01*
X0001425Y-0019500D02*
X0001575Y-0019350D01*
X0001225Y-0019500D02*
X0001425D01*
X0001075Y-0019350D02*
X0001225Y-0019500D01*
X0001075Y-0017500D02*
Y-0018000D01*
X0001575Y-0017500D02*
X0001075D01*
X0001575Y-0018000D02*
Y-0017500D01*
X0001075Y-0018000D02*
X0001575D01*
Y-0017750D02*
X0001075D01*
X0001325Y-0017500D02*
Y-0018000D01*
X0001575Y-0016250D02*
X0001075D01*
X0001325Y-0016000D02*
Y-0016500D01*
X0001075Y-0014500D02*
Y-0015000D01*
X0001575Y-0014500D02*
X0001075D01*
X0001575Y-0015000D02*
Y-0014500D01*
X0001075Y-0015000D02*
X0001575D01*
Y-0014500D02*
X0001075Y-0015000D01*
X0001575D02*
X0001075Y-0014500D01*
X0001325Y-0013000D02*
X0001075Y-0013250D01*
X0001575D02*
X0001325Y-0013000D01*
Y-0013500D02*
X0001575Y-0013250D01*
X0001075D02*
X0001325Y-0013500D01*
X0001575Y-0011500D02*
X0001075Y-0012000D01*
X0001575D02*
X0001075Y-0011500D01*
X0001325Y-0010100D02*
X0001075Y-0010350D01*
X0001575D02*
X0001325Y-0010100D01*
X0001075Y-0010350D02*
X0001575D01*
X0036800Y-0022050D02*
X-0000550D01*
X0036750Y-0022000D02*
X-0000500D01*
X0036750Y-0020000D02*
X-0000500D01*
X0036750Y-0018500D02*
X-0000500D01*
X0036750Y-0017000D02*
X-0000500D01*
X0036750Y-0015500D02*
X-0000500D01*
X0036750Y-0014000D02*
X-0000500D01*
X0036750Y-0012500D02*
X-0000500D01*
X0036750Y-0011000D02*
X-0000500D01*
X0036750Y-0009500D02*
X-0000500D01*
X0036750Y-0009450D02*
X-0000500D01*
X0036750Y-0007500D02*
X-0000500D01*
X0036750Y-0007450D02*
X-0000500D01*
X0036750Y-0005500D02*
X-0000500D01*
X0036800Y-0005450D02*
X-0000550D01*
X0036800Y-0022000D02*
Y-0005500D01*
X0036750Y-0022000D02*
Y-0005500D01*
X0025208Y-0022000D02*
Y-0007500D01*
X0019658Y-0022000D02*
Y-0007500D01*
X0011592Y-0020000D02*
Y-0007500D01*
X0003200Y-0020000D02*
Y-0007500D01*
X0003150Y-0020000D02*
Y-0007500D01*
X-0000550Y-0022000D02*
Y-0005500D01*
X-0000500Y-0022000D02*
Y-0005500D01*
X-0001181Y-0001968D02*
X0038583D01*
X0039370Y-0001181D02*
Y0044488D01*
X0038583Y0045276D02*
X-0001181D01*
X-0001968Y0044488D02*
Y-0001181D01*
X0037151Y0000100D02*
Y-0000100D01*
X0037301Y0000250D02*
X0037151Y0000100D01*
X0037501Y0000250D02*
X0037301D01*
X0037651Y0000100D02*
X0037501Y0000250D01*
X0037651Y-0000100D02*
Y0000100D01*
X0037501Y-0000250D02*
X0037651Y-0000100D01*
X0037301Y-0000250D02*
X0037501D01*
X0037151Y-0000100D02*
X0037301Y-0000250D01*
X0035970Y0041045D02*
Y0040845D01*
X0036120Y0041195D02*
X0035970Y0041045D01*
X0036320Y0041195D02*
X0036120D01*
X0036470Y0041045D02*
X0036320Y0041195D01*
X0036470Y0040845D02*
Y0041045D01*
X0036320Y0040695D02*
X0036470Y0040845D01*
X0036120Y0040695D02*
X0036320D01*
X0035970Y0040845D02*
X0036120Y0040695D01*
X0028490Y0025690D02*
Y0025490D01*
X0028640Y0025840D02*
X0028490Y0025690D01*
X0028840Y0025840D02*
X0028640D01*
X0028990Y0025690D02*
X0028840Y0025840D01*
X0028990Y0025490D02*
Y0025690D01*
X0028840Y0025340D02*
X0028990Y0025490D01*
X0028640Y0025340D02*
X0028840D01*
X0028490Y0025490D02*
X0028640Y0025340D01*
X0010774Y0015061D02*
Y0014861D01*
X0010924Y0015211D02*
X0010774Y0015061D01*
X0011124Y0015211D02*
X0010924D01*
X0011274Y0015061D02*
X0011124Y0015211D01*
X0011274Y0014861D02*
Y0015061D01*
X0011124Y0014711D02*
X0011274Y0014861D01*
X0010924Y0014711D02*
X0011124D01*
X0010774Y0014861D02*
X0010924Y0014711D01*
X-0000250Y0035927D02*
Y0035727D01*
X-0000100Y0036077D02*
X-0000250Y0035927D01*
X0000100Y0036077D02*
X-0000100D01*
X0000250Y0035927D02*
X0000100Y0036077D01*
X0000250Y0035727D02*
Y0035927D01*
X0000100Y0035577D02*
X0000250Y0035727D01*
X-0000100Y0035577D02*
X0000100D01*
X-0000250Y0035727D02*
X-0000100Y0035577D01*
X-0000250Y0000100D02*
Y-0000100D01*
X-0000100Y0000250D02*
X-0000250Y0000100D01*
X0000100Y0000250D02*
X-0000100D01*
X0000250Y0000100D02*
X0000100Y0000250D01*
X0000250Y-0000100D02*
Y0000100D01*
X0000100Y-0000250D02*
X0000250Y-0000100D01*
X-0000100Y-0000250D02*
X0000100D01*
X-0000250Y-0000100D02*
X-0000100Y-0000250D01*
X0014250Y0024000D02*
X0014000Y0023750D01*
X0014500D02*
X0014250Y0024000D01*
Y0023500D02*
X0014500Y0023750D01*
X0014000D02*
X0014250Y0023500D01*
Y0025000D02*
X0014000Y0024750D01*
X0014500D02*
X0014250Y0025000D01*
Y0024500D02*
X0014500Y0024750D01*
X0014000D02*
X0014250Y0024500D01*
X0008250Y0024000D02*
X0008000Y0023750D01*
X0008500D02*
X0008250Y0024000D01*
Y0023500D02*
X0008500Y0023750D01*
X0008000D02*
X0008250Y0023500D01*
Y0025000D02*
X0008000Y0024750D01*
X0008500D02*
X0008250Y0025000D01*
Y0024500D02*
X0008500Y0024750D01*
X0008000D02*
X0008250Y0024500D01*
Y0034250D02*
X0008000Y0034000D01*
X0008500D02*
X0008250Y0034250D01*
Y0033750D02*
X0008500Y0034000D01*
X0008000D02*
X0008250Y0033750D01*
Y0035250D02*
X0008000Y0035000D01*
X0008500D02*
X0008250Y0035250D01*
Y0034750D02*
X0008500Y0035000D01*
X0008000D02*
X0008250Y0034750D01*
X0014250Y0034250D02*
X0014000Y0034000D01*
X0014500D02*
X0014250Y0034250D01*
Y0033750D02*
X0014500Y0034000D01*
X0014000D02*
X0014250Y0033750D01*
Y0035250D02*
X0014000Y0035000D01*
X0014500D02*
X0014250Y0035250D01*
Y0034750D02*
X0014500Y0035000D01*
X0014000D02*
X0014250Y0034750D01*
X0020250Y0034250D02*
X0020000Y0034000D01*
X0020500D02*
X0020250Y0034250D01*
Y0033750D02*
X0020500Y0034000D01*
X0020000D02*
X0020250Y0033750D01*
Y0035250D02*
X0020000Y0035000D01*
X0020500D02*
X0020250Y0035250D01*
Y0034750D02*
X0020500Y0035000D01*
X0020000D02*
X0020250Y0034750D01*
X0032000Y0034250D02*
X0031750Y0034000D01*
X0032250D02*
X0032000Y0034250D01*
Y0033750D02*
X0032250Y0034000D01*
X0031750D02*
X0032000Y0033750D01*
Y0035250D02*
X0031750Y0035000D01*
X0032250D02*
X0032000Y0035250D01*
Y0034750D02*
X0032250Y0035000D01*
X0031750D02*
X0032000Y0034750D01*
X0026000Y0034250D02*
X0025750Y0034000D01*
X0026250D02*
X0026000Y0034250D01*
Y0033750D02*
X0026250Y0034000D01*
X0025750D02*
X0026000Y0033750D01*
Y0035250D02*
X0025750Y0035000D01*
X0026250D02*
X0026000Y0035250D01*
Y0034750D02*
X0026250Y0035000D01*
X0025750D02*
X0026000Y0034750D01*
X0037750Y0034250D02*
X0037500Y0034000D01*
X0038000D02*
X0037750Y0034250D01*
Y0033750D02*
X0038000Y0034000D01*
X0037500D02*
X0037750Y0033750D01*
Y0035250D02*
X0037500Y0035000D01*
X0038000D02*
X0037750Y0035250D01*
Y0034750D02*
X0038000Y0035000D01*
X0037500D02*
X0037750Y0034750D01*
X0026925Y0021856D02*
X0026425Y0021356D01*
X0026925D02*
X0026425Y0021856D01*
X0027713D02*
X0027213Y0021356D01*
X0027713D02*
X0027213Y0021856D01*
X0028500D02*
X0028000Y0021356D01*
X0028500D02*
X0028000Y0021856D01*
X0029287D02*
X0028787Y0021356D01*
X0029287D02*
X0028787Y0021856D01*
X0030075D02*
X0029575Y0021356D01*
X0030075D02*
X0029575Y0021856D01*
X0030075Y0022643D02*
X0029575Y0022143D01*
X0030075D02*
X0029575Y0022643D01*
X0029287D02*
X0028787Y0022143D01*
X0029287D02*
X0028787Y0022643D01*
X0028500D02*
X0028000Y0022143D01*
X0028500D02*
X0028000Y0022643D01*
X0027713D02*
X0027213Y0022143D01*
X0027713D02*
X0027213Y0022643D01*
X0026925D02*
X0026425Y0022143D01*
X0026925D02*
X0026425Y0022643D01*
X0023250Y0023220D02*
Y0022720D01*
X0023750Y0023220D02*
X0023250D01*
X0023750Y0022720D02*
Y0023220D01*
X0023250Y0022720D02*
X0023750D01*
Y0023220D02*
X0023250Y0022720D01*
X0023750D02*
X0023250Y0023220D01*
X0024900Y0026455D02*
X0024400D01*
X0024650Y0026705D02*
Y0026205D01*
X0023250Y0025779D02*
Y0025279D01*
X0023750Y0025779D02*
X0023250D01*
X0023750Y0025279D02*
Y0025779D01*
X0023250Y0025279D02*
X0023750D01*
Y0025779D02*
X0023250Y0025279D01*
X0023750D02*
X0023250Y0025779D01*
X0010000Y0004720D02*
Y0004220D01*
X0010500Y0004720D02*
X0010000D01*
X0010500Y0004220D02*
Y0004720D01*
X0010000Y0004220D02*
X0010500D01*
Y0004720D02*
X0010000Y0004220D01*
X0010500D02*
X0010000Y0004720D01*
X0011650Y0007955D02*
X0011150D01*
X0011400Y0008205D02*
Y0007705D01*
X0010000Y0007279D02*
Y0006779D01*
X0010500Y0007279D02*
X0010000D01*
X0010500Y0006779D02*
Y0007279D01*
X0010000Y0006779D02*
X0010500D01*
Y0007279D02*
X0010000Y0006779D01*
X0010500D02*
X0010000Y0007279D01*
X0017250Y0023220D02*
Y0022720D01*
X0017750Y0023220D02*
X0017250D01*
X0017750Y0022720D02*
Y0023220D01*
X0017250Y0022720D02*
X0017750D01*
Y0023220D02*
X0017250Y0022720D01*
X0017750D02*
X0017250Y0023220D01*
X0018900Y0026455D02*
X0018400D01*
X0018650Y0026705D02*
Y0026205D01*
X0017250Y0025779D02*
Y0025279D01*
X0017750Y0025779D02*
X0017250D01*
X0017750Y0025279D02*
Y0025779D01*
X0017250Y0025279D02*
X0017750D01*
Y0025779D02*
X0017250Y0025279D01*
X0017750D02*
X0017250Y0025779D01*
X0005000Y0004720D02*
Y0004220D01*
X0005500Y0004720D02*
X0005000D01*
X0005500Y0004220D02*
Y0004720D01*
X0005000Y0004220D02*
X0005500D01*
Y0004720D02*
X0005000Y0004220D01*
X0005500D02*
X0005000Y0004720D01*
X0006650Y0007955D02*
X0006150D01*
X0006400Y0008205D02*
Y0007705D01*
X0005000Y0007279D02*
Y0006779D01*
X0005500Y0007279D02*
X0005000D01*
X0005500Y0006779D02*
Y0007279D01*
X0005000Y0006779D02*
X0005500D01*
Y0007279D02*
X0005000Y0006779D01*
X0005500D02*
X0005000Y0007279D01*
X0033220Y0023220D02*
Y0022720D01*
X0033720Y0023220D02*
X0033220D01*
X0033720Y0022720D02*
Y0023220D01*
X0033220Y0022720D02*
X0033720D01*
Y0023220D02*
X0033220Y0022720D01*
X0033720D02*
X0033220Y0023220D01*
X0035779D02*
Y0022720D01*
X0036279Y0023220D02*
X0035779D01*
X0036279Y0022720D02*
Y0023220D01*
X0035779Y0022720D02*
X0036279D01*
Y0023220D02*
X0035779Y0022720D01*
X0036279D02*
X0035779Y0023220D01*
Y0025779D02*
Y0025279D01*
X0036279Y0025779D02*
X0035779D01*
X0036279Y0025279D02*
Y0025779D01*
X0035779Y0025279D02*
X0036279D01*
Y0025779D02*
X0035779Y0025279D01*
X0036279D02*
X0035779Y0025779D01*
X0033220D02*
Y0025279D01*
X0033720Y0025779D02*
X0033220D01*
X0033720Y0025279D02*
Y0025779D01*
X0033220Y0025279D02*
X0033720D01*
Y0025779D02*
X0033220Y0025279D01*
X0033720D02*
X0033220Y0025779D01*
X0014220Y0014220D02*
Y0013720D01*
X0014720Y0014220D02*
X0014220D01*
X0014720Y0013720D02*
Y0014220D01*
X0014220Y0013720D02*
X0014720D01*
Y0014220D02*
X0014220Y0013720D01*
X0014720D02*
X0014220Y0014220D01*
X0016779D02*
Y0013720D01*
X0017279Y0014220D02*
X0016779D01*
X0017279Y0013720D02*
Y0014220D01*
X0016779Y0013720D02*
X0017279D01*
Y0014220D02*
X0016779Y0013720D01*
X0017279D02*
X0016779Y0014220D01*
Y0016779D02*
Y0016279D01*
X0017279Y0016779D02*
X0016779D01*
X0017279Y0016279D02*
Y0016779D01*
X0016779Y0016279D02*
X0017279D01*
Y0016779D02*
X0016779Y0016279D01*
X0017279D02*
X0016779Y0016779D01*
X0014220D02*
Y0016279D01*
X0014720Y0016779D02*
X0014220D01*
X0014720Y0016279D02*
Y0016779D01*
X0014220Y0016279D02*
X0014720D01*
Y0016779D02*
X0014220Y0016279D01*
X0014720D02*
X0014220Y0016779D01*
X0004970Y0014220D02*
Y0013720D01*
X0005470Y0014220D02*
X0004970D01*
X0005470Y0013720D02*
Y0014220D01*
X0004970Y0013720D02*
X0005470D01*
Y0014220D02*
X0004970Y0013720D01*
X0005470D02*
X0004970Y0014220D01*
X0007529D02*
Y0013720D01*
X0008029Y0014220D02*
X0007529D01*
X0008029Y0013720D02*
Y0014220D01*
X0007529Y0013720D02*
X0008029D01*
Y0014220D02*
X0007529Y0013720D01*
X0008029D02*
X0007529Y0014220D01*
Y0016779D02*
Y0016279D01*
X0008029Y0016779D02*
X0007529D01*
X0008029Y0016279D02*
Y0016779D01*
X0007529Y0016279D02*
X0008029D01*
Y0016779D02*
X0007529Y0016279D01*
X0008029D02*
X0007529Y0016779D01*
X0004970D02*
Y0016279D01*
X0005470Y0016779D02*
X0004970D01*
X0005470Y0016279D02*
Y0016779D01*
X0004970Y0016279D02*
X0005470D01*
Y0016779D02*
X0004970Y0016279D01*
X0005470D02*
X0004970Y0016779D01*
X0016941Y0004720D02*
Y0004220D01*
X0017441Y0004720D02*
X0016941D01*
X0017441Y0004220D02*
Y0004720D01*
X0016941Y0004220D02*
X0017441D01*
Y0004720D02*
X0016941Y0004220D01*
X0017441D02*
X0016941Y0004720D01*
X0019500D02*
Y0004220D01*
X0020000Y0004720D02*
X0019500D01*
X0020000Y0004220D02*
Y0004720D01*
X0019500Y0004220D02*
X0020000D01*
Y0004720D02*
X0019500Y0004220D01*
X0020000D02*
X0019500Y0004720D01*
X0022059D02*
Y0004220D01*
X0022559Y0004720D02*
X0022059D01*
X0022559Y0004220D02*
Y0004720D01*
X0022059Y0004220D02*
X0022559D01*
Y0004720D02*
X0022059Y0004220D01*
X0022559D02*
X0022059Y0004720D01*
X0023709Y0007955D02*
X0023209D01*
X0023459Y0008205D02*
Y0007705D01*
X0022059Y0007279D02*
Y0006779D01*
X0022559Y0007279D02*
X0022059D01*
X0022559Y0006779D02*
Y0007279D01*
X0022059Y0006779D02*
X0022559D01*
Y0007279D02*
X0022059Y0006779D01*
X0022559D02*
X0022059Y0007279D01*
X0019500D02*
Y0006779D01*
X0020000Y0007279D02*
X0019500D01*
X0020000Y0006779D02*
Y0007279D01*
X0019500Y0006779D02*
X0020000D01*
Y0007279D02*
X0019500Y0006779D01*
X0020000D02*
X0019500Y0007279D01*
X0016941D02*
Y0006779D01*
X0017441Y0007279D02*
X0016941D01*
X0017441Y0006779D02*
Y0007279D01*
X0016941Y0006779D02*
X0017441D01*
Y0007279D02*
X0016941Y0006779D01*
X0017441D02*
X0016941Y0007279D01*
X0029441Y0004720D02*
Y0004220D01*
X0029941Y0004720D02*
X0029441D01*
X0029941Y0004220D02*
Y0004720D01*
X0029441Y0004220D02*
X0029941D01*
Y0004720D02*
X0029441Y0004220D01*
X0029941D02*
X0029441Y0004720D01*
X0032000D02*
Y0004220D01*
X0032500Y0004720D02*
X0032000D01*
X0032500Y0004220D02*
Y0004720D01*
X0032000Y0004220D02*
X0032500D01*
Y0004720D02*
X0032000Y0004220D01*
X0032500D02*
X0032000Y0004720D01*
X0034559D02*
Y0004220D01*
X0035059Y0004720D02*
X0034559D01*
X0035059Y0004220D02*
Y0004720D01*
X0034559Y0004220D02*
X0035059D01*
Y0004720D02*
X0034559Y0004220D01*
X0035059D02*
X0034559Y0004720D01*
X0036209Y0007955D02*
X0035709D01*
X0035959Y0008205D02*
Y0007705D01*
X0034559Y0007279D02*
Y0006779D01*
X0035059Y0007279D02*
X0034559D01*
X0035059Y0006779D02*
Y0007279D01*
X0034559Y0006779D02*
X0035059D01*
Y0007279D02*
X0034559Y0006779D01*
X0035059D02*
X0034559Y0007279D01*
X0032000D02*
Y0006779D01*
X0032500Y0007279D02*
X0032000D01*
X0032500Y0006779D02*
Y0007279D01*
X0032000Y0006779D02*
X0032500D01*
Y0007279D02*
X0032000Y0006779D01*
X0032500D02*
X0032000Y0007279D01*
X0029441D02*
Y0006779D01*
X0029941Y0007279D02*
X0029441D01*
X0029941Y0006779D02*
Y0007279D01*
X0029441Y0006779D02*
X0029941D01*
Y0007279D02*
X0029441Y0006779D01*
X0029941D02*
X0029441Y0007279D01*
X0023720Y0014220D02*
Y0013720D01*
X0024220Y0014220D02*
X0023720D01*
X0024220Y0013720D02*
Y0014220D01*
X0023720Y0013720D02*
X0024220D01*
Y0014220D02*
X0023720Y0013720D01*
X0024220D02*
X0023720Y0014220D01*
X0026279D02*
Y0013720D01*
X0026779Y0014220D02*
X0026279D01*
X0026779Y0013720D02*
Y0014220D01*
X0026279Y0013720D02*
X0026779D01*
Y0014220D02*
X0026279Y0013720D01*
X0026779D02*
X0026279Y0014220D01*
Y0016779D02*
Y0016279D01*
X0026779Y0016779D02*
X0026279D01*
X0026779Y0016279D02*
Y0016779D01*
X0026279Y0016279D02*
X0026779D01*
Y0016779D02*
X0026279Y0016279D01*
X0026779D02*
X0026279Y0016779D01*
X0023720D02*
Y0016279D01*
X0024220Y0016779D02*
X0023720D01*
X0024220Y0016279D02*
Y0016779D01*
X0023720Y0016279D02*
X0024220D01*
Y0016779D02*
X0023720Y0016279D01*
X0024220D02*
X0023720Y0016779D01*
X0033220Y0014220D02*
Y0013720D01*
X0033720Y0014220D02*
X0033220D01*
X0033720Y0013720D02*
Y0014220D01*
X0033220Y0013720D02*
X0033720D01*
Y0014220D02*
X0033220Y0013720D01*
X0033720D02*
X0033220Y0014220D01*
X0035779D02*
Y0013720D01*
X0036279Y0014220D02*
X0035779D01*
X0036279Y0013720D02*
Y0014220D01*
X0035779Y0013720D02*
X0036279D01*
Y0014220D02*
X0035779Y0013720D01*
X0036279D02*
X0035779Y0014220D01*
Y0016779D02*
Y0016279D01*
X0036279Y0016779D02*
X0035779D01*
X0036279Y0016279D02*
Y0016779D01*
X0035779Y0016279D02*
X0036279D01*
Y0016779D02*
X0035779Y0016279D01*
X0036279D02*
X0035779Y0016779D01*
X0033220D02*
Y0016279D01*
X0033720Y0016779D02*
X0033220D01*
X0033720Y0016279D02*
Y0016779D01*
X0033220Y0016279D02*
X0033720D01*
Y0016779D02*
X0033220Y0016279D01*
X0033720D02*
X0033220Y0016779D01*
X0011500Y0023220D02*
Y0022720D01*
X0012000Y0023220D02*
X0011500D01*
X0012000Y0022720D02*
Y0023220D01*
X0011500Y0022720D02*
X0012000D01*
Y0023220D02*
X0011500Y0022720D01*
X0012000D02*
X0011500Y0023220D01*
X0013150Y0026455D02*
X0012650D01*
X0012900Y0026705D02*
Y0026205D01*
X0011500Y0025779D02*
Y0025279D01*
X0012000Y0025779D02*
X0011500D01*
X0012000Y0025279D02*
Y0025779D01*
X0011500Y0025279D02*
X0012000D01*
Y0025779D02*
X0011500Y0025279D01*
X0012000D02*
X0011500Y0025779D01*
X0005500Y0023220D02*
Y0022720D01*
X0006000Y0023220D02*
X0005500D01*
X0006000Y0022720D02*
Y0023220D01*
X0005500Y0022720D02*
X0006000D01*
Y0023220D02*
X0005500Y0022720D01*
X0006000D02*
X0005500Y0023220D01*
X0007150Y0026455D02*
X0006650D01*
X0006900Y0026705D02*
Y0026205D01*
X0005500Y0025779D02*
Y0025279D01*
X0006000Y0025779D02*
X0005500D01*
X0006000Y0025279D02*
Y0025779D01*
X0005500Y0025279D02*
X0006000D01*
Y0025779D02*
X0005500Y0025279D01*
X0006000D02*
X0005500Y0025779D01*
Y0033720D02*
Y0033220D01*
X0006000Y0033720D02*
X0005500D01*
X0006000Y0033220D02*
Y0033720D01*
X0005500Y0033220D02*
X0006000D01*
Y0033720D02*
X0005500Y0033220D01*
X0006000D02*
X0005500Y0033720D01*
X0007150Y0036955D02*
X0006650D01*
X0006900Y0037205D02*
Y0036705D01*
X0005500Y0036279D02*
Y0035779D01*
X0006000Y0036279D02*
X0005500D01*
X0006000Y0035779D02*
Y0036279D01*
X0005500Y0035779D02*
X0006000D01*
Y0036279D02*
X0005500Y0035779D01*
X0006000D02*
X0005500Y0036279D01*
X0011250Y0033720D02*
Y0033220D01*
X0011750Y0033720D02*
X0011250D01*
X0011750Y0033220D02*
Y0033720D01*
X0011250Y0033220D02*
X0011750D01*
Y0033720D02*
X0011250Y0033220D01*
X0011750D02*
X0011250Y0033720D01*
X0012900Y0036955D02*
X0012400D01*
X0012650Y0037205D02*
Y0036705D01*
X0011250Y0036279D02*
Y0035779D01*
X0011750Y0036279D02*
X0011250D01*
X0011750Y0035779D02*
Y0036279D01*
X0011250Y0035779D02*
X0011750D01*
Y0036279D02*
X0011250Y0035779D01*
X0011750D02*
X0011250Y0036279D01*
X0017250Y0033720D02*
Y0033220D01*
X0017750Y0033720D02*
X0017250D01*
X0017750Y0033220D02*
Y0033720D01*
X0017250Y0033220D02*
X0017750D01*
Y0033720D02*
X0017250Y0033220D01*
X0017750D02*
X0017250Y0033720D01*
X0018900Y0036955D02*
X0018400D01*
X0018650Y0037205D02*
Y0036705D01*
X0017250Y0036279D02*
Y0035779D01*
X0017750Y0036279D02*
X0017250D01*
X0017750Y0035779D02*
Y0036279D01*
X0017250Y0035779D02*
X0017750D01*
Y0036279D02*
X0017250Y0035779D01*
X0017750D02*
X0017250Y0036279D01*
X0029000Y0033720D02*
Y0033220D01*
X0029500Y0033720D02*
X0029000D01*
X0029500Y0033220D02*
Y0033720D01*
X0029000Y0033220D02*
X0029500D01*
Y0033720D02*
X0029000Y0033220D01*
X0029500D02*
X0029000Y0033720D01*
X0030650Y0036955D02*
X0030150D01*
X0030400Y0037205D02*
Y0036705D01*
X0029000Y0036279D02*
Y0035779D01*
X0029500Y0036279D02*
X0029000D01*
X0029500Y0035779D02*
Y0036279D01*
X0029000Y0035779D02*
X0029500D01*
Y0036279D02*
X0029000Y0035779D01*
X0029500D02*
X0029000Y0036279D01*
X0023000Y0033720D02*
Y0033220D01*
X0023500Y0033720D02*
X0023000D01*
X0023500Y0033220D02*
Y0033720D01*
X0023000Y0033220D02*
X0023500D01*
Y0033720D02*
X0023000Y0033220D01*
X0023500D02*
X0023000Y0033720D01*
X0024650Y0036955D02*
X0024150D01*
X0024400Y0037205D02*
Y0036705D01*
X0023000Y0036279D02*
Y0035779D01*
X0023500Y0036279D02*
X0023000D01*
X0023500Y0035779D02*
Y0036279D01*
X0023000Y0035779D02*
X0023500D01*
Y0036279D02*
X0023000Y0035779D01*
X0023500D02*
X0023000Y0036279D01*
X0035000Y0033720D02*
Y0033220D01*
X0035500Y0033720D02*
X0035000D01*
X0035500Y0033220D02*
Y0033720D01*
X0035000Y0033220D02*
X0035500D01*
Y0033720D02*
X0035000Y0033220D01*
X0035500D02*
X0035000Y0033720D01*
X0036650Y0036955D02*
X0036150D01*
X0036400Y0037205D02*
Y0036705D01*
X0035000Y0036279D02*
Y0035779D01*
X0035500Y0036279D02*
X0035000D01*
X0035500Y0035779D02*
Y0036279D01*
X0035000Y0035779D02*
X0035500D01*
Y0036279D02*
X0035000Y0035779D01*
X0035500D02*
X0035000Y0036279D01*
X0022506Y0039411D02*
Y0038911D01*
X0023006Y0039411D02*
X0022506D01*
X0023006Y0038911D02*
Y0039411D01*
X0022506Y0038911D02*
X0023006D01*
Y0039161D02*
X0022506D01*
X0022756Y0039411D02*
Y0038911D01*
X0031712Y0040289D02*
X0031462Y0040039D01*
X0031962D02*
X0031712Y0040289D01*
Y0039789D02*
X0031962Y0040039D01*
X0031462D02*
X0031712Y0039789D01*
Y0042100D02*
X0031462Y0041850D01*
X0031962D02*
X0031712Y0042100D01*
Y0041600D02*
X0031962Y0041850D01*
X0031462D02*
X0031712Y0041600D01*
X0030334Y0042100D02*
X0030084Y0041850D01*
X0030584D02*
X0030334Y0042100D01*
Y0041600D02*
X0030584Y0041850D01*
X0030084D02*
X0030334Y0041600D01*
X0028957Y0042100D02*
X0028707Y0041850D01*
X0029207D02*
X0028957Y0042100D01*
Y0041600D02*
X0029207Y0041850D01*
X0028707D02*
X0028957Y0041600D01*
X0027579Y0042100D02*
X0027329Y0041850D01*
X0027829D02*
X0027579Y0042100D01*
Y0041600D02*
X0027829Y0041850D01*
X0027329D02*
X0027579Y0041600D01*
X0026201Y0042100D02*
X0025951Y0041850D01*
X0026451D02*
X0026201Y0042100D01*
Y0041600D02*
X0026451Y0041850D01*
X0025951D02*
X0026201Y0041600D01*
X0024823Y0042100D02*
X0024573Y0041850D01*
X0025073D02*
X0024823Y0042100D01*
Y0041600D02*
X0025073Y0041850D01*
X0024573D02*
X0024823Y0041600D01*
X0023445Y0042100D02*
X0023195Y0041850D01*
X0023695D02*
X0023445Y0042100D01*
Y0041600D02*
X0023695Y0041850D01*
X0023195D02*
X0023445Y0041600D01*
X0022067Y0042100D02*
X0021817Y0041850D01*
X0022317D02*
X0022067Y0042100D01*
Y0041600D02*
X0022317Y0041850D01*
X0021817D02*
X0022067Y0041600D01*
Y0040289D02*
X0021817Y0040039D01*
X0022317D02*
X0022067Y0040289D01*
Y0039789D02*
X0022317Y0040039D01*
X0021817D02*
X0022067Y0039789D01*
X0023445Y0040289D02*
X0023195Y0040039D01*
X0023695D02*
X0023445Y0040289D01*
Y0039789D02*
X0023695Y0040039D01*
X0023195D02*
X0023445Y0039789D01*
X0024823Y0040289D02*
X0024573Y0040039D01*
X0025073D02*
X0024823Y0040289D01*
Y0039789D02*
X0025073Y0040039D01*
X0024573D02*
X0024823Y0039789D01*
X0026201Y0040289D02*
X0025951Y0040039D01*
X0026451D02*
X0026201Y0040289D01*
Y0039789D02*
X0026451Y0040039D01*
X0025951D02*
X0026201Y0039789D01*
X0027579Y0040289D02*
X0027329Y0040039D01*
X0027829D02*
X0027579Y0040289D01*
Y0039789D02*
X0027829Y0040039D01*
X0027329D02*
X0027579Y0039789D01*
X0028957Y0040289D02*
X0028707Y0040039D01*
X0029207D02*
X0028957Y0040289D01*
Y0039789D02*
X0029207Y0040039D01*
X0028707D02*
X0028957Y0039789D01*
X0030334Y0040289D02*
X0030084Y0040039D01*
X0030584D02*
X0030334Y0040289D01*
Y0039789D02*
X0030584Y0040039D01*
X0030084D02*
X0030334Y0039789D01*
X0002506Y0039411D02*
Y0038911D01*
X0003006Y0039411D02*
X0002506D01*
X0003006Y0038911D02*
Y0039411D01*
X0002506Y0038911D02*
X0003006D01*
Y0039161D02*
X0002506D01*
X0002756Y0039411D02*
Y0038911D01*
X0011712Y0040289D02*
X0011462Y0040039D01*
X0011962D02*
X0011712Y0040289D01*
Y0039789D02*
X0011962Y0040039D01*
X0011462D02*
X0011712Y0039789D01*
Y0042100D02*
X0011462Y0041850D01*
X0011962D02*
X0011712Y0042100D01*
Y0041600D02*
X0011962Y0041850D01*
X0011462D02*
X0011712Y0041600D01*
X0010334Y0042100D02*
X0010084Y0041850D01*
X0010584D02*
X0010334Y0042100D01*
Y0041600D02*
X0010584Y0041850D01*
X0010084D02*
X0010334Y0041600D01*
X0008957Y0042100D02*
X0008707Y0041850D01*
X0009207D02*
X0008957Y0042100D01*
Y0041600D02*
X0009207Y0041850D01*
X0008707D02*
X0008957Y0041600D01*
X0007579Y0042100D02*
X0007329Y0041850D01*
X0007829D02*
X0007579Y0042100D01*
Y0041600D02*
X0007829Y0041850D01*
X0007329D02*
X0007579Y0041600D01*
X0006201Y0042100D02*
X0005951Y0041850D01*
X0006451D02*
X0006201Y0042100D01*
Y0041600D02*
X0006451Y0041850D01*
X0005951D02*
X0006201Y0041600D01*
X0004823Y0042100D02*
X0004573Y0041850D01*
X0005073D02*
X0004823Y0042100D01*
Y0041600D02*
X0005073Y0041850D01*
X0004573D02*
X0004823Y0041600D01*
X0003445Y0042100D02*
X0003195Y0041850D01*
X0003695D02*
X0003445Y0042100D01*
Y0041600D02*
X0003695Y0041850D01*
X0003195D02*
X0003445Y0041600D01*
X0002067Y0042100D02*
X0001817Y0041850D01*
X0002317D02*
X0002067Y0042100D01*
Y0041600D02*
X0002317Y0041850D01*
X0001817D02*
X0002067Y0041600D01*
Y0040289D02*
X0001817Y0040039D01*
X0002317D02*
X0002067Y0040289D01*
Y0039789D02*
X0002317Y0040039D01*
X0001817D02*
X0002067Y0039789D01*
X0003445Y0040289D02*
X0003195Y0040039D01*
X0003695D02*
X0003445Y0040289D01*
Y0039789D02*
X0003695Y0040039D01*
X0003195D02*
X0003445Y0039789D01*
X0004823Y0040289D02*
X0004573Y0040039D01*
X0005073D02*
X0004823Y0040289D01*
Y0039789D02*
X0005073Y0040039D01*
X0004573D02*
X0004823Y0039789D01*
X0006201Y0040289D02*
X0005951Y0040039D01*
X0006451D02*
X0006201Y0040289D01*
Y0039789D02*
X0006451Y0040039D01*
X0005951D02*
X0006201Y0039789D01*
X0007579Y0040289D02*
X0007329Y0040039D01*
X0007829D02*
X0007579Y0040289D01*
Y0039789D02*
X0007829Y0040039D01*
X0007329D02*
X0007579Y0039789D01*
X0008957Y0040289D02*
X0008707Y0040039D01*
X0009207D02*
X0008957Y0040289D01*
Y0039789D02*
X0009207Y0040039D01*
X0008707D02*
X0008957Y0039789D01*
X0010334Y0040289D02*
X0010084Y0040039D01*
X0010584D02*
X0010334Y0040289D01*
Y0039789D02*
X0010584Y0040039D01*
X0010084D02*
X0010334Y0039789D01*
G01X-0001968Y-0001181D02*
G03X-0001181Y-0001968I0000787J0000000D01*
G01X0038583D02*
G03X0039370Y-0001181I0000000J0000787D01*
Y0044488D02*
G03X0038583Y0045275I0000787J0000000D01*
G01X-0001181Y0045276D02*
G03X-0001969Y0044488I0000000J0000788D01*
M02*
