*
G04 Mass Parameters ***
*
G04 Image ***
*
%IND:\UTENTI\00.LAVORI IN CORSO\METALTRONICA\22-314-0.SMT*%
%ICAS*%
%MOIN*%
%IPPOS*%
%ASAXBY*%
G74*%FSLAN2X34Y34*%
*
G04 Aperture Definitions ***
*
%ADD10C,0.0787*%
%ADD11C,0.0630*%
%ADD12C,0.0905*%
%ADD13C,0.0590*%
%ADD14C,0.0591*%
%ADD15C,0.0800*%
%ADD16C,0.2756*%
%ADD17C,0.0100*%
%ADD18C,0.0150*%
%ADD19C,0.0200*%
%ADD20C,0.0394*%
%ADD21C,0.0394*%
*
G04 Plot Data ***
*
G54D10*
X0031712Y0040039D03*
Y0041850D03*
X0030334D03*
X0028957D03*
X0027579D03*
X0026201D03*
X0024823D03*
X0023445D03*
X0022067D03*
Y0040039D03*
X0023445D03*
X0024823D03*
X0026201D03*
X0027579D03*
X0028957D03*
X0030334D03*
X0011712D03*
Y0041850D03*
X0010334D03*
X0008957D03*
X0007579D03*
X0006201D03*
X0004823D03*
X0003445D03*
X0002067D03*
Y0040039D03*
X0003445D03*
X0004823D03*
X0006201D03*
X0007579D03*
X0008957D03*
X0010334D03*
G54D11*
X0026675Y0021606D03*
X0027463D03*
X0028250D03*
X0029037D03*
X0029825D03*
Y0022393D03*
X0029037D03*
X0028250D03*
X0027463D03*
X0026675D03*
G54D12*
X0023500Y0022970D03*
Y0025529D03*
X0010250Y0004470D03*
Y0007029D03*
X0017500Y0022970D03*
Y0025529D03*
X0005250Y0004470D03*
Y0007029D03*
X0033470Y0022970D03*
X0036029D03*
Y0025529D03*
X0033470D03*
X0014470Y0013970D03*
X0017029D03*
Y0016529D03*
X0014470D03*
X0005220Y0013970D03*
X0007779D03*
Y0016529D03*
X0005220D03*
X0017191Y0004470D03*
X0019750D03*
X0022309D03*
Y0007029D03*
X0019750D03*
X0017191D03*
X0029691Y0004470D03*
X0032250D03*
X0034809D03*
Y0007029D03*
X0032250D03*
X0029691D03*
X0023970Y0013970D03*
X0026529D03*
Y0016529D03*
X0023970D03*
X0033470Y0013970D03*
X0036029D03*
Y0016529D03*
X0033470D03*
X0011750Y0022970D03*
Y0025529D03*
X0005750Y0022970D03*
Y0025529D03*
Y0033470D03*
Y0036029D03*
X0011500Y0033470D03*
Y0036029D03*
X0017500Y0033470D03*
Y0036029D03*
X0029250Y0033470D03*
Y0036029D03*
X0023250Y0033470D03*
Y0036029D03*
X0035250Y0033470D03*
Y0036029D03*
G54D13*
X0024650Y0026455D03*
X0011400Y0007955D03*
X0018650Y0026455D03*
X0006400Y0007955D03*
X0023459D03*
X0035959D03*
X0012900Y0026455D03*
X0006900D03*
Y0036955D03*
X0012650D03*
X0018650D03*
X0030400D03*
X0024400D03*
X0036400D03*
G54D15*
X0014250Y0023750D03*
Y0024750D03*
X0008250Y0023750D03*
Y0024750D03*
Y0034000D03*
Y0035000D03*
X0014250Y0034000D03*
Y0035000D03*
X0020250Y0034000D03*
Y0035000D03*
X0032000Y0034000D03*
Y0035000D03*
X0026000Y0034000D03*
Y0035000D03*
X0037750Y0034000D03*
Y0035000D03*
G54D16*
X0037401Y0000000D03*
X0036220Y0040945D03*
X0028740Y0025590D03*
X0011024Y0014961D03*
X0000000Y0035827D03*
Y0000000D03*
M02*
