*
G04 Mass Parameters ***
*
G04 Image ***
*
%IND:\UTENTI\00.LAVORI IN CORSO\METALTRONICA\22-314-0.DRL*%
%ICAS*%
%MOIN*%
%IPPOS*%
%ASAXBY*%
G74*%FSLAN2X34Y34*%
*
G04 Aperture Definitions ***
*
%ADD10C,0.0787*%
%ADD11C,0.0630*%
%ADD12C,0.0905*%
%ADD13C,0.0590*%
%ADD14C,0.0591*%
%ADD15C,0.0800*%
%ADD16C,0.2756*%
%ADD17C,0.0100*%
%ADD18C,0.0150*%
%ADD19C,0.0200*%
%ADD20C,0.0394*%
%ADD21C,0.0394*%
%ADD22C,0.0060*%
%ADD23C,0.0080*%
%ADD24C,0.0433*%
%ADD25C,0.0512*%
%ADD26C,0.0315*%
%ADD27C,0.1378*%
%ADD28C,0.0050*%
%ADD29C,0.0118*%
*
G04 Plot Data ***
*
G54D17*
G01X-0001181Y-0001968D02*
X0038583D01*
X0039370Y-0001181D02*
Y0044488D01*
X0038583Y0045276D02*
X-0001181D01*
X-0001968Y0044488D02*
Y-0001181D01*
G03X-0001181Y-0001968I0000787J0000000D01*
G01X0038583D02*
G03X0039370Y-0001181I0000000J0000787D01*
Y0044488D02*
G03X0038583Y0045275I0000787J0000000D01*
G01X-0001181Y0045276D02*
G03X-0001969Y0044488I0000000J0000788D01*
G54D28*
G01X0003114Y0005675D02*
X0002397D01*
X0003132Y0005630D02*
X0002380D01*
X0003143Y0005585D02*
X0002369D01*
X0003149Y0005540D02*
X0002363D01*
X0003150Y0005495D02*
X0002362D01*
X0003150Y0005450D02*
X0002362D01*
X0003150Y0005405D02*
X0002362D01*
X0003150Y0005360D02*
X0002362D01*
X0003150Y0005315D02*
X0002362D01*
X0003150Y0005270D02*
X0002362D01*
X0003150Y0005225D02*
X0002362D01*
X0003150Y0005180D02*
X0002362D01*
X0003150Y0005135D02*
X0002362D01*
X0003150Y0005090D02*
X0002362D01*
X0003150Y0005045D02*
X0002362D01*
X0003150Y0005000D02*
X0002362D01*
X0003150Y0004955D02*
X0002362D01*
X0003150Y0004910D02*
X0002362D01*
X0003150Y0004865D02*
X0002362D01*
X0003150Y0004820D02*
X0002362D01*
X0003150Y0004775D02*
X0002362D01*
X0003150Y0004730D02*
X0002362D01*
X0003148Y0004685D02*
X0002364D01*
X0003141Y0004640D02*
X0002371D01*
X0003128Y0004595D02*
X0002384D01*
X0003109Y0004550D02*
X0002402D01*
X0003083Y0004505D02*
X0002428D01*
X0003048Y0004460D02*
X0002463D01*
X0003000Y0004415D02*
X0002511D01*
X0003150Y0004724D03*
X0002362Y0005512D02*
Y0004724D01*
X0003122Y0005657D02*
Y0004578D01*
X0003077Y0005740D02*
Y0004496D01*
X0003032Y0005793D02*
Y0004443D01*
X0002987Y0005831D02*
Y0004405D01*
X0002942Y0005859D02*
Y0004377D01*
X0002897Y0005879D02*
Y0004356D01*
X0002852Y0005894D02*
Y0004342D01*
X0002807Y0005902D02*
Y0004333D01*
X0002762Y0005905D02*
Y0004330D01*
X0002717Y0005904D02*
Y0004332D01*
X0002672Y0005896D02*
Y0004339D01*
X0002627Y0005884D02*
Y0004352D01*
X0002582Y0005865D02*
Y0004371D01*
X0002537Y0005839D02*
Y0004397D01*
X0002492Y0005804D02*
Y0004432D01*
X0002447Y0005756D02*
Y0004480D01*
X0002402Y0005684D02*
Y0004551D01*
X0002820Y0005900D02*
X0002691D01*
X0002949Y0005855D02*
X0002563D01*
X0003013Y0005810D02*
X0002499D01*
X0003057Y0005765D02*
X0002454D01*
X0003090Y0005720D02*
X0002422D01*
X0002929Y0004370D02*
X0002583D01*
X0003150Y0005512D02*
Y0004724D01*
X-0000429Y0024573D02*
X-0001146D01*
X-0000412Y0024528D02*
X-0001163D01*
X-0000400Y0024483D02*
X-0001175D01*
X-0000395Y0024438D02*
X-0001180D01*
X-0000394Y0024393D02*
X-0001181D01*
X-0000394Y0024348D02*
X-0001181D01*
X-0000394Y0024303D02*
X-0001181D01*
X-0000394Y0024258D02*
X-0001181D01*
X-0000394Y0024213D02*
X-0001181D01*
X-0000394Y0024168D02*
X-0001181D01*
X-0000394Y0024123D02*
X-0001181D01*
X-0000394Y0024078D02*
X-0001181D01*
X-0000394Y0024033D02*
X-0001181D01*
X-0000394Y0023988D02*
X-0001181D01*
X-0000394Y0023943D02*
X-0001181D01*
X-0000394Y0023898D02*
X-0001181D01*
X-0000394Y0023853D02*
X-0001181D01*
X-0000394Y0023808D02*
X-0001181D01*
X-0000394Y0023763D02*
X-0001181D01*
X-0000394Y0023718D02*
X-0001181D01*
X-0000394Y0023673D02*
X-0001181D01*
X-0000394Y0023628D02*
X-0001181D01*
X-0000395Y0023583D02*
X-0001180D01*
X-0000403Y0023538D02*
X-0001172D01*
X-0000415Y0023493D02*
X-0001160D01*
X-0000434Y0023448D02*
X-0001141D01*
X-0000460Y0023403D02*
X-0001115D01*
X-0000495Y0023358D02*
X-0001080D01*
X-0000543Y0023313D02*
X-0001032D01*
X-0000394Y0024409D02*
Y0023622D01*
X-0001181Y0024409D02*
Y0023622D01*
X-0000422Y0024555D02*
Y0023476D01*
X-0000467Y0024638D02*
Y0023393D01*
X-0000512Y0024690D02*
Y0023341D01*
X-0000557Y0024728D02*
Y0023303D01*
X-0000602Y0024756D02*
Y0023275D01*
X-0000647Y0024777D02*
Y0023254D01*
X-0000692Y0024791D02*
Y0023240D01*
X-0000737Y0024800D02*
Y0023231D01*
X-0000782Y0024803D02*
Y0023228D01*
X-0000827Y0024801D02*
Y0023230D01*
X-0000872Y0024794D02*
Y0023237D01*
X-0000917Y0024781D02*
Y0023250D01*
X-0000962Y0024763D02*
Y0023268D01*
X-0001007Y0024737D02*
Y0023294D01*
X-0001052Y0024702D02*
Y0023329D01*
X-0001097Y0024654D02*
Y0023377D01*
X-0001142Y0024582D02*
Y0023449D01*
X-0000723Y0024798D02*
X-0000852D01*
X-0000595Y0024753D02*
X-0000980D01*
X-0000531Y0024708D02*
X-0001044D01*
X-0000486Y0024663D02*
X-0001089D01*
X-0000453Y0024618D02*
X-0001122D01*
X-0000615Y0023268D02*
X-0000960D01*
X-0001181Y0024409D02*
X-0001182D01*
X-0000429Y0005675D02*
X-0001146D01*
X-0000412Y0005630D02*
X-0001163D01*
X-0000400Y0005585D02*
X-0001175D01*
X-0000395Y0005540D02*
X-0001180D01*
X-0000394Y0005495D02*
X-0001181D01*
X-0000394Y0005450D02*
X-0001181D01*
X-0000394Y0005405D02*
X-0001181D01*
X-0000394Y0005360D02*
X-0001181D01*
X-0000394Y0005315D02*
X-0001181D01*
X-0000394Y0005270D02*
X-0001181D01*
X-0000394Y0005225D02*
X-0001181D01*
X-0000394Y0005180D02*
X-0001181D01*
X-0000394Y0005135D02*
X-0001181D01*
X-0000394Y0005090D02*
X-0001181D01*
X-0000394Y0005045D02*
X-0001181D01*
X-0000394Y0005000D02*
X-0001181D01*
X-0000394Y0004955D02*
X-0001181D01*
X-0000394Y0004910D02*
X-0001181D01*
X-0000394Y0004865D02*
X-0001181D01*
X-0000394Y0004820D02*
X-0001181D01*
X-0000394Y0004775D02*
X-0001181D01*
X-0000394Y0004730D02*
X-0001181D01*
X-0000395Y0004685D02*
X-0001180D01*
X-0000403Y0004640D02*
X-0001172D01*
X-0000415Y0004595D02*
X-0001160D01*
X-0000434Y0004550D02*
X-0001141D01*
X-0000460Y0004505D02*
X-0001115D01*
X-0000495Y0004460D02*
X-0001080D01*
X-0000543Y0004415D02*
X-0001032D01*
X-0000394Y0005512D02*
Y0004724D01*
X-0001181Y0005512D02*
Y0004724D01*
X-0000422Y0005657D02*
Y0004578D01*
X-0000467Y0005740D02*
Y0004496D01*
X-0000512Y0005793D02*
Y0004443D01*
X-0000557Y0005831D02*
Y0004405D01*
X-0000602Y0005859D02*
Y0004377D01*
X-0000647Y0005879D02*
Y0004356D01*
X-0000692Y0005894D02*
Y0004342D01*
X-0000737Y0005902D02*
Y0004333D01*
X-0000782Y0005905D02*
Y0004330D01*
X-0000827Y0005904D02*
Y0004332D01*
X-0000872Y0005896D02*
Y0004339D01*
X-0000917Y0005884D02*
Y0004352D01*
X-0000962Y0005865D02*
Y0004371D01*
X-0001007Y0005839D02*
Y0004397D01*
X-0001052Y0005804D02*
Y0004432D01*
X-0001097Y0005756D02*
Y0004480D01*
X-0001142Y0005684D02*
Y0004551D01*
X-0000723Y0005900D02*
X-0000852D01*
X-0000595Y0005855D02*
X-0000980D01*
X-0000531Y0005810D02*
X-0001044D01*
X-0000486Y0005765D02*
X-0001089D01*
X-0000453Y0005720D02*
X-0001122D01*
X-0000615Y0004370D02*
X-0000960D01*
X-0001181Y0005512D02*
X-0001182D01*
X0020220Y0032087D02*
Y0031299D01*
X0020175Y0032087D02*
Y0031299D01*
X0020130Y0032087D02*
Y0031299D01*
X0020085Y0032087D02*
Y0031299D01*
X0020040Y0032085D02*
Y0031301D01*
X0019995Y0032078D02*
Y0031308D01*
X0019950Y0032065D02*
Y0031321D01*
X0019905Y0032046D02*
Y0031339D01*
X0019860Y0032020D02*
Y0031365D01*
X0019815Y0031985D02*
Y0031400D01*
X0019770Y0031937D02*
Y0031448D01*
X0019725Y0031866D02*
Y0031520D01*
X0021012Y0032059D02*
X0019933D01*
X0021094Y0032014D02*
X0019850D01*
X0021147Y0031969D02*
X0019797D01*
X0021185Y0031924D02*
X0019759D01*
X0021213Y0031879D02*
X0019731D01*
X0021234Y0031834D02*
X0019711D01*
X0021248Y0031789D02*
X0019696D01*
X0021257Y0031744D02*
X0019688D01*
X0021260Y0031699D02*
X0019685D01*
X0021258Y0031654D02*
X0019686D01*
X0021251Y0031609D02*
X0019694D01*
X0021238Y0031564D02*
X0019706D01*
X0021219Y0031519D02*
X0019725D01*
X0021193Y0031474D02*
X0019751D01*
X0021158Y0031429D02*
X0019786D01*
X0021110Y0031384D02*
X0019834D01*
X0020866Y0032087D03*
Y0031299D02*
X0020079D01*
X0021255Y0031757D02*
Y0031628D01*
X0021210Y0031886D02*
Y0031500D01*
X0021165Y0031950D02*
Y0031436D01*
X0021120Y0031994D02*
Y0031391D01*
X0021075Y0032027D02*
Y0031359D01*
X0021030Y0032051D02*
Y0031334D01*
X0020985Y0032069D02*
Y0031317D01*
X0020940Y0032080D02*
Y0031306D01*
X0020895Y0032086D02*
Y0031300D01*
X0020850Y0032087D02*
Y0031299D01*
X0020805Y0032087D02*
Y0031299D01*
X0020760Y0032087D02*
Y0031299D01*
X0020715Y0032087D02*
Y0031299D01*
X0020670Y0032087D02*
Y0031299D01*
X0020625Y0032087D02*
Y0031299D01*
X0020580Y0032087D02*
Y0031299D01*
X0020535Y0032087D02*
Y0031299D01*
X0020490Y0032087D02*
Y0031299D01*
X0020445Y0032087D02*
Y0031299D01*
X0020400Y0032087D02*
Y0031299D01*
X0020355Y0032087D02*
Y0031299D01*
X0020310Y0032087D02*
Y0031299D01*
X0020265Y0032087D02*
Y0031299D01*
X0021039Y0031339D02*
X0019906D01*
X0020866Y0032087D02*
X0020079D01*
X0020175Y0026772D02*
Y0025984D01*
X0020130Y0026772D02*
Y0025984D01*
X0020085Y0026772D02*
Y0025984D01*
X0020040Y0026770D02*
Y0025986D01*
X0019995Y0026763D02*
Y0025993D01*
X0019950Y0026750D02*
Y0026006D01*
X0019905Y0026731D02*
Y0026025D01*
X0019860Y0026705D02*
Y0026050D01*
X0019815Y0026670D02*
Y0026086D01*
X0019770Y0026622D02*
Y0026134D01*
X0019725Y0026551D02*
Y0026205D01*
X0021010Y0026744D02*
X0019934D01*
X0021093Y0026699D02*
X0019851D01*
X0021146Y0026654D02*
X0019798D01*
X0021184Y0026609D02*
X0019760D01*
X0021213Y0026564D02*
X0019732D01*
X0021233Y0026519D02*
X0019711D01*
X0021248Y0026474D02*
X0019697D01*
X0021256Y0026429D02*
X0019688D01*
X0021259Y0026384D02*
X0019685D01*
X0021258Y0026339D02*
X0019687D01*
X0021251Y0026294D02*
X0019694D01*
X0021238Y0026249D02*
X0019706D01*
X0021219Y0026204D02*
X0019725D01*
X0021193Y0026159D02*
X0019751D01*
X0021158Y0026114D02*
X0019786D01*
X0021110Y0026069D02*
X0019834D01*
X0020866Y0025984D02*
X0020079D01*
X0021255Y0026438D02*
Y0026317D01*
X0021210Y0026569D02*
Y0026186D01*
X0021165Y0026634D02*
Y0026122D01*
X0021120Y0026679D02*
Y0026077D01*
X0021075Y0026711D02*
Y0026044D01*
X0021030Y0026736D02*
Y0026020D01*
X0020985Y0026753D02*
Y0026003D01*
X0020940Y0026764D02*
Y0025991D01*
X0020895Y0026770D02*
Y0025985D01*
X0020850Y0026772D02*
Y0025984D01*
X0020805Y0026772D02*
Y0025984D01*
X0020760Y0026772D02*
Y0025984D01*
X0020715Y0026772D02*
Y0025984D01*
X0020670Y0026772D02*
Y0025984D01*
X0020625Y0026772D02*
Y0025984D01*
X0020580Y0026772D02*
Y0025984D01*
X0020535Y0026772D02*
Y0025984D01*
X0020490Y0026772D02*
Y0025984D01*
X0020445Y0026772D02*
Y0025984D01*
X0020400Y0026772D02*
Y0025984D01*
X0020355Y0026772D02*
Y0025984D01*
X0020310Y0026772D02*
Y0025984D01*
X0020265Y0026772D02*
Y0025984D01*
X0020220Y0026772D02*
Y0025984D01*
X0021039Y0026024D02*
X0019906D01*
X0020866Y0026772D02*
X0020079D01*
X0020175Y0021653D02*
Y0020866D01*
X0020130Y0021653D02*
Y0020866D01*
X0020085Y0021653D02*
Y0020866D01*
X0020040Y0021651D02*
Y0020868D01*
X0019995Y0021644D02*
Y0020875D01*
X0019950Y0021632D02*
Y0020887D01*
X0019905Y0021613D02*
Y0020906D01*
X0019860Y0021587D02*
Y0020932D01*
X0019815Y0021552D02*
Y0020967D01*
X0019770Y0021504D02*
Y0021015D01*
X0019725Y0021432D02*
Y0021087D01*
X0021010Y0021626D02*
X0019934D01*
X0021093Y0021581D02*
X0019851D01*
X0021146Y0021536D02*
X0019798D01*
X0021184Y0021491D02*
X0019760D01*
X0021213Y0021446D02*
X0019732D01*
X0021233Y0021401D02*
X0019711D01*
X0021248Y0021356D02*
X0019697D01*
X0021256Y0021311D02*
X0019688D01*
X0021259Y0021266D02*
X0019685D01*
X0021258Y0021221D02*
X0019687D01*
X0021251Y0021176D02*
X0019694D01*
X0021238Y0021131D02*
X0019706D01*
X0021219Y0021086D02*
X0019725D01*
X0021193Y0021041D02*
X0019751D01*
X0021158Y0020996D02*
X0019786D01*
X0021110Y0020951D02*
X0019834D01*
X0020866Y0020866D02*
X0020079D01*
X0021255Y0021320D02*
Y0021199D01*
X0021210Y0021451D02*
Y0021068D01*
X0021165Y0021516D02*
Y0021003D01*
X0021120Y0021560D02*
Y0020959D01*
X0021075Y0021593D02*
Y0020926D01*
X0021030Y0021617D02*
Y0020902D01*
X0020985Y0021635D02*
Y0020884D01*
X0020940Y0021646D02*
Y0020873D01*
X0020895Y0021652D02*
Y0020867D01*
X0020850Y0021653D02*
Y0020866D01*
X0020805Y0021653D02*
Y0020866D01*
X0020760Y0021653D02*
Y0020866D01*
X0020715Y0021653D02*
Y0020866D01*
X0020670Y0021653D02*
Y0020866D01*
X0020625Y0021653D02*
Y0020866D01*
X0020580Y0021653D02*
Y0020866D01*
X0020535Y0021653D02*
Y0020866D01*
X0020490Y0021653D02*
Y0020866D01*
X0020445Y0021653D02*
Y0020866D01*
X0020400Y0021653D02*
Y0020866D01*
X0020355Y0021653D02*
Y0020866D01*
X0020310Y0021653D02*
Y0020866D01*
X0020265Y0021653D02*
Y0020866D01*
X0020220Y0021653D02*
Y0020866D01*
X0021039Y0020906D02*
X0019906D01*
X0020866Y0021653D02*
X0020079D01*
X0020175Y0017913D02*
Y0017126D01*
X0020130Y0017913D02*
Y0017126D01*
X0020085Y0017913D02*
Y0017126D01*
X0020040Y0017911D02*
Y0017128D01*
X0019995Y0017904D02*
Y0017135D01*
X0019950Y0017892D02*
Y0017147D01*
X0019905Y0017873D02*
Y0017166D01*
X0019860Y0017847D02*
Y0017192D01*
X0019815Y0017812D02*
Y0017227D01*
X0019770Y0017764D02*
Y0017275D01*
X0019725Y0017692D02*
Y0017347D01*
X0021010Y0017886D02*
X0019934D01*
X0021093Y0017841D02*
X0019851D01*
X0021146Y0017796D02*
X0019798D01*
X0021184Y0017751D02*
X0019760D01*
X0021213Y0017706D02*
X0019732D01*
X0021233Y0017661D02*
X0019711D01*
X0021248Y0017616D02*
X0019697D01*
X0021256Y0017571D02*
X0019688D01*
X0021259Y0017526D02*
X0019685D01*
X0021258Y0017481D02*
X0019687D01*
X0021251Y0017436D02*
X0019694D01*
X0021238Y0017391D02*
X0019706D01*
X0021219Y0017346D02*
X0019725D01*
X0021193Y0017301D02*
X0019751D01*
X0021158Y0017256D02*
X0019786D01*
X0021110Y0017211D02*
X0019834D01*
X0020866Y0017126D02*
X0020079D01*
X0021255Y0017580D02*
Y0017459D01*
X0021210Y0017711D02*
Y0017328D01*
X0021165Y0017776D02*
Y0017263D01*
X0021120Y0017820D02*
Y0017219D01*
X0021075Y0017853D02*
Y0017186D01*
X0021030Y0017877D02*
Y0017162D01*
X0020985Y0017895D02*
Y0017144D01*
X0020940Y0017906D02*
Y0017133D01*
X0020895Y0017912D02*
Y0017127D01*
X0020850Y0017913D02*
Y0017126D01*
X0020805Y0017913D02*
Y0017126D01*
X0020760Y0017913D02*
Y0017126D01*
X0020715Y0017913D02*
Y0017126D01*
X0020670Y0017913D02*
Y0017126D01*
X0020625Y0017913D02*
Y0017126D01*
X0020580Y0017913D02*
Y0017126D01*
X0020535Y0017913D02*
Y0017126D01*
X0020490Y0017913D02*
Y0017126D01*
X0020445Y0017913D02*
Y0017126D01*
X0020400Y0017913D02*
Y0017126D01*
X0020355Y0017913D02*
Y0017126D01*
X0020310Y0017913D02*
Y0017126D01*
X0020265Y0017913D02*
Y0017126D01*
X0020220Y0017913D02*
Y0017126D01*
X0021039Y0017166D02*
X0019906D01*
X0020866Y0017913D02*
X0020079D01*
X0020175Y0012598D02*
Y0011811D01*
X0020130Y0012598D02*
Y0011811D01*
X0020085Y0012598D02*
Y0011811D01*
X0020040Y0012596D02*
Y0011813D01*
X0019995Y0012589D02*
Y0011820D01*
X0019950Y0012577D02*
Y0011832D01*
X0019905Y0012558D02*
Y0011851D01*
X0019860Y0012532D02*
Y0011877D01*
X0019815Y0012497D02*
Y0011912D01*
X0019770Y0012449D02*
Y0011960D01*
X0019725Y0012377D02*
Y0012032D01*
X0021010Y0012571D02*
X0019934D01*
X0021093Y0012526D02*
X0019851D01*
X0021146Y0012481D02*
X0019798D01*
X0021184Y0012436D02*
X0019760D01*
X0021213Y0012391D02*
X0019732D01*
X0021233Y0012346D02*
X0019711D01*
X0021248Y0012301D02*
X0019697D01*
X0021256Y0012256D02*
X0019688D01*
X0021259Y0012211D02*
X0019685D01*
X0021258Y0012166D02*
X0019687D01*
X0021251Y0012121D02*
X0019694D01*
X0021238Y0012076D02*
X0019706D01*
X0021219Y0012031D02*
X0019725D01*
X0021193Y0011986D02*
X0019751D01*
X0021158Y0011941D02*
X0019786D01*
X0021110Y0011896D02*
X0019834D01*
X0020866Y0011811D02*
X0020079D01*
X0021255Y0012265D02*
Y0012144D01*
X0021210Y0012396D02*
Y0012013D01*
X0021165Y0012461D02*
Y0011948D01*
X0021120Y0012505D02*
Y0011904D01*
X0021075Y0012538D02*
Y0011871D01*
X0021030Y0012562D02*
Y0011847D01*
X0020985Y0012580D02*
Y0011829D01*
X0020940Y0012591D02*
Y0011818D01*
X0020895Y0012597D02*
Y0011812D01*
X0020850Y0012598D02*
Y0011811D01*
X0020805Y0012598D02*
Y0011811D01*
X0020760Y0012598D02*
Y0011811D01*
X0020715Y0012598D02*
Y0011811D01*
X0020670Y0012598D02*
Y0011811D01*
X0020625Y0012598D02*
Y0011811D01*
X0020580Y0012598D02*
Y0011811D01*
X0020535Y0012598D02*
Y0011811D01*
X0020490Y0012598D02*
Y0011811D01*
X0020445Y0012598D02*
Y0011811D01*
X0020400Y0012598D02*
Y0011811D01*
X0020355Y0012598D02*
Y0011811D01*
X0020310Y0012598D02*
Y0011811D01*
X0020265Y0012598D02*
Y0011811D01*
X0020220Y0012598D02*
Y0011811D01*
X0021039Y0011851D02*
X0019906D01*
X0020866Y0012598D02*
X0020079D01*
X0020175Y0009449D02*
Y0008661D01*
X0020130Y0009449D02*
Y0008661D01*
X0020085Y0009449D02*
Y0008661D01*
X0020040Y0009447D02*
Y0008663D01*
X0019995Y0009440D02*
Y0008670D01*
X0019950Y0009427D02*
Y0008683D01*
X0019905Y0009408D02*
Y0008702D01*
X0019860Y0009382D02*
Y0008727D01*
X0019815Y0009347D02*
Y0008763D01*
X0019770Y0009299D02*
Y0008811D01*
X0019725Y0009228D02*
Y0008882D01*
X0021010Y0009421D02*
X0019934D01*
X0021093Y0009376D02*
X0019851D01*
X0021146Y0009331D02*
X0019798D01*
X0021184Y0009286D02*
X0019760D01*
X0021213Y0009241D02*
X0019732D01*
X0021233Y0009196D02*
X0019711D01*
X0021248Y0009151D02*
X0019697D01*
X0021256Y0009106D02*
X0019688D01*
X0021259Y0009061D02*
X0019685D01*
X0021258Y0009016D02*
X0019687D01*
X0021251Y0008971D02*
X0019694D01*
X0021238Y0008926D02*
X0019706D01*
X0021219Y0008881D02*
X0019725D01*
X0021193Y0008836D02*
X0019751D01*
X0021158Y0008791D02*
X0019786D01*
X0021110Y0008746D02*
X0019834D01*
X0020866Y0008661D02*
X0020079D01*
X0021255Y0009115D02*
Y0008994D01*
X0021210Y0009246D02*
Y0008863D01*
X0021165Y0009311D02*
Y0008799D01*
X0021120Y0009356D02*
Y0008754D01*
X0021075Y0009388D02*
Y0008721D01*
X0021030Y0009413D02*
Y0008697D01*
X0020985Y0009430D02*
Y0008680D01*
X0020940Y0009441D02*
Y0008668D01*
X0020895Y0009447D02*
Y0008662D01*
X0020850Y0009449D02*
Y0008661D01*
X0020805Y0009449D02*
Y0008661D01*
X0020760Y0009449D02*
Y0008661D01*
X0020715Y0009449D02*
Y0008661D01*
X0020670Y0009449D02*
Y0008661D01*
X0020625Y0009449D02*
Y0008661D01*
X0020580Y0009449D02*
Y0008661D01*
X0020535Y0009449D02*
Y0008661D01*
X0020490Y0009449D02*
Y0008661D01*
X0020445Y0009449D02*
Y0008661D01*
X0020400Y0009449D02*
Y0008661D01*
X0020355Y0009449D02*
Y0008661D01*
X0020310Y0009449D02*
Y0008661D01*
X0020265Y0009449D02*
Y0008661D01*
X0020220Y0009449D02*
Y0008661D01*
X0021039Y0008701D02*
X0019906D01*
X0020866Y0009449D02*
X0020079D01*
X0013527Y0003150D02*
Y0002362D01*
X0013482Y0003150D02*
Y0002362D01*
X0013437Y0003150D02*
Y0002362D01*
X0013392Y0003150D02*
Y0002362D01*
X0013347Y0003148D02*
Y0002364D01*
X0013302Y0003141D02*
Y0002371D01*
X0013257Y0003128D02*
Y0002384D01*
X0013212Y0003109D02*
Y0002402D01*
X0013167Y0003083D02*
Y0002428D01*
X0013122Y0003048D02*
Y0002463D01*
X0013077Y0003000D02*
Y0002511D01*
X0013032Y0002929D02*
Y0002583D01*
X0014319Y0003122D02*
X0013240D01*
X0014401Y0003077D02*
X0013157D01*
X0014454Y0003032D02*
X0013104D01*
X0014492Y0002987D02*
X0013066D01*
X0014520Y0002942D02*
X0013038D01*
X0014541Y0002897D02*
X0013018D01*
X0014555Y0002852D02*
X0013003D01*
X0014564Y0002807D02*
X0012995D01*
X0014567Y0002762D02*
X0012992D01*
X0014565Y0002717D02*
X0012993D01*
X0014558Y0002672D02*
X0013001D01*
X0014545Y0002627D02*
X0013013D01*
X0014526Y0002582D02*
X0013032D01*
X0014500Y0002537D02*
X0013058D01*
X0014465Y0002492D02*
X0013093D01*
X0014417Y0002447D02*
X0013141D01*
X0014173Y0003150D03*
Y0002362D02*
X0013386D01*
X0014562Y0002820D02*
Y0002691D01*
X0014517Y0002949D02*
Y0002563D01*
X0014472Y0003013D02*
Y0002499D01*
X0014427Y0003057D02*
Y0002454D01*
X0014382Y0003090D02*
Y0002422D01*
X0014337Y0003114D02*
Y0002397D01*
X0014292Y0003132D02*
Y0002380D01*
X0014247Y0003143D02*
Y0002369D01*
X0014202Y0003149D02*
Y0002363D01*
X0014157Y0003150D02*
Y0002362D01*
X0014112Y0003150D02*
Y0002362D01*
X0014067Y0003150D02*
Y0002362D01*
X0014022Y0003150D02*
Y0002362D01*
X0013977Y0003150D02*
Y0002362D01*
X0013932Y0003150D02*
Y0002362D01*
X0013887Y0003150D02*
Y0002362D01*
X0013842Y0003150D02*
Y0002362D01*
X0013797Y0003150D02*
Y0002362D01*
X0013752Y0003150D02*
Y0002362D01*
X0013707Y0003150D02*
Y0002362D01*
X0013662Y0003150D02*
Y0002362D01*
X0013617Y0003150D02*
Y0002362D01*
X0013572Y0003150D02*
Y0002362D01*
X0014346Y0002402D02*
X0013213D01*
X0014173Y0003150D02*
X0013386D01*
X0013527Y-0000394D02*
Y-0001181D01*
X0013482Y-0000394D02*
Y-0001181D01*
X0013437Y-0000394D02*
Y-0001181D01*
X0013392Y-0000394D02*
Y-0001181D01*
X0013347Y-0000395D02*
Y-0001180D01*
X0013302Y-0000403D02*
Y-0001172D01*
X0013257Y-0000415D02*
Y-0001160D01*
X0013212Y-0000434D02*
Y-0001141D01*
X0013167Y-0000460D02*
Y-0001115D01*
X0013122Y-0000495D02*
Y-0001080D01*
X0013077Y-0000543D02*
Y-0001032D01*
X0013032Y-0000615D02*
Y-0000960D01*
X0014319Y-0000422D02*
X0013240D01*
X0014401Y-0000467D02*
X0013157D01*
X0014454Y-0000512D02*
X0013104D01*
X0014492Y-0000557D02*
X0013066D01*
X0014520Y-0000602D02*
X0013038D01*
X0014541Y-0000647D02*
X0013018D01*
X0014555Y-0000692D02*
X0013003D01*
X0014564Y-0000737D02*
X0012995D01*
X0014567Y-0000782D02*
X0012992D01*
X0014565Y-0000827D02*
X0012993D01*
X0014558Y-0000872D02*
X0013001D01*
X0014545Y-0000917D02*
X0013013D01*
X0014526Y-0000962D02*
X0013032D01*
X0014500Y-0001007D02*
X0013058D01*
X0014465Y-0001052D02*
X0013093D01*
X0014417Y-0001097D02*
X0013141D01*
X0014173Y-0000394D02*
X0013386D01*
X0014173Y-0001181D02*
X0013386D01*
X0014562Y-0000723D02*
Y-0000852D01*
X0014517Y-0000595D02*
Y-0000980D01*
X0014472Y-0000531D02*
Y-0001044D01*
X0014427Y-0000486D02*
Y-0001089D01*
X0014382Y-0000453D02*
Y-0001122D01*
X0014337Y-0000429D02*
Y-0001146D01*
X0014292Y-0000412D02*
Y-0001163D01*
X0014247Y-0000400D02*
Y-0001175D01*
X0014202Y-0000395D02*
Y-0001180D01*
X0014157Y-0000394D02*
Y-0001181D01*
X0014112Y-0000394D02*
Y-0001181D01*
X0014067Y-0000394D02*
Y-0001181D01*
X0014022Y-0000394D02*
Y-0001181D01*
X0013977Y-0000394D02*
Y-0001181D01*
X0013932Y-0000394D02*
Y-0001181D01*
X0013887Y-0000394D02*
Y-0001181D01*
X0013842Y-0000394D02*
Y-0001181D01*
X0013797Y-0000394D02*
Y-0001181D01*
X0013752Y-0000394D02*
Y-0001181D01*
X0013707Y-0000394D02*
Y-0001181D01*
X0013662Y-0000394D02*
Y-0001181D01*
X0013617Y-0000394D02*
Y-0001181D01*
X0013572Y-0000394D02*
Y-0001181D01*
X0014346Y-0001142D02*
X0013213D01*
X0013386Y-0001181D02*
Y-0001182D01*
X0003114Y0024573D02*
X0002397D01*
X0003132Y0024528D02*
X0002380D01*
X0003143Y0024483D02*
X0002369D01*
X0003149Y0024438D02*
X0002363D01*
X0003150Y0024393D02*
X0002362D01*
X0003150Y0024348D02*
X0002362D01*
X0003150Y0024303D02*
X0002362D01*
X0003150Y0024258D02*
X0002362D01*
X0003150Y0024213D02*
X0002362D01*
X0003150Y0024168D02*
X0002362D01*
X0003150Y0024123D02*
X0002362D01*
X0003150Y0024078D02*
X0002362D01*
X0003150Y0024033D02*
X0002362D01*
X0003150Y0023988D02*
X0002362D01*
X0003150Y0023943D02*
X0002362D01*
X0003150Y0023898D02*
X0002362D01*
X0003150Y0023853D02*
X0002362D01*
X0003150Y0023808D02*
X0002362D01*
X0003150Y0023763D02*
X0002362D01*
X0003150Y0023718D02*
X0002362D01*
X0003150Y0023673D02*
X0002362D01*
X0003150Y0023628D02*
X0002362D01*
X0003148Y0023583D02*
X0002364D01*
X0003141Y0023538D02*
X0002371D01*
X0003128Y0023493D02*
X0002384D01*
X0003109Y0023448D02*
X0002402D01*
X0003083Y0023403D02*
X0002428D01*
X0003048Y0023358D02*
X0002463D01*
X0003000Y0023313D02*
X0002511D01*
X0003150Y0023622D03*
X0002362Y0024409D02*
Y0023622D01*
X0003122Y0024555D02*
Y0023476D01*
X0003077Y0024638D02*
Y0023393D01*
X0003032Y0024690D02*
Y0023341D01*
X0002987Y0024728D02*
Y0023303D01*
X0002942Y0024756D02*
Y0023275D01*
X0002897Y0024777D02*
Y0023254D01*
X0002852Y0024791D02*
Y0023240D01*
X0002807Y0024800D02*
Y0023231D01*
X0002762Y0024803D02*
Y0023228D01*
X0002717Y0024801D02*
Y0023230D01*
X0002672Y0024794D02*
Y0023237D01*
X0002627Y0024781D02*
Y0023250D01*
X0002582Y0024763D02*
Y0023268D01*
X0002537Y0024737D02*
Y0023294D01*
X0002492Y0024702D02*
Y0023329D01*
X0002447Y0024654D02*
Y0023377D01*
X0002402Y0024582D02*
Y0023449D01*
X0002820Y0024798D02*
X0002691D01*
X0002949Y0024753D02*
X0002563D01*
X0003013Y0024708D02*
X0002499D01*
X0003057Y0024663D02*
X0002454D01*
X0003090Y0024618D02*
X0002422D01*
X0002929Y0023268D02*
X0002583D01*
X0003150Y0024409D02*
Y0023622D01*
G01X0002756Y0004330D02*
G03X0003150Y0004724I0000000J0000394D01*
G01X0002362D02*
G03X0002756Y0004330I0000394J0000000D01*
Y0005906D02*
G03X0002362Y0005512I0000000J0000394D01*
G01X0003150D02*
G03X0002756Y0005906I0000394J0000000D01*
G01X-0000788Y0023228D02*
G03X-0000394Y0023622I0000000J0000394D01*
G01X-0001181D02*
G03X-0000788Y0023229I0000393J0000000D01*
Y0024803D02*
G03X-0001182Y0024409I0000000J0000394D01*
G01X-0000394D02*
G03X-0000788Y0024803I0000394J0000000D01*
Y0004330D02*
G03X-0000394Y0004724I0000000J0000394D01*
G01X-0001181D02*
G03X-0000788Y0004331I0000393J0000000D01*
Y0005906D02*
G03X-0001182Y0005512I0000000J0000394D01*
G01X-0000394D02*
G03X-0000788Y0005906I0000394J0000000D01*
G01X0021260Y0031693D02*
G03X0020866Y0032087I0000394J0000000D01*
Y0031299D02*
G03X0021260Y0031693I0000000J0000394D01*
G01X0019685D02*
G03X0020079Y0031299I0000394J0000000D01*
Y0032087D02*
G03X0019685Y0031693I0000000J0000394D01*
G01X0021260Y0026378D02*
G03X0020866Y0026772I0000394J0000000D01*
Y0025984D02*
G03X0021260Y0026378I0000000J0000394D01*
G01X0019685D02*
G03X0020079Y0025984I0000394J0000000D01*
Y0026772D02*
G03X0019685Y0026378I0000000J0000394D01*
G01X0021260Y0021260D02*
G03X0020866Y0021654I0000394J0000000D01*
Y0020866D02*
G03X0021260Y0021260I0000000J0000394D01*
G01X0019685D02*
G03X0020079Y0020866I0000394J0000000D01*
Y0021653D02*
G03X0019686Y0021260I0000000J0000393D01*
G01X0021260Y0017520D02*
G03X0020866Y0017914I0000394J0000000D01*
Y0017126D02*
G03X0021260Y0017520I0000000J0000394D01*
G01X0019685D02*
G03X0020079Y0017126I0000394J0000000D01*
Y0017913D02*
G03X0019686Y0017520I0000000J0000393D01*
G01X0021260Y0012205D02*
G03X0020866Y0012599I0000394J0000000D01*
Y0011811D02*
G03X0021260Y0012205I0000000J0000394D01*
G01X0019685D02*
G03X0020079Y0011811I0000394J0000000D01*
Y0012598D02*
G03X0019686Y0012205I0000000J0000393D01*
G01X0021260Y0009055D02*
G03X0020866Y0009449I0000394J0000000D01*
Y0008661D02*
G03X0021260Y0009055I0000000J0000394D01*
G01X0019685D02*
G03X0020079Y0008661I0000394J0000000D01*
Y0009449D02*
G03X0019685Y0009055I0000000J0000394D01*
G01X0014567Y0002756D02*
G03X0014173Y0003150I0000394J0000000D01*
Y0002362D02*
G03X0014567Y0002756I0000000J0000394D01*
G01X0012992D02*
G03X0013386Y0002362I0000394J0000000D01*
Y0003150D02*
G03X0012992Y0002756I0000000J0000394D01*
G01X0014567Y-0000788D02*
G03X0014173Y-0000394I0000394J0000000D01*
Y-0001181D02*
G03X0014566Y-0000788I0000000J0000393D01*
G01X0012992D02*
G03X0013386Y-0001182I0000394J0000000D01*
Y-0000394D02*
G03X0012992Y-0000788I0000000J0000394D01*
G01X0002756Y0023228D02*
G03X0003150Y0023622I0000000J0000394D01*
G01X0002362D02*
G03X0002756Y0023228I0000394J0000000D01*
Y0024803D02*
G03X0002362Y0024409I0000000J0000394D01*
G01X0003150D02*
G03X0002756Y0024803I0000394J0000000D01*
G54D11*
X0022756Y0039161D03*
X0002756D03*
G54D13*
X0037179Y0026455D03*
X0018179Y0017455D03*
X0008929D03*
X0027679D03*
X0037179D03*
G54D14*
X0024650Y0026455D03*
X0011400Y0007955D03*
X0018650Y0026455D03*
X0006400Y0007955D03*
X0023459D03*
X0035959D03*
X0012900Y0026455D03*
X0006900D03*
Y0036955D03*
X0012650D03*
X0018650D03*
X0030400D03*
X0024400D03*
X0036400D03*
G54D24*
X0014250Y0023750D03*
Y0024750D03*
X0008250Y0023750D03*
Y0024750D03*
Y0034000D03*
Y0035000D03*
X0014250Y0034000D03*
Y0035000D03*
X0020250Y0034000D03*
Y0035000D03*
X0032000Y0034000D03*
Y0035000D03*
X0026000Y0034000D03*
Y0035000D03*
X0037750Y0034000D03*
Y0035000D03*
X0031712Y0040039D03*
Y0041850D03*
X0030334D03*
X0028957D03*
X0027579D03*
X0026201D03*
X0024823D03*
X0023445D03*
X0022067D03*
Y0040039D03*
X0023445D03*
X0024823D03*
X0026201D03*
X0027579D03*
X0028957D03*
X0030334D03*
X0011712D03*
Y0041850D03*
X0010334D03*
X0008957D03*
X0007579D03*
X0006201D03*
X0004823D03*
X0003445D03*
X0002067D03*
Y0040039D03*
X0003445D03*
X0004823D03*
X0006201D03*
X0007579D03*
X0008957D03*
X0010334D03*
G54D25*
X0023500Y0022970D03*
Y0025529D03*
X0010250Y0004470D03*
Y0007029D03*
X0017500Y0022970D03*
Y0025529D03*
X0005250Y0004470D03*
Y0007029D03*
X0033470Y0022970D03*
X0036029D03*
Y0025529D03*
X0033470D03*
X0014470Y0013970D03*
X0017029D03*
Y0016529D03*
X0014470D03*
X0005220Y0013970D03*
X0007779D03*
Y0016529D03*
X0005220D03*
X0017191Y0004470D03*
X0019750D03*
X0022309D03*
Y0007029D03*
X0019750D03*
X0017191D03*
X0029691Y0004470D03*
X0032250D03*
X0034809D03*
Y0007029D03*
X0032250D03*
X0029691D03*
X0023970Y0013970D03*
X0026529D03*
Y0016529D03*
X0023970D03*
X0033470Y0013970D03*
X0036029D03*
Y0016529D03*
X0033470D03*
X0011750Y0022970D03*
Y0025529D03*
X0005750Y0022970D03*
Y0025529D03*
Y0033470D03*
Y0036029D03*
X0011500Y0033470D03*
Y0036029D03*
X0017500Y0033470D03*
Y0036029D03*
X0029250Y0033470D03*
Y0036029D03*
X0023250Y0033470D03*
Y0036029D03*
X0035250Y0033470D03*
Y0036029D03*
G54D26*
X0026675Y0021606D03*
X0027463D03*
X0028250D03*
X0029037D03*
X0029825D03*
Y0022393D03*
X0029037D03*
X0028250D03*
X0027463D03*
X0026675D03*
G54D27*
X0037401Y0000000D03*
X0036220Y0040945D03*
X0028740Y0025590D03*
X0011024Y0014961D03*
X0000000Y0035827D03*
Y0000000D03*
G54D29*
X0011100Y0019400D03*
X0020300Y0038300D03*
X0000400Y0016500D03*
X0000100Y0041000D03*
X0011200Y0020000D03*
X0026600D03*
X0015000Y0037900D03*
X0023970Y0019400D03*
X0012300Y0027300D03*
X0021200Y0024000D03*
X0025700Y0026300D03*
Y0024900D03*
X0022100Y0020600D03*
X0023500Y0030100D03*
X0033000D03*
X0010334Y0027765D03*
M02*
