%
T1C0.0118F200S100
X000100Y041000
X000400Y016500
X010334Y027765
X011100Y019400
X011200Y020000
X012300Y027300
X015000Y037900
X020300Y038300
X021200Y024000
X022100Y020600
X023500Y030100
X023970Y019400
X025700Y024900
X025700Y026300
X026600Y020000
X033000Y030100
T4C0.0512F200S100
X005220Y013970
X005220Y016529
X005250Y004470
X005250Y007029
X005750Y022970
X005750Y025529
X005750Y033470
X005750Y036029
X007779Y013970
X007779Y016529
X010250Y004470
X010250Y007029
X011500Y033470
X011500Y036029
X011750Y022970
X011750Y025529
X014470Y013970
X014470Y016529
X017029Y013970
X017029Y016529
X017191Y004470
X017191Y007029
X017500Y022970
X017500Y025529
X017500Y033470
X017500Y036029
X019750Y004470
X019750Y007029
X022309Y004470
X022309Y007029
X023250Y033470
X023250Y036029
X023500Y022970
X023500Y025529
X023970Y013970
X023970Y016529
X026529Y013970
X026529Y016529
X029250Y033470
X029250Y036029
X029691Y004470
X029691Y007029
X032250Y004470
X032250Y007029
X033470Y013970
X033470Y016529
X033470Y022970
X033470Y025529
X034809Y004470
X034809Y007029
X035250Y033470
X035250Y036029
X036029Y013970
X036029Y016529
X036029Y022970
X036029Y025529
T3C0.0433F200S100
X002067Y040039
X003445Y040039
X003445Y041850
X002067Y041850
X004823Y040039
X006201Y040039
X006201Y041850
X004823Y041850
X007579Y040039
X007579Y041850
X008250Y023750
X008250Y024750
X008250Y034000
X008250Y035000
X008957Y040039
X010334Y040039
X010334Y041850
X008957Y041850
X011712Y040039
X011712Y041850
X014250Y023750
X014250Y024750
X014250Y034000
X014250Y035000
X020250Y034000
X020250Y035000
X022067Y040039
X022067Y041850
X023445Y040039
X024823Y040039
X024823Y041850
X023445Y041850
X026000Y034000
X026000Y035000
X026201Y040039
X026201Y041850
X027579Y040039
X028957Y040039
X028957Y041850
X027579Y041850
X030334Y040039
X031712Y040039
X031712Y041850
X030334Y041850
X032000Y034000
X032000Y035000
X037750Y034000
X037750Y035000
T2C0.0315F200S100
X026675Y021606
X026675Y022393
X027463Y021606
X027463Y022393
X028250Y021606
X028250Y022393
X029037Y021606
X029037Y022393
X029825Y021606
X029825Y022393
T8C0.1378F200S100
X000000Y000000
X011024Y014961
X000000Y035827
X028740Y025590
X036220Y040945
X037401Y000000
M30
